<?xml version="1.0" encoding="UTF-8"?>
<svg width="16px" height="24px" viewBox="0 0 16 24" version="1.1" xmlns="http://www.w3.org/2000/svg" xmlns:xlink="http://www.w3.org/1999/xlink">
    <!-- Generator: Sketch 52.6 (67491) - http://www.bohemiancoding.com/sketch -->
    <title>My tours</title>
    <desc>Created with Sketch.</desc>
    <g id="Symbols" stroke="none" stroke-width="1" fill="none" fill-rule="evenodd">
        <path d="M12.0000143,8.00000954 C12.0000143,5.79688191 10.2031372,4.00000477 8.00000954,4.00000477 C5.79688191,4.00000477 4.00000477,5.79688191 4.00000477,8.00000954 C4.00000477,10.2031372 5.79688191,12.0000143 8.00000954,12.0000143 C10.2031372,12.0000143 12.0000143,10.2031372 12.0000143,8.00000954 Z M16.0000191,8.00000954 C16.0000191,8.95313567 15.8906439,9.93751185 15.4843935,10.7968879 L9.79688668,22.8906523 C9.46876129,23.5781531 8.75001043,24.0000286 8.00000954,24.0000286 C7.25000864,24.0000286 6.53125779,23.5781531 6.21875741,22.8906523 L0.515625615,10.7968879 C0.10937513,9.93751185 0,8.95313567 0,8.00000954 C0,3.57812927 3.57812927,0 8.00000954,0 C12.4218898,0 16.0000191,3.57812927 16.0000191,8.00000954 Z" id="My-tours" fill="#272727"></path>
    </g>
</svg>