<?xml version="1.0" encoding="UTF-8"?>
<svg width="20px" height="25px" viewBox="0 0 20 25" version="1.1" xmlns="http://www.w3.org/2000/svg" xmlns:xlink="http://www.w3.org/1999/xlink">
    <!-- Generator: Sketch 52.6 (67491) - http://www.bohemiancoding.com/sketch -->
    <title>business infomation</title>
    <desc>Created with Sketch.</desc>
    <g id="Symbols" stroke="none" stroke-width="1" fill="none" fill-rule="evenodd">
        <g id="business-infomation" fill="#272727">
            <path d="M14.2857313,8.48215297 L14.2857313,13.8393022 C14.2857313,14.327584 13.8811549,14.7321604 13.3928731,14.7321604 L12.5000149,14.7321604 L12.5000149,20.0893097 C12.5000149,20.5775915 12.0954385,20.9821679 11.6071567,20.9821679 L8.03572387,20.9821679 C7.54744203,20.9821679 7.14286566,20.5775915 7.14286566,20.0893097 L7.14286566,14.7321604 L6.25000745,14.7321604 C5.76172562,14.7321604 5.35714924,14.327584 5.35714924,13.8393022 L5.35714924,8.48215297 C5.35714924,7.4916384 6.15235108,6.69643655 7.14286566,6.69643655 L12.5000149,6.69643655 C13.4905295,6.69643655 14.2857313,7.4916384 14.2857313,8.48215297 Z M12.946444,3.12500373 C12.946444,4.8549165 11.5513531,6.25000745 9.82144028,6.25000745 C8.0915275,6.25000745 6.69643655,4.8549165 6.69643655,3.12500373 C6.69643655,1.39509095 8.0915275,0 9.82144028,0 C11.5513531,0 12.946444,1.39509095 12.946444,3.12500373 Z" id="ïˆ"></path>
            <path d="M19.6428806,20.9821679 C19.6428806,23.4375279 14.5507986,24.5536007 9.82144028,24.5536007 C5.09208196,24.5536007 0,23.4375279 0,20.9821679 C0,19.0848442 2.83203463,18.191986 5.20368924,17.7874096 C5.69197107,17.7037041 6.15235108,18.0245751 6.23605654,18.5128569 C6.319762,19.0011387 5.99889108,19.4615187 5.51060925,19.5452242 C2.63672189,20.0474569 1.82756914,20.8287079 1.78571641,20.9961188 C1.92522551,21.4704497 4.60380013,22.7678843 9.82144028,22.7678843 C15.0390804,22.7678843 17.717655,21.4704497 17.8571641,20.968217 C17.8153114,20.8287079 17.0061587,20.0474569 14.1322713,19.5452242 C13.6439895,19.4615187 13.3231186,19.0011387 13.406824,18.5128569 C13.4905295,18.0245751 13.9509095,17.7037041 14.4391913,17.7874096 C16.8108459,18.191986 19.6428806,19.0848442 19.6428806,20.9821679 Z" id="Path"></path>
        </g>
    </g>
</svg>