<?xml version="1.0" encoding="UTF-8" standalone="no"?>
<!-- Created with Keyshape -->
<svg xmlns="http://www.w3.org/2000/svg" xmlns:xlink="http://www.w3.org/1999/xlink" id="BST" viewBox="0 0 1440 700" style="white-space: preserve-spaces;">
    <style>
@keyframes BST9_404_t { 0% { transform: translate(480.994px,-79.447px); } 100% { transform: translate(299.109px,-79.447px); } }
@keyframes BST9_404_o { 0% { opacity: 0; } 19.6429% { opacity: 1; animation-timing-function: steps(1, start); } 82.1429% { opacity: 1; } 93.75% { opacity: 0; } 100% { opacity: 0; } }
@keyframes BST7_404_t { 0% { transform: translate(-479.2px,-15px); } 90.1785% { transform: translate(-556.6px,-15px); } 100% { transform: translate(-556.6px,-15px); } }
@keyframes BST7_404_o { 0% { opacity: 0; } 14.2857% { opacity: 1; } 80.3571% { opacity: 1; } 90.1786% { opacity: 0; } 100% { opacity: 0; } }
@keyframes BST6_404_t { 0% { transform: translate(488.2px,95.8px); } 96.4285% { transform: translate(232.128px,95.8px); } 100% { transform: translate(232.128px,95.8px); } }
@keyframes BST6_404_o { 0% { opacity: 0; } 20.5357% { opacity: 1; } 79.4643% { opacity: 1; } 92.8571% { opacity: 0; } 100% { opacity: 0; } }
@keyframes BST5-2_404_t { 0% { transform: translate(-651.092px,0px); } 93.75% { transform: translate(-975.994px,0px); } 100% { transform: translate(-975.994px,0px); } }
@keyframes BST5-2_404_o { 0% { opacity: 0; } 21.4286% { opacity: 1; } 80.3571% { opacity: 1; } 93.75% { opacity: 0; } 100% { opacity: 0; } }
@keyframes BSTtrr_404_d { 0% { d: path('M812.9,386.5C832.2,386.5,847.9,402.2,847.9,421.5C847.9,442.5,847.9,484.6,847.9,505.6C847.9,524.9,832.2,540.6,812.9,540.6L812.9,540.6C793.6,540.6,777.9,524.9,777.9,505.6C777.9,484.6,777.9,442.5,777.9,421.5C777.9,402.2,793.6,386.5,812.9,386.5Z'); animation-timing-function: cubic-bezier(0.59,0.25,0.25,1); } 15.1786% { d: path('M800.5,386.5C819.8,386.5,831.6,399,837.5,421.5C842.6,443.5,847.9,470.5,847.9,505.6C847.9,524.9,832.2,540.6,812.9,540.6L812.9,540.6C793.6,540.6,777.9,527,777.9,505.6C777.9,480.5,772.6,450,768.5,426.5C764.5,403.5,781.2,386.5,800.5,386.5Z'); animation-timing-function: cubic-bezier(0.43,0,0.33,1); } 31.25% { d: path('M812.9,386.5C832.2,386.5,847.9,402.2,847.9,421.5C847.9,442.5,847.9,484.6,847.9,505.6C847.9,524.9,832.2,540.6,812.9,540.6L812.9,540.6C793.6,540.6,777.9,524.9,777.9,505.6C777.9,484.6,777.9,442.5,777.9,421.5C777.9,402.2,793.6,386.5,812.9,386.5Z'); animation-timing-function: cubic-bezier(0.59,0.25,0.25,1); } 46.4286% { d: path('M800.5,386.5C819.8,386.5,831.6,399,837.5,421.5C842.6,443.5,847.9,470.5,847.9,505.6C847.9,524.9,832.2,540.6,812.9,540.6L812.9,540.6C793.6,540.6,777.9,527,777.9,505.6C777.9,480.5,772.6,450,768.5,426.5C764.5,403.5,781.2,386.5,800.5,386.5Z'); } 62.5% { d: path('M812.9,386.5C832.2,386.5,847.9,402.2,847.9,421.5C847.9,442.5,847.9,484.6,847.9,505.6C847.9,524.9,832.2,540.6,812.9,540.6L812.9,540.6C793.6,540.6,777.9,524.9,777.9,505.6C777.9,484.6,777.9,442.5,777.9,421.5C777.9,402.2,793.6,386.5,812.9,386.5Z'); animation-timing-function: cubic-bezier(0.59,0.25,0.25,1); } 77.6786% { d: path('M800.5,386.5C819.8,386.5,831.6,399,837.5,421.5C842.6,443.5,847.9,470.5,847.9,505.6C847.9,524.9,832.2,540.6,812.9,540.6L812.9,540.6C793.6,540.6,777.9,527,777.9,505.6C777.9,480.5,772.6,450,768.5,426.5C764.5,403.5,781.2,386.5,800.5,386.5Z'); animation-timing-function: cubic-bezier(0.43,0,0.33,1); } 93.75% { d: path('M812.9,386.5C832.2,386.5,847.9,402.2,847.9,421.5C847.9,442.5,847.9,484.6,847.9,505.6C847.9,524.9,832.2,540.6,812.9,540.6L812.9,540.6C793.6,540.6,777.9,524.9,777.9,505.6C777.9,484.6,777.9,442.5,777.9,421.5C777.9,402.2,793.6,386.5,812.9,386.5Z'); } 100% { d: path('M812.9,386.5C832.2,386.5,847.9,402.2,847.9,421.5C847.9,442.5,847.9,484.6,847.9,505.6C847.9,524.9,832.2,540.6,812.9,540.6L812.9,540.6C793.6,540.6,777.9,524.9,777.9,505.6C777.9,484.6,777.9,442.5,777.9,421.5C777.9,402.2,793.6,386.5,812.9,386.5Z'); } }
@keyframes BSTts1_404_d { 0% { d: path('M812.5,455.5C812.5,487.1,812.4,494,812.4,582'); animation-timing-function: cubic-bezier(0.59,0.25,0.25,1); } 15.1786% { d: path('M806.5,456.5C812.5,487,812.4,494,812.4,582'); animation-timing-function: cubic-bezier(0.43,0,0.33,1); } 31.25% { d: path('M812.5,455.5C812.5,487.1,812.4,494,812.4,582'); animation-timing-function: cubic-bezier(0.59,0.25,0.25,1); } 46.4286% { d: path('M806.5,456.5C812.5,487,812.4,494,812.4,582'); } 62.5% { d: path('M812.5,455.5C812.5,487.1,812.4,494,812.4,582'); animation-timing-function: cubic-bezier(0.59,0.25,0.25,1); } 77.6786% { d: path('M806.5,456.5C812.5,487,812.4,494,812.4,582'); animation-timing-function: cubic-bezier(0.43,0,0.33,1); } 93.75% { d: path('M812.5,455.5C812.5,487.1,812.4,494,812.4,582'); } 100% { d: path('M812.5,455.5C812.5,487.1,812.4,494,812.4,582'); } }
@keyframes BSTts2_404_d { 0% { d: path('M813,496.3C813,496.3,824.933,481.967,830.9,474.8'); animation-timing-function: cubic-bezier(0.59,0.25,0.25,1); } 15.1786% { d: path('M812,496.3C812,496.3,825,483,828.5,474.5'); animation-timing-function: cubic-bezier(0.43,0,0.33,1); } 31.25% { d: path('M813,496.3C813,496.3,824.933,481.967,830.9,474.8'); animation-timing-function: cubic-bezier(0.59,0.25,0.25,1); } 46.4286% { d: path('M812,496.3C812,496.3,825,483,828.5,474.5'); } 62.5% { d: path('M813,496.3C813,496.3,824.933,481.967,830.9,474.8'); animation-timing-function: cubic-bezier(0.59,0.25,0.25,1); } 77.6786% { d: path('M812,496.3C812,496.3,825,483,828.5,474.5'); animation-timing-function: cubic-bezier(0.43,0,0.33,1); } 93.75% { d: path('M813,496.3C813,496.3,824.933,481.967,830.9,474.8'); } 100% { d: path('M813,496.3C813,496.3,824.933,481.967,830.9,474.8'); } }
@keyframes BSTts3_404_d { 0% { d: path('M813,519.9C813,519.9,824.933,505.567,830.9,498.4'); animation-timing-function: cubic-bezier(0.59,0.25,0.25,1); } 15.1786% { d: path('M813,519.9C813,519.9,826.5,506.5,829.5,498.5'); animation-timing-function: cubic-bezier(0.43,0,0.33,1); } 31.25% { d: path('M813,519.9C813,519.9,824.933,505.567,830.9,498.4'); animation-timing-function: cubic-bezier(0.59,0.25,0.25,1); } 46.4286% { d: path('M813,519.9C813,519.9,826.5,506.5,829.5,498.5'); } 62.5% { d: path('M813,519.9C813,519.9,824.933,505.567,830.9,498.4'); animation-timing-function: cubic-bezier(0.59,0.25,0.25,1); } 77.6786% { d: path('M813,519.9C813,519.9,826.5,506.5,829.5,498.5'); animation-timing-function: cubic-bezier(0.43,0,0.33,1); } 93.75% { d: path('M813,519.9C813,519.9,824.933,505.567,830.9,498.4'); } 100% { d: path('M813,519.9C813,519.9,824.933,505.567,830.9,498.4'); } }
@keyframes BSTts4_404_d { 0% { d: path('M811.2,509.3C811.2,509.3,793.3,487.8,793.3,487.8'); animation-timing-function: cubic-bezier(0.59,0.25,0.25,1); } 15.1786% { d: path('M811.2,509.3C811.2,509.3,800.5,494.5,791.5,489.5'); animation-timing-function: cubic-bezier(0.43,0,0.33,1); } 31.25% { d: path('M811.2,509.3C811.2,509.3,793.3,487.8,793.3,487.8'); animation-timing-function: cubic-bezier(0.59,0.25,0.25,1); } 46.4286% { d: path('M811.2,509.3C811.2,509.3,800.5,494.5,791.5,489.5'); } 62.5% { d: path('M811.2,509.3C811.2,509.3,793.3,487.8,793.3,487.8'); animation-timing-function: cubic-bezier(0.59,0.25,0.25,1); } 77.6786% { d: path('M811.2,509.3C811.2,509.3,800.5,494.5,791.5,489.5'); animation-timing-function: cubic-bezier(0.43,0,0.33,1); } 93.75% { d: path('M811.2,509.3C811.2,509.3,793.3,487.8,793.3,487.8'); } 100% { d: path('M811.2,509.3C811.2,509.3,793.3,487.8,793.3,487.8'); } }
@keyframes BSTtrr-2_404_d { 0% { d: path('M812.9,386.5C832.2,386.5,847.9,402.2,847.9,421.5C847.9,442.5,847.9,484.6,847.9,505.6C847.9,524.9,832.2,540.6,812.9,540.6L812.9,540.6C793.6,540.6,777.9,524.9,777.9,505.6C777.9,484.6,777.9,442.5,777.9,421.5C777.9,402.2,793.6,386.5,812.9,386.5Z'); } 4.4643% { d: path('M812.9,386.5C832.2,386.5,847.9,402.2,847.9,421.5C847.9,442.5,847.9,484.6,847.9,505.6C847.9,524.9,832.2,540.6,812.9,540.6L812.9,540.6C793.6,540.6,777.9,524.9,777.9,505.6C777.9,484.6,777.9,442.5,777.9,421.5C777.9,402.2,793.6,386.5,812.9,386.5Z'); animation-timing-function: cubic-bezier(0.59,0.25,0.25,1); } 19.6429% { d: path('M800.5,386.5C819.8,386.5,831.6,399,837.5,421.5C842.6,443.5,847.9,470.5,847.9,505.6C847.9,524.9,832.2,540.6,812.9,540.6L812.9,540.6C793.6,540.6,777.9,527,777.9,505.6C777.9,480.5,772.6,450,768.5,426.5C764.5,403.5,781.2,386.5,800.5,386.5Z'); animation-timing-function: cubic-bezier(0.43,0,0.33,1); } 35.7143% { d: path('M812.9,386.5C832.2,386.5,847.9,402.2,847.9,421.5C847.9,442.5,847.9,484.6,847.9,505.6C847.9,524.9,832.2,540.6,812.9,540.6L812.9,540.6C793.6,540.6,777.9,524.9,777.9,505.6C777.9,484.6,777.9,442.5,777.9,421.5C777.9,402.2,793.6,386.5,812.9,386.5Z'); animation-timing-function: cubic-bezier(0.59,0.25,0.25,1); } 50.8929% { d: path('M800.5,386.5C819.8,386.5,831.6,399,837.5,421.5C842.6,443.5,847.9,470.5,847.9,505.6C847.9,524.9,832.2,540.6,812.9,540.6L812.9,540.6C793.6,540.6,777.9,527,777.9,505.6C777.9,480.5,772.6,450,768.5,426.5C764.5,403.5,781.2,386.5,800.5,386.5Z'); animation-timing-function: cubic-bezier(0.43,0,0.33,1); } 66.9643% { d: path('M812.9,386.5C832.2,386.5,847.9,402.2,847.9,421.5C847.9,442.5,847.9,484.6,847.9,505.6C847.9,524.9,832.2,540.6,812.9,540.6L812.9,540.6C793.6,540.6,777.9,524.9,777.9,505.6C777.9,484.6,777.9,442.5,777.9,421.5C777.9,402.2,793.6,386.5,812.9,386.5Z'); animation-timing-function: cubic-bezier(0.59,0.25,0.25,1); } 82.1429% { d: path('M800.5,386.5C819.8,386.5,831.6,399,837.5,421.5C842.6,443.5,847.9,470.5,847.9,505.6C847.9,524.9,832.2,540.6,812.9,540.6L812.9,540.6C793.6,540.6,777.9,527,777.9,505.6C777.9,480.5,772.6,450,768.5,426.5C764.5,403.5,781.2,386.5,800.5,386.5Z'); animation-timing-function: cubic-bezier(0.43,0,0.33,1); } 98.2143% { d: path('M812.9,386.5C832.2,386.5,847.9,402.2,847.9,421.5C847.9,442.5,847.9,484.6,847.9,505.6C847.9,524.9,832.2,540.6,812.9,540.6L812.9,540.6C793.6,540.6,777.9,524.9,777.9,505.6C777.9,484.6,777.9,442.5,777.9,421.5C777.9,402.2,793.6,386.5,812.9,386.5Z'); } 100% { d: path('M812.9,386.5C832.2,386.5,847.9,402.2,847.9,421.5C847.9,442.5,847.9,484.6,847.9,505.6C847.9,524.9,832.2,540.6,812.9,540.6L812.9,540.6C793.6,540.6,777.9,524.9,777.9,505.6C777.9,484.6,777.9,442.5,777.9,421.5C777.9,402.2,793.6,386.5,812.9,386.5Z'); } }
@keyframes BSTts1-2_404_d { 0% { d: path('M812.5,455.5C812.5,487.1,812.4,494,812.4,582'); } 4.4643% { d: path('M812.5,455.5C812.5,487.1,812.4,494,812.4,582'); animation-timing-function: cubic-bezier(0.59,0.25,0.25,1); } 19.6429% { d: path('M806.5,456.5C812.5,487,812.4,494,812.4,582'); animation-timing-function: cubic-bezier(0.43,0,0.33,1); } 35.7143% { d: path('M812.5,455.5C812.5,487.1,812.4,494,812.4,582'); animation-timing-function: cubic-bezier(0.59,0.25,0.25,1); } 50.8929% { d: path('M806.5,456.5C812.5,487,812.4,494,812.4,582'); animation-timing-function: cubic-bezier(0.43,0,0.33,1); } 66.9643% { d: path('M812.5,455.5C812.5,487.1,812.4,494,812.4,582'); animation-timing-function: cubic-bezier(0.59,0.25,0.25,1); } 82.1429% { d: path('M806.5,456.5C812.5,487,812.4,494,812.4,582'); animation-timing-function: cubic-bezier(0.43,0,0.33,1); } 98.2143% { d: path('M812.5,455.5C812.5,487.1,812.4,494,812.4,582'); } 100% { d: path('M812.5,455.5C812.5,487.1,812.4,494,812.4,582'); } }
@keyframes BSTts2-2_404_d { 0% { d: path('M813,496.3C813,496.3,824.933,481.967,830.9,474.8'); } 4.4643% { d: path('M813,496.3C813,496.3,824.933,481.967,830.9,474.8'); animation-timing-function: cubic-bezier(0.59,0.25,0.25,1); } 19.6429% { d: path('M812,496.3C812,496.3,825,483,828.5,474.5'); animation-timing-function: cubic-bezier(0.43,0,0.33,1); } 35.7143% { d: path('M813,496.3C813,496.3,824.933,481.967,830.9,474.8'); animation-timing-function: cubic-bezier(0.59,0.25,0.25,1); } 50.8929% { d: path('M812,496.3C812,496.3,825,483,828.5,474.5'); animation-timing-function: cubic-bezier(0.43,0,0.33,1); } 66.9643% { d: path('M813,496.3C813,496.3,824.933,481.967,830.9,474.8'); animation-timing-function: cubic-bezier(0.59,0.25,0.25,1); } 82.1429% { d: path('M812,496.3C812,496.3,825,483,828.5,474.5'); animation-timing-function: cubic-bezier(0.43,0,0.33,1); } 98.2143% { d: path('M813,496.3C813,496.3,824.933,481.967,830.9,474.8'); } 100% { d: path('M813,496.3C813,496.3,824.933,481.967,830.9,474.8'); } }
@keyframes BSTts3-2_404_d { 0% { d: path('M813,519.9C813,519.9,824.933,505.567,830.9,498.4'); } 4.4643% { d: path('M813,519.9C813,519.9,824.933,505.567,830.9,498.4'); animation-timing-function: cubic-bezier(0.59,0.25,0.25,1); } 19.6429% { d: path('M813,519.9C813,519.9,826.5,506.5,829.5,498.5'); animation-timing-function: cubic-bezier(0.43,0,0.33,1); } 35.7143% { d: path('M813,519.9C813,519.9,824.933,505.567,830.9,498.4'); animation-timing-function: cubic-bezier(0.59,0.25,0.25,1); } 50.8929% { d: path('M813,519.9C813,519.9,826.5,506.5,829.5,498.5'); animation-timing-function: cubic-bezier(0.43,0,0.33,1); } 66.9643% { d: path('M813,519.9C813,519.9,824.933,505.567,830.9,498.4'); animation-timing-function: cubic-bezier(0.59,0.25,0.25,1); } 82.1429% { d: path('M813,519.9C813,519.9,826.5,506.5,829.5,498.5'); animation-timing-function: cubic-bezier(0.43,0,0.33,1); } 98.2143% { d: path('M813,519.9C813,519.9,824.933,505.567,830.9,498.4'); } 100% { d: path('M813,519.9C813,519.9,824.933,505.567,830.9,498.4'); } }
@keyframes BSTts4-2_404_d { 0% { d: path('M811.2,509.3C811.2,509.3,793.3,487.8,793.3,487.8'); } 4.4643% { d: path('M811.2,509.3C811.2,509.3,793.3,487.8,793.3,487.8'); animation-timing-function: cubic-bezier(0.59,0.25,0.25,1); } 19.6429% { d: path('M811.2,509.3C811.2,509.3,800.5,494.5,791.5,489.5'); animation-timing-function: cubic-bezier(0.43,0,0.33,1); } 35.7143% { d: path('M811.2,509.3C811.2,509.3,793.3,487.8,793.3,487.8'); animation-timing-function: cubic-bezier(0.59,0.25,0.25,1); } 50.8929% { d: path('M811.2,509.3C811.2,509.3,800.5,494.5,791.5,489.5'); animation-timing-function: cubic-bezier(0.43,0,0.33,1); } 66.9643% { d: path('M811.2,509.3C811.2,509.3,793.3,487.8,793.3,487.8'); animation-timing-function: cubic-bezier(0.59,0.25,0.25,1); } 82.1429% { d: path('M811.2,509.3C811.2,509.3,800.5,494.5,791.5,489.5'); animation-timing-function: cubic-bezier(0.43,0,0.33,1); } 98.2143% { d: path('M811.2,509.3C811.2,509.3,793.3,487.8,793.3,487.8'); } 100% { d: path('M811.2,509.3C811.2,509.3,793.3,487.8,793.3,487.8'); } }
@keyframes a0_t { 0% { transform: translate(377.54px,398.644px); } 47.3214% { transform: translate(377.54px,398.644px); } 48.6607% { transform: translate(349.726837px,388.262421px); } 49.3303% { transform: translate(338.89682px,378.253235px); } 49.6651% { transform: translate(335.285828px,371.763855px); } 50% { transform: translate(333.12px,364.644px); } 50.4464% { transform: translate(332.23288px,358.013367px); } 50.8928% { transform: translate(333.495361px,351.68692px); } 51.3392% { transform: translate(337.78772px,346.978394px); } 51.7857% { transform: translate(344.12px,345.498px); } 52.4553% { transform: translate(350.233429px,349.346405px); } 53.125% { transform: translate(353.111511px,356.017853px); } 53.7946% { transform: translate(352.048981px,363.180786px); } 54.4642% { transform: translate(347.293px,368.733px); } 54.9107% { transform: translate(332.506531px,377.48938px); } 55.3571% { transform: translate(315.952148px,382.20047px); } 56.25% { transform: translate(281.565613px,382.439301px); } 57.1428% { transform: translate(248.281708px,373.548279px); } 57.5892% { transform: translate(232.782791px,365.946594px); } 58.0357% { transform: translate(218.83px,355.933px); } 100% { transform: translate(218.83px,355.933px); } }
@keyframes BStleaf_404_t { 0% { transform: rotate(0deg) scale(0.8,0.8) translate(-17.5023px,-4.06689px); } 47.3214% { transform: rotate(0deg) scale(0.8,0.8) translate(-17.5023px,-4.06689px); } 50% { transform: rotate(59deg) scale(0.8,0.8) translate(-17.5023px,-4.06689px); } 51.7857% { transform: rotate(153deg) scale(0.8,0.8) translate(-17.5023px,-4.06689px); } 54.4642% { transform: rotate(305deg) scale(0.8,0.8) translate(-17.5023px,-4.06689px); } 58.0357% { transform: rotate(377deg) scale(0.8,0.8) translate(-17.5023px,-4.06689px); } 100% { transform: rotate(377deg) scale(0.8,0.8) translate(-17.5023px,-4.06689px); } }
@keyframes BStleaf_404_o { 0% { opacity: 0; } 47.3214% { opacity: 0; } 50% { opacity: 1; } 56.25% { opacity: 1; } 58.0357% { opacity: 0; } 100% { opacity: 0; } }
@keyframes Rock1_bS_404_t { 0% { transform: translate(-0.000004px,-17.475542px); } 10.7142% { transform: translate(-0.000004px,51.526622px); animation-timing-function: cubic-bezier(0.55,0.085,0.68,0.53); } 57.1428% { transform: translate(0.0004px,-17.475378px); } 67.8571% { transform: translate(0.0004px,51.526622px); } 100% { transform: translate(0.0004px,51.526622px); } }
@keyframes Rock1_bS_404_o { 0% { opacity: 0; } 0.8929% { opacity: 1; } 8.9286% { opacity: 1; } 10.7143% { opacity: 0; } 57.1429% { opacity: 0; } 58.0357% { opacity: 1; } 66.0714% { opacity: 1; } 67.8571% { opacity: 0; } 100% { opacity: 0; } }
@keyframes Rock2_bS_404_t { 0% { transform: translate(-1px,-50px); } 3.5714% { transform: translate(-1px,-50px); animation-timing-function: cubic-bezier(0.55,0.085,0.68,0.53); } 14.2857% { transform: translate(-1px,32.004588px); } 45.5357% { transform: translate(-0.99977px,-50.000412px); animation-timing-function: cubic-bezier(0.55,0.085,0.68,0.53); } 56.25% { transform: translate(-0.99977px,32.004588px); } 100% { transform: translate(-0.99977px,32.004588px); } }
@keyframes Rock2_bS_404_o { 0% { opacity: 0; } 3.5714% { opacity: 0; } 4.4643% { opacity: 1; } 12.5% { opacity: 1; } 14.2857% { opacity: 0; } 45.5357% { opacity: 0; } 46.4286% { opacity: 1; } 54.4643% { opacity: 1; } 56.25% { opacity: 0; } 100% { opacity: 0; } }
@keyframes Rock3_bS_404_t { 0% { transform: translate(5.495614px,-25.879639px); } 23.2142% { transform: translate(5.495614px,-25.879639px); animation-timing-function: cubic-bezier(0.55,0.085,0.68,0.53); } 33.9285% { transform: translate(5.495614px,56.125361px); } 70.5357% { transform: translate(5.495614px,-25.879233px); animation-timing-function: cubic-bezier(0.55,0.085,0.68,0.53); } 81.25% { transform: translate(5.495614px,56.125767px); } 100% { transform: translate(5.495614px,56.125767px); } }
@keyframes Rock3_bS_404_o { 0% { opacity: 0; } 23.2143% { opacity: 0; } 24.1071% { opacity: 1; } 32.1429% { opacity: 1; } 33.9286% { opacity: 0; } 70.5357% { opacity: 0; } 71.4286% { opacity: 1; } 79.4643% { opacity: 1; } 81.25% { opacity: 0; } 100% { opacity: 0; } }
@keyframes Rock4_bS_404_t { 0% { transform: translate(5.953212px,-16.480935px); } 29.4642% { transform: translate(5.953212px,-16.480935px); animation-timing-function: cubic-bezier(0.55,0.085,0.68,0.53); } 40.1785% { transform: translate(5.953212px,65.524065px); } 85.7142% { transform: translate(5.953212px,-16.480752px); animation-timing-function: cubic-bezier(0.55,0.085,0.68,0.53); } 96.4285% { transform: translate(5.953212px,65.524248px); } 100% { transform: translate(5.953212px,65.524248px); } }
@keyframes Rock4_bS_404_o { 0% { opacity: 0; } 29.4643% { opacity: 0; } 30.3571% { opacity: 1; } 38.3929% { opacity: 1; } 40.1786% { opacity: 0; } 85.7143% { opacity: 0; } 86.6071% { opacity: 1; } 94.6429% { opacity: 1; } 96.4286% { opacity: 0; } 100% { opacity: 0; } }
@keyframes Rock5_bS_404_t { 0% { transform: translate(4.607874px,-54.923px); } 42.8571% { transform: translate(4.607874px,-54.923px); animation-timing-function: cubic-bezier(0.55,0.085,0.68,0.53); } 53.5714% { transform: translate(4.607874px,27.082px); } 63.3928% { transform: translate(4.607874px,-54.923px); animation-timing-function: cubic-bezier(0.55,0.085,0.68,0.53); } 74.1071% { transform: translate(4.607874px,27.082px); } 100% { transform: translate(4.607874px,27.082px); } }
@keyframes Rock5_bS_404_o { 0% { opacity: 0; } 42.8571% { opacity: 0; } 43.75% { opacity: 1; } 51.7857% { opacity: 1; } 53.5714% { opacity: 0; } 63.3929% { opacity: 0; } 64.2857% { opacity: 1; } 72.3214% { opacity: 1; } 74.1071% { opacity: 0; } 100% { opacity: 0; } }
@keyframes guy1_bS_404_t { 0% { transform: translate(2.847254px,9.500268px); } 8.0357% { transform: translate(2.847254px,9.500268px); animation-timing-function: cubic-bezier(0.55,0.085,0.68,0.53); } 9.8214% { transform: translate(2.847254px,6.500268px); animation-timing-function: cubic-bezier(0.55,0.085,0.68,0.53); } 11.6071% { transform: translate(2.847076px,9.499963px); } 12.5% { transform: translate(2.847076px,9.499963px); animation-timing-function: cubic-bezier(0.55,0.085,0.68,0.53); } 14.2857% { transform: translate(2.847076px,6.499963px); animation-timing-function: cubic-bezier(0.55,0.085,0.68,0.53); } 16.0714% { transform: translate(2.847076px,9.499963px); } 53.5714% { transform: translate(2.847076px,9.499963px); animation-timing-function: cubic-bezier(0.55,0.085,0.68,0.53); } 55.3571% { transform: translate(2.847076px,6.499963px); animation-timing-function: cubic-bezier(0.55,0.085,0.68,0.53); } 57.1428% { transform: translate(2.847076px,9.499963px); } 58.0357% { transform: translate(2.847076px,9.499963px); animation-timing-function: cubic-bezier(0.55,0.085,0.68,0.53); } 59.8214% { transform: translate(2.847076px,6.499963px); animation-timing-function: cubic-bezier(0.55,0.085,0.68,0.53); } 61.6071% { transform: translate(2.847076px,9.499963px); animation-timing-function: cubic-bezier(0,0,1,1); } 88.3928% { transform: translate(2.847076px,9.499963px); animation-timing-function: cubic-bezier(0.55,0.085,0.68,0.53); } 90.1785% { transform: translate(2.847076px,6.499963px); animation-timing-function: cubic-bezier(0.55,0.085,0.68,0.53); } 91.9642% { transform: translate(2.847076px,9.499963px); } 92.8571% { transform: translate(2.847076px,9.499963px); animation-timing-function: cubic-bezier(0.55,0.085,0.68,0.53); } 94.6428% { transform: translate(2.847076px,6.499963px); animation-timing-function: cubic-bezier(0.55,0.085,0.68,0.53); } 96.4285% { transform: translate(2.847076px,9.499963px); } 100% { transform: translate(2.847076px,9.499963px); } }
@keyframes Excl_bS_404_o { 0% { opacity: 0; } 1.7857% { opacity: 1; } 4.4643% { opacity: 1; } 6.25% { opacity: 0; } 41.0714% { opacity: 0; } 42.8571% { opacity: 1; } 45.5357% { opacity: 1; } 47.3214% { opacity: 0; } 78.5714% { opacity: 0; } 80.3571% { opacity: 1; } 83.0357% { opacity: 1; } 84.8214% { opacity: 0; } 100% { opacity: 0; } }
@keyframes Ques1_bS_404_o { 0% { opacity: 0; } 3.5714% { opacity: 0; } 5.3571% { opacity: 1; } 8.0357% { opacity: 1; } 9.8214% { opacity: 0; } 44.6429% { opacity: 0; } 46.4286% { opacity: 1; } 49.1071% { opacity: 1; } 50.8929% { opacity: 0; } 82.1429% { opacity: 0; } 83.9286% { opacity: 1; } 86.6071% { opacity: 1; } 88.3929% { opacity: 0; } 100% { opacity: 0; } }
@keyframes Ques2_bS_404_o { 0% { opacity: 0; } 1.7857% { opacity: 0; } 3.5714% { opacity: 1; } 6.25% { opacity: 1; } 8.0357% { opacity: 0; } 42.8571% { opacity: 0; } 44.6429% { opacity: 1; } 47.3214% { opacity: 1; } 49.1071% { opacity: 0; } 80.3571% { opacity: 0; } 82.1429% { opacity: 1; } 84.8214% { opacity: 1; } 86.6071% { opacity: 0; } 100% { opacity: 0; } }
    </style>
    <g id="All_404" transform="translate(640.55,408) translate(-640.55,-360)">
        <rect id="Background_404" class="st0" width="1439.79" height="700.96" fill="#4BA7C9" transform="translate(0,-48) translate(-0.41,0.86)"/>
        <g id="BSTClouds_404">
            <path id="BST9_404" class="st1" d="M401.1,441.9L393,441.9C394.9,438.1,396,433.8,396,429.5C396,414,383.2,401.5,367.4,401.5C355.6,401.5,345.4,408.5,341,418.7C338.2,417.4,335.1,416.7,332,416.7C320.5,416.7,311.1,425.9,311.1,437.1C311.1,441.7,312.6,446,315.4,449.6C316.3,450.8,317.7,451.5,319.3,451.5L401.2,451.5C403.9,451.5,406.1,449.4,406.1,446.7C406.1,444,403.8,441.9,401.1,441.9Z" stroke-linecap="round" stroke-width="3" stroke-linejoin="round" stroke="#FFFFFF" fill="none" opacity="0" transform="translate(839.594,347.053) translate(-358.6,-426.5)" style="animation: 11.2s linear infinite both BST9_404_t, 11.2s linear infinite both BST9_404_o;"/>
            <path id="BST7_404" class="st1" d="M933.249,480.7C927.538,480.7,922.071,482.576,917.503,485.922C915.463,485.269,913.342,484.942,911.139,484.942C899.309,484.942,889.6,494.243,889.6,505.747C889.6,507.787,891.313,509.5,893.435,509.5L955.277,509.5C957.398,509.5,959.112,507.868,959.112,505.747C959.193,491.959,947.608,480.7,933.249,480.7Z" stroke-linecap="round" stroke-width="3" stroke-linejoin="round" stroke="#FFFFFF" fill="none" opacity="0" transform="translate(453,483.35) translate(-932.2,-498.35)" style="animation: 11.2s linear infinite both BST7_404_t, 11.2s linear infinite both BST7_404_o;"/>
            <path id="BST6_404" class="st1" d="M634.101,124.254C614.825,124.254,596.236,130.278,580.918,141.293C573.948,139.228,566.719,138.195,559.404,138.195C519.215,138.195,486.6,168.659,486.6,206.18C486.6,212.892,492.452,218.4,499.681,218.4L708.885,218.4C716.113,218.4,721.965,212.978,721.965,206.18C721.879,161,682.551,124.254,634.101,124.254Z" stroke-linecap="round" stroke-width="3" stroke-linejoin="round" stroke="#FFFFFF" fill="#49a7c8" opacity="0" transform="translate(1111.55,259.5) translate(-623.35,-163.7)" style="animation: 11.2s linear infinite both BST6_404_t, 11.2s linear infinite both BST6_404_o;"/>
            <path id="BST5-2_404" class="st1" d="M1391.96,214.077L1363.39,214.077C1370.14,200.245,1373.85,184.951,1373.85,169.32C1373.85,113.431,1328.42,68,1272.64,68C1231.15,68,1194.71,93.4144,1179.31,130.187C1169.41,125.464,1158.5,122.877,1147.37,122.877C1106.66,122.877,1073.6,156.051,1073.6,196.759C1073.6,213.29,1078.89,228.808,1089.01,241.853C1092.27,246.126,1097.33,248.6,1102.61,248.6L1391.96,248.6C1401.51,248.6,1409.16,240.841,1409.16,231.395C1409.16,221.836,1401.4,214.077,1391.96,214.077Z" stroke-linecap="round" stroke-width="3" stroke-linejoin="round" stroke="#FFFFFF" fill="none" opacity="0" transform="translate(571.708,148.3) translate(-1222.8,-148.3)" style="animation: 11.2s linear infinite both BST5-2_404_t, 11.2s linear infinite both BST5-2_404_o;"/>
        </g>
        <g id="BSTTree_404" transform="translate(890.35,477.47) translate(-812.9,-484.25)">
            <path id="BSTtrr_404" class="st2" d="M812.9,386.5C832.2,386.5,847.9,402.2,847.9,421.5C847.9,442.5,847.9,484.6,847.9,505.6C847.9,524.9,832.2,540.6,812.9,540.6L812.9,540.6C793.6,540.6,777.9,524.9,777.9,505.6C777.9,484.6,777.9,442.5,777.9,421.5C777.9,402.2,793.6,386.5,812.9,386.5Z" stroke-width="3" stroke="#FFFFFF" fill="#49a7c8" style="animation: 11.2s linear infinite both BSTtrr_404_d;"/>
            <path id="BSTts1_404" class="st1" d="M812.5,455.5C812.5,487.1,812.4,494,812.4,582" stroke-linecap="round" stroke-width="3" stroke-linejoin="round" stroke="#FFFFFF" fill="none" style="animation: 11.2s linear infinite both BSTts1_404_d;"/>
            <path id="BSTts2_404" class="st1" d="M813,496.3C813,496.3,824.933,481.967,830.9,474.8" stroke-linecap="round" stroke-width="3" stroke-linejoin="round" stroke="#FFFFFF" fill="none" style="animation: 11.2s linear infinite both BSTts2_404_d;"/>
            <path id="BSTts3_404" class="st1" d="M813,519.9C813,519.9,824.933,505.567,830.9,498.4" stroke-linecap="round" stroke-width="3" stroke-linejoin="round" stroke="#FFFFFF" fill="none" style="animation: 11.2s linear infinite both BSTts3_404_d;"/>
            <path id="BSTts4_404" class="st1" d="M811.2,509.3L793.3,487.8" stroke-linecap="round" stroke-width="3" stroke-linejoin="round" stroke="#FFFFFF" fill="none" style="animation: 11.2s linear infinite both BSTts4_404_d;"/>
        </g>
        <g id="BSTTree-2_404" transform="translate(398.08,501.18) scale(0.76,0.76) translate(-812.9,-484.25)">
            <path id="BSTtrr-2_404" class="st2" d="M812.9,386.5C832.2,386.5,847.9,402.2,847.9,421.5C847.9,442.5,847.9,484.6,847.9,505.6C847.9,524.9,832.2,540.6,812.9,540.6L812.9,540.6C793.6,540.6,777.9,524.9,777.9,505.6C777.9,484.6,777.9,442.5,777.9,421.5C777.9,402.2,793.6,386.5,812.9,386.5Z" stroke-width="4" stroke="#FFFFFF" fill="#49a7c8" style="animation: 11.2s linear infinite both BSTtrr-2_404_d;"/>
            <path id="BSTts1-2_404" class="st1" d="M812.5,455.5C812.5,487.1,812.4,494,812.4,582" stroke-linecap="round" stroke-width="4" stroke-linejoin="round" stroke="#FFFFFF" fill="none" style="animation: 11.2s linear infinite both BSTts1-2_404_d;"/>
            <path id="BSTts2-2_404" class="st1" d="M813,496.3C813,496.3,824.933,481.967,830.9,474.8" stroke-linecap="round" stroke-width="4" stroke-linejoin="round" stroke="#FFFFFF" fill="none" style="animation: 11.2s linear infinite both BSTts2-2_404_d;"/>
            <path id="BSTts3-2_404" class="st1" d="M813,519.9C813,519.9,824.933,505.567,830.9,498.4" stroke-linecap="round" stroke-width="4" stroke-linejoin="round" stroke="#FFFFFF" fill="none" style="animation: 11.2s linear infinite both BSTts3-2_404_d;"/>
            <path id="BSTts4-2_404" class="st1" d="M811.2,509.3L793.3,487.8" stroke-linecap="round" stroke-width="4" stroke-linejoin="round" stroke="#FFFFFF" fill="none" style="animation: 11.2s linear infinite both BSTts4-2_404_d;"/>
        </g>
        <g id="LeafGrbS_404" transform="translate(-37.1085,50.8622)">
            <g transform="translate(377.54,398.644)" style="animation: 11.2s linear infinite both a0_t;">
                <path id="BStleaf_404" d="M0,0C0,0,16.5,-8,26,-3C35.5,2,35,11,35,11C35,11,26,15,16,11C6,7,0,0,0,0Z" stroke="#ffffff" fill="#49a7c8" stroke-width="3" stroke-miterlimit="1" stroke-linecap="round" stroke-linejoin="round" opacity="0" transform="translate(0,0) scale(0.8,0.8) translate(-17.5023,-4.06689)" style="animation: 11.2s linear infinite both BStleaf_404_t, 11.2s linear infinite both BStleaf_404_o;"/>
            </g>
        </g>
    </g>
    <g id="NEW_404">
        <path id="Rock1_bS_404" class="st1" d="M629.41,658.6L625.69,664.93C625.69,664.93,626.43,668.28,627.55,668.65C628.67,669.02,625.69,671.63,628.67,669.02C631.65,666.42,631.65,666.42,631.65,666.42C631.65,666.42,634.63,665.3,633.14,663.44C631.65,661.58,629.41,658.6,629.41,658.6Z" stroke-linecap="round" stroke-width="3" stroke-linejoin="round" stroke="#FFFFFF" fill="none" opacity="0" transform="translate(629.624,646.908) translate(-629.624,-664.383)" style="animation: 11.2s linear infinite both Rock1_bS_404_t, 11.2s linear infinite both Rock1_bS_404_o;"/>
        <path id="Rock2_bS_404" class="st1" d="M630.53,678.7C630.53,678.7,626.62,680.19,628.67,681.86C630.72,683.53,631.27,684.65,632.58,684.28C633.88,683.91,633.88,681.3,633.88,681.3L630.53,678.7Z" stroke-linecap="round" stroke-width="3" stroke-linejoin="round" stroke="#FFFFFF" fill="none" opacity="0" transform="translate(629.978,631.525) translate(-630.978,-681.525)" style="animation: 11.2s linear infinite both Rock2_bS_404_t, 11.2s linear infinite both Rock2_bS_404_o;"/>
        <path id="Rock3_bS_404" class="st1" d="M774.27,655.23C774.27,655.23,769.8,658.02,769.25,658.58C768.69,659.14,767.76,661.93,768.32,663.05C768.88,664.17,770.37,667.33,770.37,667.33C771.67,668.07,775.21,666.77,775.21,666.77C775.21,666.77,776.14,667.33,776.88,668.26C777.62,669.19,779.3,665.66,777.62,663.24C775.95,660.82,775.39,660.26,775.2,658.77C775.02,657.28,774.27,655.23,774.27,655.23Z" stroke-linecap="round" stroke-width="3" stroke-linejoin="round" stroke="#FFFFFF" fill="none" opacity="0" transform="translate(778.74,635.942) translate(-773.244,-661.821)" style="animation: 11.2s linear infinite both Rock3_bS_404_t, 11.2s linear infinite both Rock3_bS_404_o;"/>
        <path id="Rock4_bS_404" class="st1" d="M778.74,674.02C778.18,675.51,775.58,675.14,778.37,676.81C781.16,678.48,779.11,677.93,781.16,678.48C783.21,679.04,783.21,679.41,784.69,678.29C786.18,677.17,784.69,675.69,784.69,675.69C784.69,675.69,779.3,672.53,778.74,674.02Z" stroke-linecap="round" stroke-width="3" stroke-linejoin="round" stroke="#FFFFFF" fill="none" opacity="0" transform="translate(787.18,659.838) translate(-781.227,-676.319)" style="animation: 11.2s linear infinite both Rock4_bS_404_t, 11.2s linear infinite both Rock4_bS_404_o;"/>
        <path id="Rock5_bS_404" class="st1" d="M774.27,687.05C773.34,688.54,769.06,692.07,771.29,693.38C773.52,694.68,773.52,694.68,773.52,694.68C773.52,694.68,776.12,693.01,776.87,692.08C777.61,691.15,777.61,691.15,777.61,691.15L774.27,687.05Z" stroke-linecap="round" stroke-width="3" stroke-linejoin="round" stroke="#FFFFFF" fill="none" opacity="0" transform="translate(778.74,635.942) translate(-774.132,-690.865)" style="animation: 11.2s linear infinite both Rock5_bS_404_t, 11.2s linear infinite both Rock5_bS_404_o;"/>
        <path id="Ground2_bS_404" class="st1" d="M602.55,711.63C604.22,709.12,603.95,702.14,607.02,698.51C610.09,694.88,608.62,696.84,608.07,691.25C607.51,685.67,610.3,689.85,613.09,684.83C615.88,679.81,618.14,680.92,617.02,678.13C615.9,675.34,617.23,675.62,618.07,668.92C618.91,662.22,618.35,660.83,618.63,656.92C618.91,653.01,626.35,653.85,623.56,651.06C620.77,648.27,623.56,646.04,623.84,645.2C624.12,644.36,626.07,640.46,629.7,632.92C633.33,625.39,622.72,623.3,622.72,623.3L-4.59,623.3" stroke-linecap="round" stroke-width="3" stroke-linejoin="round" stroke="#FFFFFF" fill="#4ba7c9"/>
        <path id="Ground1_bS_404" class="st1" d="M801.3,700.74C796.56,694.6,790.11,695.16,797.93,688.18C805.74,681.2,797.74,676.74,793,666.41C788.26,656.08,792.16,663.9,790.77,663.06C789.37,662.22,783.37,660.83,781.98,654.41C780.58,647.99,775.93,648.83,778.72,644.92C781.51,641.01,775.65,640.73,774.81,635.43C774.47,633.26,774.83,630.83,775.37,628.72C776.2,625.51,779.13,623.29,782.44,623.29L1439.41,623.29" stroke-linecap="round" stroke-width="3" stroke-linejoin="round" stroke="#FFFFFF" fill="#4ba7c9"/>
        <path id="Ground1a_bS_404" class="st1" d="M775.18,634.67C775.18,634.67,776.95,630.2,787.18,630.2C797.41,630.2,868.3,630.2,868.3,630.2" stroke-linecap="round" stroke-width="3" stroke-linejoin="round" stroke="#FFFFFF" fill="none"/>
        <path id="Ground1b_bS_404" class="st1" d="M903.55,630.61L911.37,630.61" stroke-linecap="round" stroke-width="3" stroke-linejoin="round" stroke="#FFFFFF" fill="none"/>
        <path id="Ground2a_bS_404" class="st1" d="M628.69,634.93C628.69,634.93,626.92,630.46,616.69,630.46C606.46,630.46,535.57,630.46,535.57,630.46" stroke-linecap="round" stroke-width="3" stroke-linejoin="round" stroke="#FFFFFF" fill="none"/>
        <path id="Ground2b_bS_404" class="st1" d="M525.02,630.79L507.53,630.79" stroke-linecap="round" stroke-width="3" stroke-linejoin="round" stroke="#FFFFFF" fill="none"/>
        <path id="Ground2c_bS_404" class="st1" d="M500.32,630.87L492.51,630.87" stroke-linecap="round" stroke-width="3" stroke-linejoin="round" stroke="#FFFFFF" fill="none"/>
    </g>
    <g id="guy1_bS_404" transform="translate(581.767,584.012) translate(-578.92,-574.512)" style="animation: 11.2s linear infinite both guy1_bS_404_t;">
        <path id="guy1a_bS_404" class="st2" d="M579.23,539.66C565.65,539.36,554.46,550.11,554.29,563.62C554.23,568.19,555.45,572.67,557.8,576.59L576.95,608.37C577.32,608.98,577.97,609.36,578.68,609.37C578.69,609.37,578.69,609.37,578.7,609.37C579.42,609.38,580.08,609.02,580.46,608.42L599.92,577.19C602.24,573.46,603.5,569.14,603.55,564.71C603.72,551.2,592.81,539.96,579.23,539.66Z" stroke-width="3" stroke="#FFFFFF" fill="#4ba7c9" transform="translate(578.92,574.512) translate(-578.92,-574.512)"/>
        <ellipse id="guy1b_bS_404" class="st2" rx="11.22" ry="11.23" stroke-width="3" stroke="#FFFFFF" fill="none" transform="translate(578.29,562.86)"/>
    </g>
    <path id="Excl_bS_404" class="st3" d="M559.65,529.13L557.97,523.73C557.65,522.68,557.43,521.92,557.31,521.45C557.15,520.82,557.19,520.28,557.4,519.86C557.62,519.43,557.98,519.15,558.47,519.03C559.07,518.88,559.53,519.01,559.85,519.42C560.16,519.82,560.43,520.45,560.64,521.31C560.76,521.81,560.86,522.33,560.94,522.86L561.87,528.62C561.99,529.3,562.01,529.84,561.93,530.24C561.86,530.64,561.63,530.88,561.26,530.97C560.88,531.06,560.58,530.95,560.34,530.64C560.12,530.33,559.88,529.82,559.65,529.13ZM562.66,536.38C562.23,536.48,561.82,536.43,561.43,536.2C561.04,535.98,560.78,535.59,560.64,535.05C560.52,534.58,560.58,534.14,560.8,533.73C561.02,533.32,561.36,533.07,561.8,532.96C562.24,532.85,562.66,532.93,563.05,533.18C563.44,533.44,563.7,533.8,563.81,534.27C563.94,534.8,563.89,535.26,563.65,535.65C563.41,536.03,563.08,536.28,562.66,536.38Z" fill="#FFFFFF" opacity="0" transform="translate(563.393,534.2) translate(-560.546,-527.699)" style="animation: 11.2s linear infinite both Excl_bS_404_o;"/>
    <path id="Ques1_bS_404" class="st3" d="M600.14,525.45C600.35,524.52,600.85,523.64,601.61,522.81C602.38,521.98,603.36,521.37,604.56,520.99C605.76,520.61,607.06,520.57,608.46,520.9C609.76,521.2,610.85,521.73,611.73,522.48C612.61,523.23,613.21,524.12,613.55,525.15C613.89,526.18,613.93,527.22,613.69,528.28C613.5,529.11,613.17,529.81,612.72,530.36C612.27,530.92,611.77,531.37,611.24,531.73C610.71,532.09,609.76,532.68,608.41,533.5C608.03,533.73,607.73,533.94,607.49,534.13C607.25,534.32,607.07,534.5,606.93,534.67C606.8,534.84,606.68,535.02,606.59,535.2C606.5,535.38,606.34,535.7,606.14,536.16C605.73,537.14,605.08,537.53,604.18,537.32C603.71,537.21,603.36,536.96,603.11,536.55C602.87,536.14,602.82,535.61,602.97,534.95C603.16,534.13,603.44,533.44,603.81,532.89C604.18,532.34,604.61,531.88,605.11,531.52C605.6,531.15,606.25,530.73,607.05,530.26C607.75,529.84,608.26,529.53,608.58,529.31C608.9,529.09,609.19,528.83,609.44,528.53C609.69,528.23,609.87,527.88,609.96,527.47C610.14,526.69,610.03,525.96,609.61,525.3C609.2,524.64,608.57,524.21,607.73,524.01C606.74,523.78,605.95,523.89,605.36,524.32C604.77,524.76,604.19,525.47,603.62,526.45C603.06,527.49,602.35,527.91,601.5,527.71C601,527.59,600.62,527.3,600.36,526.84C600.11,526.36,600.03,525.9,600.14,525.45ZM603.01,543.08C602.46,542.95,602.03,542.65,601.71,542.17C601.39,541.69,601.31,541.1,601.47,540.4C601.61,539.78,601.93,539.31,602.42,538.98C602.91,538.65,603.45,538.55,604.02,538.68C604.59,538.81,605.02,539.13,605.3,539.64C605.59,540.15,605.66,540.71,605.52,541.33C605.36,542.02,605.04,542.51,604.54,542.81C604.06,543.11,603.54,543.2,603.01,543.08Z" fill="#FFFFFF" opacity="0" transform="translate(609.814,538.404) translate(-606.967,-531.904)" style="animation: 11.2s linear infinite both Ques1_bS_404_o;"/>
    <path id="Ques2_bS_404" class="st3" d="M540.62,540.23C540.62,539.48,540.84,538.73,541.28,537.96C541.72,537.19,542.36,536.56,543.21,536.06C544.05,535.56,545.04,535.31,546.16,535.31C547.21,535.31,548.13,535.52,548.93,535.94C549.73,536.36,550.35,536.93,550.79,537.66C551.23,538.38,551.44,539.17,551.44,540.02C551.44,540.69,551.32,541.27,551.07,541.78C550.82,542.28,550.53,542.72,550.18,543.08C549.84,543.45,549.22,544.06,548.34,544.93C548.09,545.17,547.9,545.39,547.75,545.57C547.6,545.75,547.49,545.92,547.42,546.08C547.35,546.23,547.29,546.39,547.25,546.54C547.21,546.69,547.15,546.96,547.07,547.35C546.93,548.17,546.5,548.58,545.78,548.58C545.41,548.58,545.09,548.45,544.83,548.18C544.57,547.91,544.45,547.52,544.45,546.99C544.45,546.33,544.54,545.76,544.73,545.27C544.92,544.79,545.17,544.36,545.48,544C545.79,543.63,546.21,543.2,546.74,542.7C547.2,542.26,547.54,541.93,547.74,541.7C547.95,541.48,548.12,541.23,548.26,540.95C548.4,540.67,548.47,540.38,548.47,540.05C548.47,539.42,548.26,538.89,547.83,538.46C547.4,538.03,546.85,537.81,546.17,537.81C545.38,537.81,544.79,538.03,544.42,538.46C544.04,538.9,543.73,539.54,543.47,540.39C543.22,541.28,542.76,541.72,542.07,541.72C541.67,541.72,541.32,541.56,541.05,541.25C540.76,540.93,540.62,540.59,540.62,540.23ZM545.9,553.15C545.46,553.15,545.08,552.99,544.75,552.68C544.42,552.37,544.26,551.94,544.26,551.38C544.26,550.88,544.42,550.47,544.74,550.13C545.06,549.79,545.45,549.62,545.91,549.62C546.36,549.62,546.75,549.79,547.06,550.13C547.37,550.47,547.53,550.88,547.53,551.38C547.53,551.93,547.37,552.36,547.04,552.68C546.7,552.99,546.33,553.15,545.9,553.15Z" fill="#FFFFFF" opacity="0" transform="translate(548.877,550.73) translate(-546.03,-544.23)" style="animation: 11.2s linear infinite both Ques2_bS_404_o;"/>
</svg>
