<?xml version="1.0" encoding="UTF-8"?>
<svg width="134px" height="45px" viewBox="0 0 134 45" version="1.1" xmlns="http://www.w3.org/2000/svg" xmlns:xlink="http://www.w3.org/1999/xlink">
    <!-- Generator: Sketch 52.6 (67491) - http://www.bohemiancoding.com/sketch -->
    <title>App Store Badge US Black@SVG</title>
    <desc>Created with Sketch.</desc>
    <g id="Dashboard" stroke="none" stroke-width="1" fill="none" fill-rule="evenodd">
        <g id="SEARCH-TOUR-DETAILS-Copy" transform="translate(-399.000000, -952.000000)" fill-rule="nonzero">
            <g id="Group-6" transform="translate(-4.000000, 924.000000)">
                <g id="Group-29" transform="translate(403.000000, 28.000000)">
                    <g id="App-Store-Badge-US-Black">
                        <path d="M9.50043375,44.015625 C9.15766875,44.015625 8.82318375,44.0112375 8.4831075,44.0035875 C7.77861199,43.9944083 7.07576307,43.9330782 6.380325,43.8201 C5.73186409,43.7084192 5.10367977,43.5006725 4.5164925,43.2037125 C3.93468942,42.909213 3.40403824,42.523057 2.9448675,42.0600375 C2.47905037,41.6024722 2.09123633,41.0717745 1.79679375,40.488975 C1.49910667,39.9023878 1.29308949,39.273637 1.18591875,38.624625 C1.07018365,37.9272542 1.00756617,37.2221024 0.99860625,36.51525 C0.99147375,36.2779875 0.98213625,35.4880125 0.98213625,35.4880125 L0.98213625,9.4998825 C0.98213625,9.4998825 0.99208125,8.72204625 0.9986625,8.493525 C1.00724156,7.78779231 1.06949492,7.08373473 1.18488375,6.38744625 C1.29225231,5.73665634 1.49842898,5.10609248 1.79627625,4.51758375 C2.08963668,3.93518683 2.47529766,3.40409283 2.93830875,2.94489 C3.40079943,2.4813241 3.93314806,2.09317963 4.51594125,1.79461125 C5.101779,1.4986053 5.72877613,1.29232411 6.37592625,1.18267875 C7.07364825,1.06856566 7.77893719,1.00687059 8.485875,0.99811125 L9.500985,0.984375 L125.115604,0.984375 L126.142841,0.9986625 C126.843349,1.0069866 127.542231,1.06813126 128.233541,1.18157625 C128.887243,1.29259695 129.520774,1.50031748 130.113304,1.7979075 C131.28085,2.3996093 132.230859,3.35155832 132.830179,4.52032875 C133.123272,5.10477476 133.326268,5.7301951 133.432279,6.37536375 C133.549042,7.0773653 133.61439,7.78695563 133.627804,8.498475 C133.631066,8.817075 133.631066,9.1593 133.631066,9.4998825 C133.639954,9.9217575 133.639954,10.3233038 133.639954,10.7281463 L133.639954,34.2729 C133.639954,34.6816125 133.639954,35.080425 133.631066,35.4825 C133.631066,35.84835 133.631066,36.1834875 133.626679,36.5284125 C133.613556,37.2272351 133.549296,37.9241598 133.434416,38.6136 C133.329442,39.2672938 133.124547,39.9009523 132.826916,40.49235 C132.530392,41.0688238 132.144805,41.5949245 131.684366,42.0512625 C131.224782,42.5167702 130.693195,42.9051855 130.110041,43.201575 C129.519153,43.5008179 128.886554,43.7093328 128.233541,43.8201 C127.538156,43.9336811 126.835239,43.9950152 126.130691,44.0035875 C125.801179,44.0112375 125.456141,44.015625 125.121116,44.015625 L123.901616,44.017875 L9.50043375,44.015625 Z" id="Background-Black" fill="#000000"></path>
                        <path d="M47.5900537,30.5321062 L42.2649787,30.5321062 L40.9861687,34.3081125 L38.7306787,34.3081125 L43.7745037,20.3378625 L46.1178787,20.3378625 L51.1617038,34.3081125 L48.86775,34.3081125 L47.5900537,30.5321062 Z M42.8164875,28.7896725 L47.0374875,28.7896725 L44.9566763,22.6614938 L44.8984462,22.6614938 L42.8164875,28.7896725 Z M62.0546513,29.2159462 C62.0546513,32.3811112 60.3605588,34.4146725 57.8040413,34.4146725 C56.4825997,34.4837977 55.237874,33.7916595 54.5993325,32.6326725 L54.5509575,32.6326725 L54.5509575,37.6776 L52.4602575,37.6776 L52.4602575,24.1226775 L54.483975,24.1226775 L54.483975,25.81677 L54.5224275,25.81677 C55.1893368,24.6650489 56.4354048,23.9732087 57.7655888,24.0161062 C60.350625,24.0161175 62.0546513,26.0595675 62.0546513,29.2159462 Z M59.9057212,29.2159462 C59.9057212,27.1538212 58.8400425,25.798095 57.2140688,25.798095 C55.6166588,25.798095 54.5421938,27.1823737 54.5421938,29.2159462 C54.5421938,31.2681937 55.6166588,32.6425837 57.2140688,32.6425837 C58.8400538,32.6425837 59.9057212,31.2967575 59.9057212,29.2159462 Z M73.2650962,29.2159462 C73.2650962,32.3811112 71.5710038,34.4146725 69.0144863,34.4146725 C67.6930447,34.4837977 66.448319,33.7916595 65.8097775,32.6326725 L65.7614025,32.6326725 L65.7614025,37.6776 L63.6707025,37.6776 L63.6707025,24.1226775 L65.694375,24.1226775 L65.694375,25.81677 L65.7328275,25.81677 C66.3997417,24.6650496 67.6458144,23.9732135 68.976,24.0161175 C71.561115,24.0161175 73.2650962,26.0595675 73.2650962,29.2159462 Z M71.1161662,29.2159462 C71.1161662,27.1538212 70.0504875,25.798095 68.4245137,25.798095 C66.8271037,25.798095 65.7526388,27.1823737 65.7526388,29.2159462 C65.7526388,31.2681937 66.8271037,32.6425837 68.4245137,32.6425837 C70.0504988,32.6425837 71.1161775,31.2967575 71.1161775,29.2159462 L71.1161662,29.2159462 Z M80.6742788,30.4156462 C80.8291913,31.8010275 82.1750288,32.7106462 84.0141225,32.7106462 C85.7763338,32.7106462 87.0441525,31.8009825 87.0441525,30.5518275 C87.0441525,29.4674737 86.2795013,28.8182025 84.46896,28.3732425 L82.6584188,27.93708 C80.093115,27.3174525 78.90219,26.1177412 78.90219,24.1709625 C78.90219,21.76056 81.0027788,20.10492 83.9855588,20.10492 C86.9375588,20.10492 88.961265,21.76056 89.0293838,24.1709625 L86.9188838,24.1709625 C86.7925463,22.776795 85.6400738,21.93525 83.95587,21.93525 C82.2716662,21.93525 81.119205,22.786695 81.119205,24.02595 C81.119205,25.0136212 81.8552925,25.5947962 83.655945,26.0397 L85.195125,26.4176325 C88.0614563,27.09549 89.2523813,28.2468825 89.2523813,30.29031 C89.2523813,32.903955 87.1704675,34.54092 83.8591875,34.54092 C80.7610388,34.54092 78.6692475,32.9424075 78.5341125,30.415545 L80.6742788,30.4156462 Z M93.7644863,21.712275 L93.7644863,24.1226775 L95.7013763,24.1226775 L95.7013763,25.7783175 L93.7644863,25.7783175 L93.7644863,31.3934287 C93.7644863,32.2657425 94.1523075,32.6722387 95.0037413,32.6722387 C95.2336816,32.6682292 95.4632499,32.6520817 95.6914875,32.6238637 L95.6914875,34.269615 C95.3086819,34.341142 94.9195922,34.3735363 94.5302288,34.3662975 C92.4681038,34.3662975 91.6638975,33.5917575 91.6638975,31.616415 L91.6638975,25.7783175 L90.1829475,25.7783175 L90.1829475,24.1226775 L91.663875,24.1226775 L91.663875,21.712275 L93.7644863,21.712275 Z M96.823125,29.2159462 C96.823125,26.0112375 98.7105713,23.9974425 101.653819,23.9974425 C104.606944,23.9974425 106.485604,26.0111925 106.485604,29.2159462 C106.485604,32.4294525 104.616833,34.43445 101.653819,34.43445 C98.6918513,34.43445 96.823125,32.4294412 96.823125,29.2159462 Z M104.355349,29.2159462 C104.355349,27.0175837 103.3479,25.7200987 101.653808,25.7200987 C99.959715,25.7200987 98.9533688,27.0274725 98.9533688,29.2159462 C98.9533688,31.423095 99.959715,32.7107025 101.653808,32.7107025 C103.3479,32.7107025 104.355304,31.423095 104.355304,29.2159462 L104.355349,29.2159462 Z M108.209318,24.1226775 L110.203335,24.1226775 L110.203335,25.8563025 L110.25171,25.8563025 C110.529783,24.7402895 111.552359,23.9722105 112.701656,24.016095 C112.942591,24.0152538 113.182861,24.0414196 113.417966,24.0941025 L113.417966,26.0496675 C113.113801,25.9567237 112.796505,25.9140502 112.478591,25.92333 C111.863945,25.8983949 111.269105,26.1433516 110.850257,26.5938817 C110.431409,27.0444119 110.230399,27.6555046 110.300006,28.266705 L110.300006,34.30809 L108.209306,34.30809 L108.209318,24.1226775 Z M123.057338,31.3165237 C122.776088,33.1655175 120.975424,34.4344387 118.671593,34.4344387 C115.708579,34.4344387 113.869474,32.4492075 113.869474,29.2642762 C113.869474,26.0694563 115.718468,23.9974313 118.583708,23.9974313 C121.401698,23.9974313 123.173798,25.9332188 123.173798,29.0214787 L123.173798,29.7377887 L115.979951,29.7377887 L115.979951,29.8641262 C115.912786,30.6224118 116.174623,31.3730094 116.69886,31.9249912 C117.223097,32.476973 117.959206,32.7771375 118.719945,32.7491325 C119.734518,32.8441946 120.691061,32.2615999 121.072117,31.3165125 L123.057338,31.3165237 Z M115.98982,28.2766162 L121.081995,28.276605 C121.119936,27.5952347 120.871909,26.928926 120.397669,26.4382105 C119.923429,25.947495 119.265976,25.6768655 118.583708,25.6915238 C117.896042,25.68742 117.235227,25.9581765 116.748141,26.4436124 C116.261055,26.9290483 115.988058,27.5889408 115.98982,28.2766162 Z" id="App-Store" fill="#FFFFFF"></path>
                        <path d="M42.5544638,9.822375 C43.4420286,9.7586822 44.3113788,10.0963659 44.9232315,10.7424808 C45.5350841,11.3885957 45.8249466,12.2750379 45.7130363,13.15782 C45.7130363,15.3023512 44.5539825,16.53507 42.5544638,16.53507 L40.129785,16.53507 L40.129785,9.822375 L42.5544638,9.822375 Z M41.1723788,15.58575 L42.4380038,15.58575 C43.0723034,15.6236648 43.6899223,15.3737539 44.1193708,14.9054083 C44.5488193,14.4370626 44.7443771,13.8001437 44.651745,13.1715 C44.7376376,12.5454651 44.5392637,11.913802 44.11088,11.4492757 C43.6824963,10.9847495 43.0689326,10.7359721 42.4380038,10.7709862 L41.1723788,10.7709862 L41.1723788,15.58575 Z M46.890765,13.9998825 C46.8039005,13.0918782 47.2392941,12.2131259 48.0143429,11.732172 C48.7893917,11.2512182 49.770092,11.2512182 50.5451408,11.732172 C51.3201896,12.2131259 51.7555832,13.0918782 51.6687188,13.9998825 C51.7572359,14.9088625 51.3222397,15.7893192 50.5465037,16.2713085 C49.7707677,16.7532977 48.788716,16.7532977 48.01298,16.2713085 C47.237244,15.7893192 46.8022478,14.9088625 46.890765,13.9998825 Z M50.64039,13.9998825 C50.64039,12.9018037 50.1471,12.2596537 49.28139,12.2596537 C48.4123725,12.2596537 47.923515,12.9018037 47.923515,13.9998937 C47.923515,15.10677 48.4124063,15.74397 49.28139,15.74397 C50.1471225,15.7439587 50.6404013,15.10236 50.6404013,13.9998825 L50.64039,13.9998825 Z M58.0199175,16.5349687 L56.9828138,16.5349687 L55.9358213,12.8040075 L55.8567225,12.8040075 L54.8141175,16.5349687 L53.7868913,16.5349687 L52.39053,11.4691725 L53.4045713,11.4691725 L54.3120413,15.3346725 L54.3867525,15.3346725 L55.428255,11.4691725 L56.3873625,11.4691725 L57.428865,15.3346725 L57.5079638,15.3346725 L58.411035,11.4691725 L59.4107888,11.4691725 L58.0199175,16.5349687 Z M60.5852325,11.4691725 L61.547625,11.4691725 L61.547625,12.2739187 L61.6223363,12.2739187 C61.882138,11.6814127 62.4892195,11.3189709 63.134055,11.3713875 C63.6333489,11.3338482 64.1226216,11.5253886 64.4637271,11.8919273 C64.8048326,12.258466 64.9607547,12.7602267 64.8874688,13.2555375 L64.8874688,16.5349125 L63.887715,16.5349125 L63.887715,13.5065925 C63.887715,12.6925087 63.5339588,12.287655 62.794575,12.287655 C62.4559116,12.2718815 62.1272477,12.4047929 61.8947489,12.6515439 C61.6622502,12.8982949 61.5491044,13.2342761 61.584975,13.5714037 L61.584975,16.5349687 L60.5852213,16.5349687 L60.5852325,11.4691725 Z M66.4804913,9.491625 L67.480245,9.491625 L67.480245,16.5349575 L66.4804913,16.5349575 L66.4804913,9.491625 Z M68.8700138,13.9998825 C68.783216,13.0918188 69.2186783,12.2130443 69.9937846,11.732083 C70.7688909,11.2511217 71.7496416,11.2511217 72.5247479,11.732083 C73.2998542,12.2130443 73.7353165,13.0918188 73.6485188,13.9998825 C73.7369235,14.9088951 73.3018476,15.7893268 72.5260731,16.2712949 C71.7502986,16.753263 70.7682339,16.753263 69.9924594,16.2712949 C69.2166849,15.7893268 68.781609,14.9088951 68.8700138,13.9998825 Z M72.6196388,13.9998825 C72.6196388,12.9018037 72.1263488,12.2596537 71.2606388,12.2596537 C70.3916213,12.2596537 69.9027638,12.9018037 69.9027638,13.9998937 C69.9027638,15.10677 70.391655,15.74397 71.2606388,15.74397 C72.12636,15.7439587 72.61965,15.10236 72.61965,13.9998825 L72.6196388,13.9998825 Z M74.7010125,15.10236 C74.7010125,14.1904913 75.3799725,13.6648013 76.5851625,13.59009 L77.9573588,13.5109913 L77.9573588,13.0737375 C77.9573588,12.5386988 77.6036025,12.23658 76.920255,12.23658 C76.3621538,12.23658 75.975435,12.4414763 75.864465,12.7996313 L74.8965713,12.7996313 C74.9987438,11.9295113 75.8172263,11.37141 76.9663913,11.37141 C78.236415,11.37141 78.952725,12.00366 78.952725,13.0737375 L78.952725,16.53498 L77.9903213,16.53498 L77.9903213,15.8230688 L77.9112225,15.8230688 C77.5843522,16.3429609 77.0030703,16.6468086 76.389615,16.6184438 C75.9595681,16.6631758 75.5306675,16.5238995 75.2089453,16.2350465 C74.887223,15.9461935 74.7027068,15.5347237 74.7010125,15.10236 Z M77.9573588,14.6694938 L77.9573588,14.2459763 L76.7202975,14.325075 C76.0226625,14.3717625 75.7062562,14.60907 75.7062562,15.0556613 C75.7062562,15.51159 76.1017613,15.77691 76.6456313,15.77691 C76.9675906,15.8095011 77.2889922,15.7100344 77.5362604,15.50128 C77.7835287,15.2925256 77.9354906,14.9923587 77.9573588,14.6694938 Z M80.26668,13.9998825 C80.26668,12.3991762 81.0895613,11.385135 82.3694625,11.385135 C83.0157489,11.3553564 83.621056,11.701657 83.92293,12.273885 L83.9976413,12.273885 L83.9976413,9.491625 L84.997395,9.491625 L84.997395,16.5349575 L84.03939,16.5349575 L84.03939,15.7345987 L83.9602912,15.7345987 C83.6355984,16.3020791 83.0228338,16.642526 82.3694737,16.6184437 C81.080775,16.6185 80.26668,15.6044362 80.26668,13.9998825 Z M81.29943,13.9998825 C81.29943,15.0743475 81.805905,15.7208962 82.6529513,15.7208962 C83.4955763,15.7208962 84.01635,15.0650212 84.01635,14.0042812 C84.01635,12.9484912 83.4901088,12.2832675 82.6529513,12.2832675 C81.8113613,12.2832675 81.2993963,12.9342037 81.2993963,13.9998825 L81.29943,13.9998825 Z M89.13375,13.9998825 C89.0468855,13.0918782 89.4822791,12.2131259 90.2573279,11.732172 C91.0323767,11.2512182 92.013077,11.2512182 92.7881258,11.732172 C93.5631746,12.2131259 93.9985682,13.0918782 93.9117038,13.9998825 C94.0002209,14.9088625 93.5652247,15.7893192 92.7894887,16.2713085 C92.0137527,16.7532977 91.031701,16.7532977 90.255965,16.2713085 C89.480229,15.7893192 89.0452328,14.9088625 89.13375,13.9998825 Z M92.883375,13.9998825 C92.883375,12.9018038 92.390085,12.2596538 91.524375,12.2596538 C90.6553575,12.2596538 90.1665,12.9018038 90.1665,13.9998938 C90.1665,15.10677 90.6553913,15.74397 91.524375,15.74397 C92.3900962,15.7439588 92.883375,15.10236 92.883375,13.9998825 Z M95.2531312,11.4691725 L96.215535,11.4691725 L96.215535,12.2739187 L96.2902462,12.2739187 C96.550048,11.6814127 97.1571295,11.3189709 97.801965,11.3713875 C98.3012589,11.3338482 98.7905316,11.5253886 99.1316371,11.8919273 C99.4727426,12.258466 99.6286647,12.7602267 99.5553788,13.2555375 L99.5553788,16.5349125 L98.555625,16.5349125 L98.555625,13.5065925 C98.555625,12.6925087 98.2018688,12.287655 97.462485,12.287655 C97.1238216,12.2718815 96.7951577,12.4047929 96.5626589,12.6515439 C96.3301602,12.8982949 96.2170144,13.2342761 96.252885,13.5714037 L96.252885,16.5349687 L95.2531312,16.5349687 L95.2531312,11.4691725 Z M105.204555,10.2079462 L105.204555,11.4922462 L106.302094,11.4922462 L106.302094,12.3343537 L105.204555,12.3343537 L105.204555,14.9392125 C105.204555,15.4698525 105.423187,15.70221 105.920865,15.70221 C106.048278,15.7018022 106.175562,15.6940984 106.302094,15.6791362 L106.302094,16.511895 C106.122554,16.5440146 105.940649,16.5611025 105.758269,16.5629812 C104.646454,16.5629812 104.203699,16.1718637 104.203699,15.1951837 L104.203699,12.3343087 L103.399504,12.3343087 L103.399504,11.4922012 L104.203699,11.4922012 L104.203699,10.2079462 L105.204555,10.2079462 Z M107.667686,9.491625 L108.658654,9.491625 L108.658654,12.2832562 L108.737752,12.2832562 C109.010034,11.6855646 109.62774,11.322661 110.282378,11.3757862 C110.778836,11.3487719 111.261486,11.5445292 111.598863,11.9097381 C111.93624,12.274947 112.093206,12.7715688 112.027005,13.264335 L112.027005,16.5349687 L111.02625,16.5349687 L111.02625,13.5109687 C111.02625,12.7018237 110.649375,12.2920313 109.942999,12.2920313 C109.595181,12.2635054 109.252506,12.3899523 109.006585,12.6375677 C108.760664,12.8851831 108.636572,13.2287178 108.667485,13.5763312 L108.667485,16.5349462 L107.667731,16.5349462 L107.667686,9.491625 Z M117.856406,15.1671713 C117.576064,16.1227232 116.651361,16.7401159 115.66134,16.6327425 C114.985849,16.650574 114.336665,16.3705845 113.886032,15.8670621 C113.435398,15.3635396 113.228872,14.6873879 113.32125,14.0180063 C113.231326,13.3467643 113.437078,12.6695292 113.885202,12.1617528 C114.333326,11.6539764 114.979727,11.3656238 115.656941,11.3713988 C117.066488,11.3713988 117.91683,12.3343988 117.91683,13.9251488 L117.91683,14.274 L114.339679,14.274 L114.339679,14.330025 C114.308024,14.7059327 114.436407,15.0777537 114.693256,15.3540458 C114.950105,15.6303379 115.311586,15.7854644 115.688801,15.781275 C116.17792,15.839994 116.654043,15.5973747 116.894003,15.1671375 L117.856406,15.1671713 Z M114.339656,13.534605 L116.898368,13.534605 C116.923852,13.1908055 116.802966,12.8522307 116.565499,12.6023165 C116.328032,12.3524023 115.99607,12.2143908 115.651418,12.2222925 C115.302096,12.2179038 114.965806,12.3547739 114.718833,12.601855 C114.47186,12.8489361 114.335137,13.1852855 114.339679,13.534605 L114.339656,13.534605 Z" id="Download-on-the" fill="#FFFFFF"></path>
                        <path d="M27.86499,22.838265 C27.8895791,20.9297353 28.8901383,19.1668344 30.51612,18.1671975 C29.4857017,16.6955769 27.821691,15.7959881 26.026065,15.7398075 C24.13692,15.541515 22.3054762,16.8702412 21.3428025,16.8702412 C20.3614987,16.8702412 18.8793112,15.759495 17.28324,15.7923337 C15.1832264,15.8601807 13.2729043,17.0252162 12.251205,18.8611875 C10.075455,22.62816 11.6983687,28.1643412 13.782555,31.2092775 C14.8253175,32.7002962 16.0440075,34.3658025 17.6386387,34.30674 C19.1990812,34.2420187 19.7818762,33.3117 21.6654637,33.3117 C23.5315687,33.3117 24.0783525,34.30674 25.7053387,34.2691875 C27.3797662,34.2420075 28.434735,32.7715425 29.4409125,31.266405 C30.1901356,30.2039997 30.7666616,29.0298104 31.149135,27.7873312 C29.1604236,26.9462039 27.8673112,24.9975386 27.86499,22.838265 Z M24.7919062,13.7372512 C25.7048737,12.6412671 26.1546581,11.2325653 26.0457412,9.81030375 C24.6509301,9.9568018 23.3625152,10.6234309 22.4372137,11.677365 C21.5235211,12.7172127 21.0606465,14.0776118 21.15054,15.4589287 C22.5640539,15.4734826 23.9061556,14.8389224 24.7919062,13.7372512 Z" id="Icon" fill="#FFFFFF"></path>
                    </g>
                </g>
            </g>
        </g>
    </g>
</svg>