<?xml version="1.0" encoding="UTF-8"?>
<svg width="24px" height="19px" viewBox="0 0 24 19" version="1.1" xmlns="http://www.w3.org/2000/svg" xmlns:xlink="http://www.w3.org/1999/xlink">
    <!-- Generator: sketchtool 52.5 (67469) - http://www.bohemiancoding.com/sketch -->
    <title>160A73C8-0C32-4075-8F52-A0FC8637FD55@3x</title>
    <desc>Created with sketchtool.</desc>
    <g id="Dashboard" stroke="none" stroke-width="1" fill="none" fill-rule="evenodd">
        <g id="My-Dashboard-Copy" transform="translate(-113.000000, -393.000000)" fill="#8E8E8E">
            <g id="Dashboard/-close" transform="translate(55.000000, 79.000000)">
                <g id="Group-5">
                    <g id="Group-34">
                        <g id="Group-11" transform="translate(58.000000, 157.000000)">
                            <g id="Group-9">
                                <g id="Group-11-Copy-5" transform="translate(0.000000, 156.000000)">
                                    <g id="Group-4">
                                        <g id="Group" transform="translate(0.000000, 1.000000)">
                                            <path d="M21.6071686,0 C22.687527,0 23.5714567,0.883929625 23.5714567,1.96428806 L23.5714567,16.8928773 C23.5714567,17.9732357 22.687527,18.8571653 21.6071686,18.8571653 L1.96428806,18.8571653 C0.883929625,18.8571653 0,17.9732357 0,16.8928773 L0,1.96428806 C0,0.883929625 0.883929625,0 1.96428806,0 L21.6071686,0 Z M1.96428806,1.57143044 C1.75558245,1.57143044 1.57143044,1.75558245 1.57143044,1.96428806 L1.57143044,4.71429133 L22.0000262,4.71429133 L22.0000262,1.96428806 C22.0000262,1.75558245 21.8158742,1.57143044 21.6071686,1.57143044 L1.96428806,1.57143044 Z M21.6071686,17.2857349 C21.8158742,17.2857349 22.0000262,17.1015829 22.0000262,16.8928773 L22.0000262,9.42858267 L1.57143044,9.42858267 L1.57143044,16.8928773 C1.57143044,17.1015829 1.75558245,17.2857349 1.96428806,17.2857349 L21.6071686,17.2857349 Z M3.14286089,15.7143044 L3.14286089,14.142874 L6.28572178,14.142874 L6.28572178,15.7143044 L3.14286089,15.7143044 Z M7.85715222,15.7143044 L7.85715222,14.142874 L12.5714436,14.142874 L12.5714436,15.7143044 L7.85715222,15.7143044 Z" id="credit-card---FontAwesome"></path>
                                        </g>
                                    </g>
                                </g>
                            </g>
                        </g>
                    </g>
                </g>
            </g>
        </g>
    </g>
</svg>