<?xml version="1.0" encoding="UTF-8"?>
<svg width="60px" height="60px" viewBox="0 0 60 60" version="1.1" xmlns="http://www.w3.org/2000/svg" xmlns:xlink="http://www.w3.org/1999/xlink">
    <!-- Generator: Sketch 52.6 (67491) - http://www.bohemiancoding.com/sketch -->
    <title>Group 2</title>
    <desc>Created with Sketch.</desc>
    <defs>
        <circle id="path-1" cx="30" cy="30" r="30"></circle>
        <filter x="-2.5%" y="-2.5%" width="105.0%" height="105.0%" filterUnits="objectBoundingBox" id="filter-2">
            <feGaussianBlur stdDeviation="1.5" in="SourceAlpha" result="shadowBlurInner1"></feGaussianBlur>
            <feOffset dx="0" dy="0" in="shadowBlurInner1" result="shadowOffsetInner1"></feOffset>
            <feComposite in="shadowOffsetInner1" in2="SourceAlpha" operator="arithmetic" k2="-1" k3="1" result="shadowInnerInner1"></feComposite>
            <feColorMatrix values="0 0 0 0 0   0 0 0 0 0   0 0 0 0 0  0 0 0 0.112460371 0" type="matrix" in="shadowInnerInner1"></feColorMatrix>
        </filter>
        <polygon id="path-3" points="0.19283432 0.107068047 5.1497574 0.107068047 5.1497574 44.7337278 0.19283432 44.7337278"></polygon>
        <polygon id="path-5" points="0 0.214059295 30.5037823 0.214059295 30.5037823 32.9107869 0 32.9107869"></polygon>
    </defs>
    <g id="Dashboard" stroke="none" stroke-width="1" fill="none" fill-rule="evenodd">
        <g id="PAYOUT-Copy" transform="translate(-481.000000, -198.000000)">
            <g id="Group-2" transform="translate(481.000000, 198.000000)">
                <g id="Group-26">
                    <g id="Group-18">
                        <g id="Oval">
                            <use fill="#F5F5F5" fill-rule="evenodd" xlink:href="#path-1"></use>
                            <use fill="black" fill-opacity="1" filter="url(#filter-2)" xlink:href="#path-1"></use>
                        </g>
                        <g id="Group-9" transform="translate(15.000000, 7.000000)">
                            <g id="Group-3" transform="translate(13.313609, 0.159231)">
                                <mask id="mask-4" fill="white">
                                    <use xlink:href="#path-3"></use>
                                </mask>
                                <g id="Clip-2"></g>
                                <path d="M1.87673964,44.7337544 L3.46585207,44.7337544 C4.39594083,44.7337544 5.1497574,43.9799379 5.1497574,43.0498491 L5.1497574,1.79123964 C5.1497574,0.860884615 4.39594083,0.107068047 3.46585207,0.107068047 L1.87673964,0.107068047 C0.946650888,0.107068047 0.19283432,0.860884615 0.19283432,1.79123964 L0.19283432,43.0498491 C0.19283432,43.9799379 0.946650888,44.7337544 1.87673964,44.7337544" id="Fill-1" fill="#4090B9" mask="url(#mask-4)"></path>
                            </g>
                            <path d="M22.0800089,37.1674704 L6.47219822,37.3219083 L6.45355917,35.4564053 L22.0616361,35.3019675 C24.9727899,35.2732101 27.3143876,32.5910503 27.2819024,29.3230917 C27.2496834,26.0543343 24.8553639,23.4190385 21.9442101,23.4480621 L8.57814497,23.5801331 C4.71134024,23.6182101 1.53125148,20.1537426 1.48864793,15.8577071 C1.44631065,11.5603402 4.55716864,8.03356509 8.42397337,7.99522189 L24.3499793,7.83785503 L24.3683521,9.70282544 L8.44234615,9.86045858 C5.53119231,9.88948225 3.18959467,12.571642 3.22207988,15.8403994 C3.25429882,19.108358 5.64861834,21.7436538 8.55977219,21.7148964 L21.925571,21.5825592 C25.7923757,21.544216 28.9724645,25.0086834 29.015068,29.3060503 C29.0576716,33.6020858 25.9465473,37.1288609 22.0800089,37.1674704" id="Fill-4" fill="#8CD2E8"></path>
                            <g id="Group-8" transform="translate(0.000000, 6.017219)">
                                <mask id="mask-6" fill="white">
                                    <use xlink:href="#path-5"></use>
                                </mask>
                                <g id="Clip-7"></g>
                                <path d="M22.0959852,32.7517722 L6.04270118,32.9107367 C5.46675444,32.9163284 4.99492012,32.4540799 4.9893284,31.8778669 L4.95977219,28.8956183 C4.95418047,28.3194053 5.41642899,27.847571 5.99264201,27.8419793 L22.045926,27.6830148 C24.1358964,27.6625118 25.8171391,25.7054112 25.7934408,23.3206775 C25.7697426,20.9356775 24.0501568,19.0118609 21.9601864,19.0326302 L8.59385503,19.1649675 C3.90666568,19.2112988 0.0518431953,15.0350858 0.000452662722,9.85502663 C-0.0506715976,4.67470118 3.72080769,0.422600592 8.40799704,0.376269231 L24.7792101,0.214109467 C25.3554231,0.208517751 25.8269911,0.671032544 25.8325828,1.24697929 L25.8624053,4.23002663 C25.867997,4.80597337 25.4054822,5.27754142 24.8295355,5.28339941 L8.45805621,5.4452929 C6.3680858,5.46606213 4.6868432,7.42342899 4.71054142,9.80842899 C4.73397337,12.1931627 6.45355917,14.1164467 8.54379586,14.0959438 L21.9101272,13.9633402 C26.5970503,13.9172751 30.4521391,18.0937544 30.5032633,23.2740799 C30.5546538,28.4536065 26.7831746,32.7054408 22.0959852,32.7517722" id="Fill-6" fill="#8CD2E8" mask="url(#mask-6)"></path>
                            </g>
                        </g>
                    </g>
                </g>
            </g>
        </g>
    </g>
</svg>