<?xml version="1.0" encoding="UTF-8"?>
<svg width="28px" height="29px" viewBox="0 0 28 29" version="1.1" xmlns="http://www.w3.org/2000/svg" xmlns:xlink="http://www.w3.org/1999/xlink">
    <!-- Generator: sketchtool 52.5 (67469) - http://www.bohemiancoding.com/sketch -->
    <title>6CBBB95B-CF07-4C9A-8ED3-23DBEB140941-black</title>
    <desc>Created with sketchtool.</desc>
    <g id="Dashboard" stroke="none" stroke-width="1" fill="none" fill-rule="evenodd">
        <g id="Log-in" transform="translate(-887.000000, -391.000000)" fill="#FFFFFF">
            <g id="Group-6" transform="translate(806.000000, 381.000000)">
                <g id="Group-2">
                    <g id="Group-10" transform="translate(81.000000, 10.000000)">
                        <path d="M2.30298765,28.0221825 C1.47445029,28.0221825 0.803227486,27.3408359 0.803227486,26.5006512 L0.803227486,1.9775245 C0.803227486,1.13712582 1.47455573,0.456100179 2.30298765,0.456100179 L26.47692,0.456100179 C27.305141,0.456100179 27.9765747,1.13712582 27.9765747,1.9775245 L27.9765747,26.5006512 C27.9765747,27.3409429 27.3050356,28.0221825 26.47692,28.0221825 L19.5524438,28.0221825 L19.5524438,17.3470762 L23.084535,17.3470762 L23.6134156,13.1867979 L19.5524438,13.1867979 L19.5524438,10.530723 C19.5524438,9.32622645 19.8821506,8.50540177 21.5847749,8.50540177 L23.7563905,8.50443911 L23.7563905,4.7834528 C23.3808178,4.73275292 22.0917242,4.6194804 20.591964,4.6194804 C17.4609616,4.6194804 15.3173927,6.55826958 15.3173927,10.1187063 L15.3173927,13.1867979 L11.7762337,13.1867979 L11.7762337,17.3470762 L15.3173927,17.3470762 L15.3173927,28.0221825 L2.30298765,28.0221825 Z" id="Facebook"></path>
                    </g>
                </g>
            </g>
        </g>
    </g>
</svg>