<?xml version="1.0" encoding="UTF-8"?>
<svg width="28px" height="28px" viewBox="0 0 28 28" version="1.1" xmlns="http://www.w3.org/2000/svg" xmlns:xlink="http://www.w3.org/1999/xlink">
    <!-- Generator: sketchtool 52.5 (67469) - http://www.bohemiancoding.com/sketch -->
    <title>B6F8AC11-5B69-4B36-B382-C5409DE3F671</title>
    <desc>Created with sketchtool.</desc>
    <g id="Dashboard" stroke="none" stroke-width="1" fill="none" fill-rule="evenodd">
        <g id="My-account" transform="translate(-786.000000, -909.000000)" fill="#4267B2">
            <g id="Group-16" transform="translate(335.000000, 144.000000)">
                <g id="Group-15" transform="translate(0.000000, 660.000000)">
                    <g id="Group-4">
                        <g id="Group-11" transform="translate(400.000000, 29.000000)">
                            <g id="Group-12" transform="translate(0.000000, 32.000000)">
                                <g id="Group-9">
                                    <g id="Group-7">
                                        <g id="Group-6" transform="translate(51.000000, 44.000000)">
                                            <path d="M1.54538505,28 C0.691642383,28 0,27.3079284 0,26.4545183 L0,1.54537306 C0,0.691745661 0.691751029,0 1.54538505,0 L26.4547236,0 C27.3081403,0 28,0.691745661 28,1.54537306 L28,26.4545183 C28,27.308037 27.3080317,28 26.4547236,28 L19.3195947,28 L19.3195947,17.1568569 L22.9591373,17.1568569 L23.5041072,12.9310916 L19.3195947,12.9310916 L19.3195947,10.2332075 C19.3195947,9.00975093 19.6593317,8.17600565 21.4137523,8.17600565 L23.6514316,8.17502784 L23.6514316,4.39546948 C23.2644335,4.34397153 21.9361237,4.22891599 20.3907387,4.22891599 C17.1644866,4.22891599 14.9557072,6.19822365 14.9557072,9.81470516 L14.9557072,12.9310916 L11.306821,12.9310916 L11.306821,17.1568569 L14.9557072,17.1568569 L14.9557072,28 L1.54538505,28 Z" id="Facebook"></path>
                                        </g>
                                    </g>
                                </g>
                            </g>
                        </g>
                    </g>
                </g>
            </g>
        </g>
    </g>
</svg>