<?xml version="1.0" encoding="UTF-8"?>
<svg width="20px" height="22px" viewBox="0 0 20 22" version="1.1" xmlns="http://www.w3.org/2000/svg" xmlns:xlink="http://www.w3.org/1999/xlink">
    <!-- Generator: Sketch 52.5 (67469) - http://www.bohemiancoding.com/sketch -->
    <title>Group 15</title>
    <desc>Created with Sketch.</desc>
    <g id="Dashboard" stroke="none" stroke-width="1" fill="none" fill-rule="evenodd">
        <g id="Log-in" transform="translate(-873.000000, -477.000000)">
            <g id="Group-6" transform="translate(806.000000, 381.000000)">
                <g id="Group-5" transform="translate(0.000000, 83.000000)">
                    <g id="Group" transform="translate(67.000000, 13.000000)">
                        <g id="Group-15">
                            <path d="M19.6272794,11.4126627 C19.6272794,10.6870758 19.5635545,9.98939603 19.4452082,9.31962346 L10.0139181,9.31962346 L10.0139181,13.2777933 L15.4032267,13.2777933 C15.1710859,14.5568729 14.4655598,15.6406021 13.4049949,16.366189 L13.4049949,18.9336505 L16.6413111,18.9336505 C18.534852,17.1522416 19.6272794,14.5289657 19.6272794,11.4126627 L19.6272794,11.4126627 Z" id="Shape" fill="#4285F4"></path>
                            <path d="M10.0139181,21.4127393 C12.7176759,21.4127393 14.9844629,20.4964532 16.6413111,18.9336505 L13.4049949,16.366189 C12.508294,16.9801472 11.3612452,17.3429407 10.0139181,17.3429407 C7.40574759,17.3429407 5.19813383,15.5429269 4.41067573,13.1243037 L1.06511674,13.1243037 L1.06511674,15.7754868 C2.71286144,19.1196985 6.09938646,21.4127393 10.0139181,21.4127393 L10.0139181,21.4127393 Z" id="Shape" fill="#34A853"></path>
                            <path d="M4.41067573,13.1243037 C4.21039737,12.5103456 4.09660285,11.8545266 4.09660285,11.1801028 C4.09660285,10.505679 4.21039737,9.84986007 4.41067573,9.23590188 L4.41067573,6.5847188 L1.06511674,6.5847188 C0.38690138,7.96612472 1.93622895e-13,9.52892738 1.93622895e-13,11.1801028 C1.93622895e-13,12.8312782 0.38690138,14.3940809 1.06511674,15.7754868 L4.41067573,13.1243037 L4.41067573,13.1243037 Z" id="Shape" fill="#FBBC05"></path>
                            <path d="M10.0139181,5.01726494 C11.4841433,5.01726494 12.8041598,5.53354796 13.8419658,6.54750921 L16.7141396,3.61260302 C14.9799111,1.96142759 12.7131242,0.94746634 10.0139181,0.94746634 C6.09938646,0.94746634 2.71286144,3.24050715 1.06511674,6.5847188 L4.41067573,9.23590188 C5.19813383,6.81727872 7.40574759,5.01726494 10.0139181,5.01726494 L10.0139181,5.01726494 Z" id="Shape" fill="#EA4335"></path>
                        </g>
                    </g>
                </g>
            </g>
        </g>
    </g>
</svg>