<?xml version="1.0" encoding="UTF-8"?>
<svg width="148px" height="43px" viewBox="0 0 148 43" version="1.1" xmlns="http://www.w3.org/2000/svg" xmlns:xlink="http://www.w3.org/1999/xlink">
    <!-- Generator: Sketch 52.6 (67491) - http://www.bohemiancoding.com/sketch -->
    <title>Google Play Badge US@SVG</title>
    <desc>Created with Sketch.</desc>
    <defs>
        <linearGradient x1="91.488428%" y1="4.9481245%" x2="-38.3517333%" y2="71.9074222%" id="linearGradient-1">
            <stop stop-color="#00A0FF" offset="0%"></stop>
            <stop stop-color="#00A1FF" offset="1%"></stop>
            <stop stop-color="#00BEFF" offset="26%"></stop>
            <stop stop-color="#00D2FF" offset="51%"></stop>
            <stop stop-color="#00DFFF" offset="76%"></stop>
            <stop stop-color="#00E3FF" offset="100%"></stop>
        </linearGradient>
        <linearGradient x1="107.684729%" y1="50%" x2="-130.640394%" y2="50%" id="linearGradient-2">
            <stop stop-color="#FFE000" offset="0%"></stop>
            <stop stop-color="#FFBD00" offset="41%"></stop>
            <stop stop-color="#FFA500" offset="78%"></stop>
            <stop stop-color="#FF9C00" offset="100%"></stop>
        </linearGradient>
        <linearGradient x1="86.219293%" y1="17.8768889%" x2="-50.1497903%" y2="194.702638%" id="linearGradient-3">
            <stop stop-color="#FF3A44" offset="0%"></stop>
            <stop stop-color="#C31162" offset="100%"></stop>
        </linearGradient>
        <linearGradient x1="-18.7537448%" y1="-54.0521474%" x2="42.1210306%" y2="24.9170664%" id="linearGradient-4">
            <stop stop-color="#32A071" offset="0%"></stop>
            <stop stop-color="#2DA771" offset="7%"></stop>
            <stop stop-color="#15CF74" offset="48%"></stop>
            <stop stop-color="#06E775" offset="80%"></stop>
            <stop stop-color="#00F076" offset="100%"></stop>
        </linearGradient>
    </defs>
    <g id="Dashboard" stroke="none" stroke-width="1" fill="none" fill-rule="evenodd">
        <g id="SEARCH-TOUR-DETAILS-Copy" transform="translate(-553.000000, -953.000000)" fill-rule="nonzero">
            <g id="Group-6" transform="translate(-4.000000, 924.000000)">
                <g id="Group-29" transform="translate(403.000000, 28.000000)">
                    <g id="Google-Play-Badge-US" transform="translate(154.000000, 1.000000)">
                        <rect id="Background-Black" fill="#000000" x="0" y="0" width="147.375" height="42.75" rx="5"></rect>
                        <path d="M74.4075,23.34375 C71.7698531,23.3561626 69.6405081,25.5022663 69.6487735,28.1399294 C69.6570388,30.7775926 71.7997918,32.9103093 74.4374647,32.9061912 C77.0751376,32.9020732 79.2112208,30.7626761 79.21125,28.125 C79.2297821,26.8474205 78.7288855,25.6170485 77.823287,24.7156916 C76.9176885,23.8143348 75.6849784,23.3192201 74.4075,23.34375 Z M74.4075,31.0275 C73.2186308,31.1106434 72.0997571,30.4586027 71.586024,29.3832417 C71.0722909,28.3078808 71.2681153,27.0277682 72.0798366,26.1551678 C72.8915579,25.2825674 74.1541926,24.9948364 75.2638363,25.4295934 C76.37348,25.8643505 77.1045962,26.9332305 77.1075,28.125 C77.1441106,28.8705059 76.8780368,29.5991919 76.3696579,30.1456992 C75.861279,30.6922065 75.1537036,31.0101934 74.4075,31.0275 Z M63.93375,23.34375 C61.2946119,23.3499598 59.1596185,25.4933402 59.1637559,28.1324824 C59.1678933,30.7716245 61.3095966,32.9083004 63.9487412,32.9062353 C66.5878858,32.9041703 68.7262427,30.7641454 68.72625,28.125 C68.7447821,26.8474205 68.2438855,25.6170485 67.338287,24.7156916 C66.4326885,23.8143348 65.1999784,23.3192201 63.9225,23.34375 L63.93375,23.34375 Z M63.93375,31.0275 C62.7442602,31.1153322 61.6221242,30.4665427 61.1047707,29.3918587 C60.5874171,28.3171746 60.7801756,27.0353942 61.5907275,26.1604051 C62.4012795,25.2854159 63.6646022,24.9953598 64.7756481,25.4291542 C65.8866939,25.8629487 66.6192616,26.9322762 66.6225,28.125 C66.6591106,28.8705059 66.3930368,29.5991919 65.8846579,30.1456992 C65.376279,30.6922065 64.6687036,31.0101934 63.9225,31.0275 L63.93375,31.0275 Z M51.4575,24.8175 L51.4575,26.8425 L56.3175,26.8425 C56.2412964,27.7962793 55.8448252,28.6962688 55.1925,29.39625 C54.2092757,30.3977527 52.8486111,30.9371153 51.44625,30.88125 C48.4639124,30.88125 46.04625,28.4635876 46.04625,25.48125 C46.04625,22.4989124 48.4639124,20.08125 51.44625,20.08125 C52.8162702,20.0589062 54.1392322,20.5808086 55.125,21.5325 L56.55375,20.10375 C55.2092845,18.7423404 53.3708082,17.9834109 51.4575,18 C48.7338309,17.8940014 46.1704427,19.2866308 44.7770858,21.6293142 C43.3837289,23.9719976 43.3837289,26.8892524 44.7770858,29.2319358 C46.1704427,31.5746192 48.7338309,32.9672486 51.4575,32.86125 C53.4057357,32.9492861 55.2968333,32.1903858 56.64375,30.78 C57.8223852,29.4850368 58.4516735,27.7827314 58.39875,26.0325 C58.4023802,25.6061117 58.3647043,25.1803742 58.28625,24.76125 L51.4575,24.8175 Z M102.43125,26.3925 C101.83059,24.6253613 100.201419,23.4124347 98.33625,23.34375 C97.092409,23.3413181 95.9030382,23.8538335 95.0505518,24.7596003 C94.1980655,25.665367 93.7585074,26.8835885 93.83625,28.125 C93.8086211,29.3954581 94.29881,30.6225319 95.1941837,31.5242708 C96.0895574,32.4260098 97.313128,32.9248786 98.58375,32.90625 C100.182216,32.9148663 101.678224,32.1203762 102.56625,30.79125 L100.935,29.66625 C100.439714,30.4919349 99.5465883,30.9961879 98.58375,30.99375 C97.5865404,31.0317583 96.6674715,30.4562248 96.26625,29.5425 L102.6675,26.89875 L102.43125,26.3925 Z M95.90625,27.99 C95.8601834,27.2870598 96.0989914,26.5951631 96.5688375,26.07029 C97.0386836,25.5454169 97.7000178,25.2317494 98.40375,25.2 C99.1455411,25.1511205 99.8449497,25.5495179 100.18125,26.2125 L95.90625,27.99 Z M90.70875,32.625 L92.8125,32.625 L92.8125,18.5625 L90.70875,18.5625 L90.70875,32.625 Z M87.26625,24.4125 L87.1875,24.4125 C86.5462074,23.6955114 85.6294393,23.2862399 84.6675,23.2875 C82.1139152,23.4113306 80.1071292,25.5177896 80.1071292,28.074375 C80.1071292,30.6309604 82.1139152,32.7374194 84.6675,32.86125 C85.6325576,32.8774767 86.5552679,32.4655524 87.1875,31.73625 L87.255,31.73625 L87.255,32.4225 C87.255,34.25625 86.27625,35.235 84.70125,35.235 C83.6283409,35.2098871 82.6770691,34.5386626 82.29375,33.53625 L80.46,34.30125 C81.1661418,36.0189123 82.8441347,37.1360906 84.70125,37.125 C87.165,37.125 89.20125,35.67375 89.20125,32.14125 L89.20125,23.625 L87.26625,23.625 L87.26625,24.4125 Z M84.85875,31.0275 C83.3544985,30.8949298 82.2007984,29.6350819 82.2007984,28.125 C82.2007984,26.6149181 83.3544985,25.3550702 84.85875,25.2225 C85.5856345,25.2598022 86.2666717,25.5889914 86.747456,26.1354335 C87.2282404,26.6818757 87.4680446,27.3992815 87.4125,28.125 C87.4745266,28.8540556 87.2354897,29.576735 86.7509666,30.1250112 C86.2664435,30.6732873 85.5786492,30.9993905 84.8475,31.0275 L84.85875,31.0275 Z M112.28625,18.5625 L107.2575,18.5625 L107.2575,32.625 L109.36125,32.625 L109.36125,27.2925 L112.2975,27.2925 C113.931769,27.4099093 115.494721,26.6045726 116.347646,25.2055946 C117.200572,23.8066166 117.200572,22.0483834 116.347646,20.6494054 C115.494721,19.2504274 113.931769,18.4450907 112.2975,18.5625 L112.28625,18.5625 Z M112.28625,25.3125 L109.35,25.3125 L109.35,20.52 L112.33125,20.52 C113.663982,20.52 114.744375,21.6003929 114.744375,22.933125 C114.744375,24.2658571 113.663982,25.34625 112.33125,25.34625 L112.28625,25.3125 Z M125.2575,23.2875 C123.692302,23.1939438 122.220773,24.037974 121.51125,25.43625 L123.37875,26.2125 C123.754957,25.5191267 124.505015,25.1132125 125.29125,25.1775 C125.830719,25.1144939 126.372885,25.2708414 126.795969,25.611424 C127.219053,25.9520066 127.487586,26.4482718 127.54125,26.98875 L127.54125,27.135 C126.865567,26.777249 126.112041,26.5917658 125.3475,26.595 C123.33375,26.595 121.2975,27.72 121.2975,29.75625 C121.337649,30.6334224 121.730895,31.4570582 122.387773,32.039772 C123.04465,32.6224859 123.909298,32.9147242 124.785,32.85 C125.864133,32.9274935 126.899515,32.4098023 127.485,31.5 L127.5525,31.5 L127.5525,32.625 L129.5775,32.625 L129.5775,27.21375 C129.5775,24.75 127.71,23.32125 125.31375,23.32125 L125.2575,23.2875 Z M124.99875,30.99375 C124.3125,30.99375 123.35625,30.645 123.35625,29.80125 C123.35625,28.67625 124.54875,28.305 125.60625,28.305 C126.274547,28.2885097 126.935022,28.4516858 127.51875,28.7775 C127.373283,30.0368419 126.322339,30.9966081 125.055,31.0275 L124.99875,30.99375 Z M136.9575,23.625 L134.55,29.7225 L134.4825,29.7225 L131.985,23.625 L129.735,23.625 L133.48125,32.1525 L131.34375,36.88875 L133.5375,36.88875 L139.2975,23.625 L136.9575,23.625 Z M118.04625,32.625 L120.15,32.625 L120.15,18.5625 L118.04625,18.5625 L118.04625,32.625 Z" id="Google-Play" fill="#FFFFFF"></path>
                        <path d="M51.0975,10.395 C51.1361478,11.2288849 50.8311761,12.0421428 50.25375,12.645 C49.608506,13.3152786 48.7085443,13.679354 47.77875,13.64625 C46.3526328,13.6350886 45.0721667,12.7701182 44.5294033,11.4512768 C43.9866399,10.1324353 44.2873525,8.61673776 45.2925,7.605 C45.9455996,6.93824171 46.8456512,6.57170485 47.77875,6.5925 C48.2543523,6.59091536 48.7252529,6.68662686 49.1625,6.87375 C49.5695863,7.03794776 49.9319821,7.29625113 50.22,7.6275 L49.62375,8.22375 C49.1685152,7.682261 48.4851205,7.3864011 47.77875,7.425 C47.0687055,7.42151686 46.3878893,7.70747362 45.8932905,8.21693154 C45.3986918,8.72638945 45.1330069,9.41536956 45.1575,10.125 C45.1424271,11.1973384 45.7739736,12.1734444 46.7582999,12.5991656 C47.7426263,13.0248867 48.8864166,12.8166139 49.6575,12.07125 C50.0036732,11.6961037 50.2033309,11.208939 50.22,10.69875 L47.77875,10.69875 L47.77875,9.88875 L51.0525,9.88875 C51.0825073,10.0558284 51.0975668,10.2252484 51.0975,10.395 Z M56.25,7.5825 L53.2125,7.5825 L53.2125,9.72 L55.98,9.72 L55.98,10.53 L53.2125,10.53 L53.2125,12.6675 L56.25,12.6675 L56.25,13.5 L52.3125,13.5 L52.3125,6.75 L56.25,6.75 L56.25,7.5825 Z M59.94,13.5 L59.07375,13.5 L59.07375,7.5825 L57.18375,7.5825 L57.18375,6.75 L61.875,6.75 L61.875,7.5825 L59.94,7.5825 L59.94,13.5 Z M65.1825,13.5 L65.1825,6.75 L66.04875,6.75 L66.04875,13.5 L65.1825,13.5 Z M69.89625,13.5 L69.03,13.5 L69.03,7.5825 L67.14,7.5825 L67.14,6.75 L71.775,6.75 L71.775,7.5825 L69.89625,7.5825 L69.89625,13.5 Z M80.56125,12.6225 C79.1921136,13.9840064 76.9803864,13.9840064 75.61125,12.6225 C74.2840525,11.2176381 74.2840525,9.02111189 75.61125,7.61625 C76.2659982,6.95671503 77.1569053,6.58578709 78.08625,6.58578709 C79.0155947,6.58578709 79.9065018,6.95671503 80.56125,7.61625 C81.8941112,9.01885482 81.8941112,11.2198952 80.56125,12.6225 Z M76.2525,12.06 C77.2664894,13.0697607 78.9060106,13.0697607 79.92,12.06 C80.9158481,10.9621925 80.9158481,9.28780747 79.92,8.19 C78.9060106,7.1802393 77.2664894,7.1802393 76.2525,8.19 C75.2566519,9.28780747 75.2566519,10.9621925 76.2525,12.06 Z M82.7775,13.5 L82.7775,6.75 L83.835,6.75 L87.12,12.00375 L87.12,6.75 L87.98625,6.75 L87.98625,13.5 L87.08625,13.5 L83.655,7.99875 L83.655,13.5 L82.7775,13.5 Z" id="GET-IT-ON" stroke="#FFFFFF" stroke-width="0.2" fill="#FFFFFF"></path>
                        <g id="Icon" transform="translate(7.875000, 6.750000)">
                            <path d="M1.62,0.6075 C1.25332308,1.04749688 1.06824786,1.61076929 1.1025,2.1825 L1.1025,27.0675 C1.06824786,27.6392307 1.25332308,28.2025031 1.62,28.6425 L1.69875,28.72125 L15.6375,14.79375 L15.6375,14.4675 L1.69875,0.52875 L1.62,0.6075 Z" id="Shape" fill="url(#linearGradient-1)"></path>
                            <path d="M20.25,19.44 L15.6375,14.79375 L15.6375,14.4675 L20.25,9.81 L20.35125,9.86625 L25.875,13.005 C27.45,13.89375 27.45,15.35625 25.875,16.25625 L20.37375,19.38375 L20.25,19.44 Z" id="Shape" fill="url(#linearGradient-2)"></path>
                            <path d="M20.385,19.3725 L15.6375,14.625 L1.62,28.6425 C2.28230745,29.2247127 3.26523258,29.2530663 3.96,28.71 L20.39625,19.3725" id="Shape" fill="url(#linearGradient-3)"></path>
                            <path d="M20.385,9.8775 L3.94875,0.54 C3.25398258,-0.00306631023 2.27105745,0.0252872995 1.60875,0.6075 L15.6375,14.625 L20.385,9.8775 Z" id="Shape" fill="url(#linearGradient-4)"></path>
                            <path d="M20.25,19.27125 L3.94875,28.5525 C3.28166835,29.0512535 2.36583165,29.0512535 1.69875,28.5525 L1.62,28.63125 L1.69875,28.71 C2.36457651,29.2125142 3.28292349,29.2125142 3.94875,28.71 L20.385,19.3725 L20.25,19.27125 Z" id="Shape" fill="#000000" opacity="0.2"></path>
                            <path d="M1.62,28.485 C1.25332308,28.0450031 1.06824786,27.4817307 1.1025,26.91 L1.1025,27.07875 C1.06824786,27.6504807 1.25332308,28.2137531 1.62,28.65375 L1.69875,28.575 L1.62,28.485 Z M25.875,16.0875 L20.25,19.27125 L20.35125,19.3725 L25.875,16.245 C26.5129539,15.9453148 26.942027,15.3274496 27,14.625 C26.8717832,15.2604427 26.4562942,15.8005784 25.875,16.0875 Z" id="Shape" fill="#000000" opacity="0.12"></path>
                            <path d="M3.94875,0.6975 L25.875,13.1625 C26.4562942,13.4494216 26.8717832,13.9895573 27,14.625 C26.942027,13.9225504 26.5129539,13.3046852 25.875,13.005 L3.94875,0.54 C2.37375,-0.34875 1.09125,0.39375 1.09125,2.19375 L1.09125,2.3625 C1.125,0.55125 2.385,-0.19125 3.94875,0.6975 Z" id="Shape" fill="#FFFFFF" opacity="0.25"></path>
                        </g>
                    </g>
                </g>
            </g>
        </g>
    </g>
</svg>