<?xml version="1.0" encoding="UTF-8"?>
<svg width="32px" height="27px" stroke="#fff" stroke-width="4" viewBox="0 0 32 27" version="1.1" xmlns="http://www.w3.org/2000/svg" xmlns:xlink="http://www.w3.org/1999/xlink">
    <!-- Generator: sketchtool 52.6 (67491) - http://www.bohemiancoding.com/sketch -->
    <title>F6AA9473-EB2A-445E-94A2-381C46210C27</title>
    <desc>Created with sketchtool.</desc>
    <g id="Dashboard" stroke="none" stroke-width="1" fill="#cecece" fill-rule="evenodd">
        <g id="SEARCH-TOUR-FILTER-2" transform="translate(-679.000000, -266.000000)" fill="#D0021B">
            <g id="Group-6-Copy" transform="translate(409.000000, 256.000000)">
                <g id="Group-7">
                    <path d="M298.598805,11.9285714 C300.096579,13.1741074 301.115897,14.660714 301.65676,16.3883929 C302.114413,17.9553571 302.114413,19.5524554 301.65676,21.1796875 C301.199107,22.8069196 300.408615,24.1830354 299.285284,25.3080357 L288.364014,36.0357143 C287.698336,36.6785717 286.907845,37 285.992538,37 C285.077232,37 284.28674,36.6785717 283.621062,36.0357143 L272.699792,25.3080357 C271.576462,24.1830354 270.785969,22.8069196 270.328316,21.1796875 C269.870663,19.5524554 269.891466,17.9553571 270.390724,16.3883929 C270.889982,14.660714 271.888498,13.1741074 273.386272,11.9285714 C274.551208,10.9642857 275.903364,10.3616071 277.442744,10.1205357 C278.982123,9.87946429 280.511101,10 282.029677,10.4821429 C283.548254,10.9642857 284.869208,11.7477679 285.992538,12.8325893 C287.115869,11.7477679 288.436823,10.9642857 289.955399,10.4821429 C291.473976,10 293.002953,9.87946429 294.542333,10.1205357 C296.081712,10.3616071 297.433869,10.9642857 298.598805,11.9285714 Z" id=""></path>
                </g>
            </g>
        </g>
    </g>
</svg>