<?xml version="1.0" encoding="UTF-8"?>
<svg width="1440px" height="230px" viewBox="0 0 1440 230" version="1.1" xmlns="http://www.w3.org/2000/svg" xmlns:xlink="http://www.w3.org/1999/xlink">
    <!-- Generator: sketchtool 52.6 (67491) - http://www.bohemiancoding.com/sketch -->
    <title>82C5D99B-184D-4C62-B5EC-95842FE412F0</title>
    <desc>Created with sketchtool.</desc>
    <g id="Dashboard" stroke="none" stroke-width="1" fill="none" fill-rule="evenodd">
        <g id="Forgot-password---new-password" transform="translate(0.000000, -764.000000)" stroke="#FFFFFF" stroke-width="3">
            <g id="sign-in" transform="translate(0.000000, 764.000000)">
                <g id="Group-17" transform="translate(422.000000, 0.000000)">
                    <ellipse id="Oval" stroke-linecap="round" stroke-linejoin="round" cx="32.5531781" cy="193.170496" rx="32.5531781" ry="32.3599238"></ellipse>
                    <ellipse id="Oval-Copy-6" stroke-linecap="round" stroke-linejoin="round" cx="145.945249" cy="193.170496" rx="32.5531781" ry="32.3599238"></ellipse>
                    <path d="M145.86303,137.471134 C152.784635,138.403316 156.245437,136.072861 156.245437,130.479768 C156.245437,124.886675 153.390924,121.939675 147.681898,121.638767 L122.786809,121.638767 L149.042433,194.800333 L131.874005,147.259046 C67.0154986,147.259046 34.5862455,147.259046 34.5862455,147.259046 C34.5862455,147.259046 28.8634361,147.259046 28.8634361,141.665953 C28.8634361,137.937225 30.7710392,136.072861 34.5862455,136.072861 L64.6309947,136.072861 L91.8143392,189.207241 L37.4476502,189.207241" id="Triangle" stroke-linecap="round" stroke-linejoin="round"></path>
                    <path d="M30.9251101,214.999167 C43.4319789,214.999167 53.5707992,205.371526 53.5707992,193.49523 C53.5707992,192.191119 53.4485477,190.914122 53.2143335,189.674009" id="Oval" stroke-linecap="round" stroke-linejoin="round"></path>
                    <path d="M144.317181,214.999167 C156.824049,214.999167 166.96287,205.371526 166.96287,193.49523 C166.96287,192.191119 166.840618,190.914122 166.606404,189.674009" id="Oval-Copy-7" stroke-linecap="round" stroke-linejoin="round"></path>
                    <path d="M496.863436,178.85022 C282.449339,178.85022 175.242291,178.85022 175.242291,178.85022 C175.242291,178.85022 282.449339,178.85022 496.863436,178.85022 Z" id="Triangle" stroke-linecap="round" stroke-linejoin="round"></path>
                    <path d="M1017.9163,178.85022 C692.538913,178.85022 529.85022,178.85022 529.85022,178.85022 C529.85022,178.85022 692.538913,178.85022 1017.9163,178.85022 Z" id="Triangle-Copy-6" stroke-linecap="round" stroke-linejoin="round"></path>
                    <path d="M402.026432,141.277323 C390.323073,123.843338 370.366813,112.361233 347.715412,112.361233 C311.669955,112.361233 282.449339,141.437085 282.449339,177.303965" id="Oval" stroke-linecap="round" stroke-linejoin="round"></path>
                    <path d="M149.471366,227.299559 C113.735683,227.299559 95.8678414,227.299559 95.8678414,227.299559" id="Triangle-Copy" stroke-linecap="round" stroke-linejoin="round"></path>
                    <path d="M37.1101322,227.299559 C16.4933921,227.299559 6.18502203,227.299559 6.18502203,227.299559" id="Triangle-Copy-2" stroke-linecap="round" stroke-linejoin="round"></path>
                    <path d="M88.6519824,227.299559 C87.9647577,227.299559 87.6211454,227.299559 87.6211454,227.299559" id="Triangle-Copy-3" stroke-linecap="round" stroke-linejoin="round"></path>
                    <path d="M172.14978,227.541304 L368.80081,227.541304 C384.284451,228.818448 392.026271,225.62559 392.026271,217.96273 C392.026271,206.468442 395.373414,196.889868 411.110926,196.889868 C411.110926,196.889868 439.007871,196.889868 494.801762,196.889868" id="Path-4" stroke-linecap="round" stroke-dasharray="8" fill-rule="nonzero"></path>
                    <path d="M93.8026331,75.4217617 L86.9553099,75.4217617 C88.5800635,72.1921551 89.4541372,68.6100295 89.4541372,64.9491626 C89.4541372,51.8720419 78.5810403,41.2334802 65.2165446,41.2334802 C55.2641552,41.2334802 46.551894,47.172193 42.8612231,55.7848811 C40.4940434,54.670792 37.8776,54.0727616 35.2009041,54.0727616 C25.4540335,54.0723578 17.5242291,61.831409 17.5242291,71.3683995 C17.5242291,75.2243027 18.7965469,78.8750746 21.202932,81.9266046 C21.9845635,82.9171304 23.1908512,83.4977974 24.4701847,83.4977974 L93.8026331,83.4977974 C96.0814975,83.4977974 97.9295154,81.6899768 97.9295154,79.4597795 C97.9295154,77.2295823 96.0814975,75.4217617 93.8026331,75.4217617 Z" id="Path" stroke-linecap="round" stroke-linejoin="round" fill-rule="nonzero"></path>
                    <path d="M308.107548,30.9251101 C302.196863,30.9251101 296.489461,32.8299072 291.786737,36.3325256 C289.644527,35.6840072 287.43669,35.3558786 285.19524,35.3558786 C272.881402,35.3558786 262.863436,45.0428964 262.863436,56.9499418 C262.863436,59.0869053 264.655103,60.8193833 266.865073,60.8193833 L331.020389,60.8193833 C333.23036,60.8193833 335.022026,59.0869053 335.022026,56.9499418 C335.022026,42.599989 322.948286,30.9251101 308.107548,30.9251101 Z" id="Path" stroke-linecap="round" stroke-linejoin="round" fill-rule="nonzero"></path>
                    <path d="M201.013216,94.4688483 L216.132159,76.2819383" id="Line-5" stroke-linecap="round" stroke-linejoin="round"></path>
                    <path d="M201.013216,114.054751 L216.132159,95.8678414" id="Line-5-Copy" stroke-linecap="round" stroke-linejoin="round"></path>
                    <path d="M429.746314,148.440529 C423.835629,148.440529 418.128227,150.345326 413.425503,153.847944 C411.283293,153.199426 409.075457,152.871297 406.834006,152.871297 C394.520168,152.871297 384.502203,162.558315 384.502203,174.46536 C384.502203,176.602324 386.293869,178.334802 388.50384,178.334802 L452.659156,178.334802 C454.869127,178.334802 456.660793,176.602324 456.660793,174.46536 C456.660793,160.115408 444.587053,148.440529 429.746314,148.440529 Z" id="Path-Copy-4" stroke-linecap="round" stroke-linejoin="round" fill-rule="nonzero"></path>
                    <path d="M261.317181,116.484582 C180.22467,116.484581 139.678414,116.484581 139.678414,116.484581" id="Triangle-Copy" stroke-linecap="round" stroke-linejoin="round" transform="translate(200.497797, 116.484581) rotate(-270.000000) translate(-200.497797, -116.484581) "></path>
                    <path d="M354.60793,80.9207053 C337.427313,80.9207042 328.837004,80.920704 328.837004,80.9207048" id="Triangle-Copy-7" stroke-linecap="round" stroke-linejoin="round" transform="translate(341.722467, 80.920705) scale(1, -1) rotate(270.000000) translate(-341.722467, -80.920705) "></path>
                    <rect id="Rectangle" x="171.588106" y="1.5" width="58.8502203" height="129.977974" rx="29.4251101"></rect>
                    <path d="M184.519824,105.808055 L199.638767,87.6211454" id="Line-5-Copy" stroke-linecap="round" stroke-linejoin="round" transform="translate(192.766520, 97.414097) scale(-1, 1) translate(-192.766520, -97.414097) "></path>
                    <path d="M523.284703,59.614561 C495.5404,59.6422653 472.946538,81.680355 472.91943,108.740931 C472.910271,117.883814 475.497924,126.803806 480.404376,134.53984 L520.282694,197.27841 C521.046574,198.480283 522.393755,199.209626 523.843418,199.208179 C523.854599,199.208168 523.865501,199.208157 523.876682,199.208146 C525.338935,199.195507 526.690398,198.44084 527.442732,197.216458 L566.429375,133.790866 C571.080024,126.208876 573.542763,117.512044 573.55165,108.640444 C573.578758,81.5798676 551.029006,59.5868566 523.284703,59.614561 Z" id="Path" fill-rule="nonzero" transform="translate(523.235540, 129.411358) rotate(16.000000) translate(-523.235540, -129.411358) "></path>
                    <path d="M145.5,2.5 C145.5,2.5 145.5,2.5 145.5,2.5" id="Triangle-Copy" stroke-linecap="round" stroke-linejoin="round" transform="translate(146.000000, 3.000000) rotate(-270.000000) translate(-146.000000, -3.000000) "></path>
                    <path d="M387.346218,102.64472 C377.944063,102.632829 373.242985,102.626884 373.242985,102.626884" id="Triangle-Copy-4" stroke-linecap="round" stroke-linejoin="round" transform="translate(380.294601, 102.635802) rotate(-249.000000) translate(-380.294601, -102.635802) "></path>
                    <path d="M424.948494,119.756683 C407.994194,119.725395 399.517044,119.709751 399.517044,119.709751" id="Triangle-Copy-5" stroke-linecap="round" stroke-linejoin="round" transform="translate(412.232769, 119.733217) rotate(-219.000000) translate(-412.232769, -119.733217) "></path>
                    <path d="M314.270245,102.577201 C304.756726,102.759302 299.999967,102.850353 299.999967,102.850353" id="Triangle-Copy-4" stroke-linecap="round" stroke-linejoin="round" transform="translate(307.135106, 102.713777) scale(-1, 1) rotate(-249.000000) translate(-307.135106, -102.713777) "></path>
                    <path d="M288.056329,119.44802 C270.945106,119.927037 262.389495,120.166546 262.389495,120.166546" id="Triangle-Copy-5" stroke-linecap="round" stroke-linejoin="round" transform="translate(275.222912, 119.807283) scale(-1, 1) rotate(-219.000000) translate(-275.222912, -119.807283) "></path>
                    <path d="M528.912068,214.741553 C519.462729,214.600331 514.73806,214.52972 514.73806,214.52972" id="Triangle-Copy-4" stroke-linecap="round" stroke-linejoin="round" transform="translate(521.825064, 214.635637) scale(-1, 1) rotate(-405.000000) translate(-521.825064, -214.635637) "></path>
                    <path d="M549.178414,201.39978 C532.169604,201.39978 523.665198,201.39978 523.665198,201.39978" id="Triangle-Copy-5" stroke-linecap="round" stroke-linejoin="round" transform="translate(536.421806, 201.399780) scale(-1, 1) rotate(-360.000000) translate(-536.421806, -201.399780) "></path>
                    <path d="M497.095446,212.490876 C487.683586,211.450455 482.977657,210.930244 482.977657,210.930244" id="Triangle-Copy-4" stroke-linecap="round" stroke-linejoin="round" transform="translate(490.036551, 211.710560) rotate(-405.000000) translate(-490.036551, -211.710560) "></path>
                    <circle id="Oval" cx="526.757709" cy="110.299559" r="22.6784141"></circle>
                </g>
                <path d="M425.066079,178.546256 C141.688693,178.546256 2.61415386e-12,178.546256 3.12638804e-13,178.546256 C-1.97899851e-12,178.546256 141.688693,178.546256 425.066079,178.546256 Z" id="Triangle-Copy-6" stroke-linecap="round" stroke-linejoin="round"></path>
            </g>
        </g>
    </g>
</svg>