<?xml version="1.0" encoding="UTF-8"?>
<svg width="168px" height="37px" viewBox="0 0 168 37" version="1.1" xmlns="http://www.w3.org/2000/svg" xmlns:xlink="http://www.w3.org/1999/xlink">
    <!-- Generator: sketchtool 53.2 (72643) - https://sketchapp.com -->
    <title>F389B8B6-52F6-47DC-9D6B-4FA755CEDC9B</title>
    <desc>Created with sketchtool.</desc>
    <defs>
        <polygon id="path-1" points="0.0860603774 0.0108611111 4.57801668 0.0108611111 4.57801668 3.96551724 0.0860603774 3.96551724"></polygon>
        <polygon id="path-3" points="0 35.6896552 168 35.6896552 168 0 0 0"></polygon>
    </defs>
    <g id="Website" stroke="none" stroke-width="1" fill="none" fill-rule="evenodd">
        <g id="Artboard-Copy" transform="translate(-121.000000, -34.000000)">
            <g id="logo/light" transform="translate(121.000000, 29.000000)">
                <g id="Group-47" transform="translate(0.000000, 5.551724)">
                    <g id="Group-3" transform="translate(12.679245, 31.724138)">
                        <mask id="mask-2" fill="white">
                            <use xlink:href="#path-1"></use>
                        </mask>
                        <g id="Clip-2"></g>
                        <path d="M2.33203853,0.0108611111 C1.09355988,0.0108611111 0.0860603774,0.897815134 0.0860603774,1.98833238 C0.0860603774,3.07862931 1.09355988,3.96558333 2.33203853,3.96558333 C3.57076743,3.96558333 4.57801668,3.07862931 4.57801668,1.98833238 C4.57801668,0.897815134 3.57076743,0.0108611111 2.33203853,0.0108611111" id="Fill-1" fill="#FFFFFF" mask="url(#mask-2)"></path>
                    </g>
                    <path d="M27.339733,26.1724138 C26.2472351,26.1724138 25.3584906,27.0617889 25.3584906,28.155062 C25.3584906,29.2485559 26.2472351,30.137931 27.339733,30.137931 C28.4322309,30.137931 29.3207547,29.2485559 29.3207547,28.155062 C29.3207547,27.0617889 28.4322309,26.1724138 27.339733,26.1724138" id="Fill-4" fill="#FFFFFF"></path>
                    <path d="M3.96226415,15.4656277 C3.96226415,14.3721337 3.07378988,13.4827586 1.98113208,13.4827586 C0.888695012,13.4827586 0,14.3721337 0,15.4656277 C0,16.5589008 0.888695012,17.4482759 1.98113208,17.4482759 C3.07378988,17.4482759 3.96226415,16.5589008 3.96226415,15.4656277" id="Fill-6" fill="#FFFFFF"></path>
                    <path d="M13.6324282,20.6206897 C13.1068479,20.6206897 12.6792453,20.9763928 12.6792453,21.4137931 C12.6792453,21.8509994 13.1068479,22.2068966 13.6324282,22.2068966 L15.6880933,22.2068966 C16.2139068,22.2068966 16.6415094,21.8509994 16.6415094,21.4137931 C16.6415094,20.9763928 16.2139068,20.6206897 15.6880933,20.6206897 L13.6324282,20.6206897 Z" id="Fill-8" fill="#2A5780"></path>
                    <path d="M2.78556596,11.7576654 C2.92537108,11.8485768 3.08520925,11.8965517 3.24760484,11.8965517 L3.24888354,11.8965517 C3.52188714,11.8965517 3.77528392,11.7662088 3.94385991,11.5388207 C4.28399554,11.0798823 4.69211567,10.6851296 5.15649884,10.3659538 C5.53797927,10.1039537 5.65817758,9.59550686 5.4363222,9.18344808 C5.31889442,8.96591785 5.11707209,8.80753481 4.88200342,8.74904481 C4.64586916,8.69055481 4.39460355,8.73612005 4.19278122,8.87478736 C3.5638713,9.30612374 3.01317552,9.83910567 2.55539899,10.4581796 C2.40834788,10.6568704 2.34824872,10.9116414 2.39065912,11.1572118 C2.43306951,11.4019059 2.57628452,11.6203124 2.7836479,11.75657 L2.78556596,11.7576654 Z" id="Fill-10" fill="#2A5780"></path>
                    <path d="M4.23708726,18.5621665 C3.86939244,18.1943608 3.25449477,18.1352492 2.80595373,18.4242394 C2.5693749,18.5766613 2.41545614,18.8108431 2.38358407,19.066767 C2.35145288,19.3231438 2.44473698,19.582012 2.63933797,19.776786 C3.24205689,20.3796793 3.95023866,20.8874505 4.74367173,21.2867371 L4.75222277,21.2912667 C4.91261959,21.3714411 5.09530095,21.4137931 5.28057353,21.4137931 C5.38888673,21.4137931 5.49590432,21.3995248 5.59877595,21.3712146 C5.87940561,21.2935315 6.11261585,21.1139318 6.2388085,20.8788442 C6.4738326,20.4406028 6.28570968,19.9267166 5.80166886,19.6834757 C5.21190607,19.3870116 4.68536917,19.0096937 4.23708726,18.5621665 Z" id="Fill-12" fill="#2A5780"></path>
                    <path d="M15.8490566,16.4941331 L15.8490566,14.4369014 C15.8490566,13.9109206 15.4934514,13.4827586 15.0566038,13.4827586 C14.6197562,13.4827586 14.2641509,13.9109206 14.2641509,14.4369014 L14.2641509,16.4941331 C14.2641509,17.0203474 14.6197562,17.4482759 15.0566038,17.4482759 C15.4934514,17.4482759 15.8490566,17.0203474 15.8490566,16.4941331 Z" id="Fill-14" fill="#2A5780"></path>
                    <path d="M15.8490566,9.35637936 L15.8490566,7.29902652 C15.8490566,6.77278126 15.4934514,6.34482759 15.0566038,6.34482759 C14.6197562,6.34482759 14.2641509,6.77278126 14.2641509,7.29902652 L14.2641509,9.35637936 C14.2641509,9.88239116 14.6197562,10.3103448 15.0566038,10.3103448 C15.4934514,10.3103448 15.8490566,9.88239116 15.8490566,9.35637936 Z" id="Fill-16" fill="#2A5780"></path>
                    <path d="M14.2641509,26.3334531 L14.2641509,28.3906848 C14.2641509,28.9166657 14.6197562,29.3448276 15.0566038,29.3448276 C15.4934514,29.3448276 15.8490566,28.9166657 15.8490566,28.3906848 L15.8490566,26.3334531 C15.8490566,25.8072388 15.4934514,25.3793103 15.0566038,25.3793103 C14.6197562,25.3793103 14.2641509,25.8072388 14.2641509,26.3334531 Z" id="Fill-18" fill="#2A5780"></path>
                    <path d="M8.08310284,20.6206897 C7.55871983,20.6206897 7.13207547,20.9756165 7.13207547,21.4157337 C7.13207547,21.8519697 7.55871983,22.2068966 8.08310284,22.2068966 L10.1435455,22.2068966 C10.6676953,22.2068966 11.0943396,21.8502232 11.0943396,21.4118526 C11.0943396,20.9756165 10.6676953,20.6206897 10.1435455,20.6206897 L8.08310284,20.6206897 Z" id="Fill-20" fill="#2A5780"></path>
                    <path d="M8.08263631,7.93103448 C7.55871983,7.93103448 7.13207547,8.28557326 7.13207547,8.72646659 C7.13207547,9.16250854 7.55871983,9.51724138 8.08263631,9.51724138 L10.1442453,9.51724138 C10.6681618,9.51724138 11.0943396,9.16017988 11.0943396,8.72142116 C11.0943396,8.28557326 10.6681618,7.93103448 10.1442453,7.93103448 L8.08263631,7.93103448 Z" id="Fill-22" fill="#2A5780"></path>
                    <path d="M25.8840083,24.5862069 C26.1104636,24.5862069 26.3286276,24.5228023 26.514663,24.403013 C26.7514824,24.2503891 26.9053891,24.0160187 26.9372587,23.7603624 C26.9691282,23.5035739 26.8758514,23.2449738 26.6815248,23.0506841 C26.076003,22.4453969 25.3650267,21.9361223 24.5688057,21.5371265 C24.3122945,21.4078264 24.0039629,21.378615 23.7223189,21.456965 C23.4417112,21.5339562 23.2085193,21.7133006 23.0818183,21.9488033 C22.8470717,22.3869741 23.0349208,22.901004 23.5191828,23.1442058 C24.108122,23.4397164 24.6343585,23.8169736 25.0836417,24.265108 C25.2878142,24.4691349 25.5795633,24.5862069 25.8840083,24.5862069 Z" id="Fill-24" fill="#2A5780"></path>
                    <path d="M26.5485,31.8722169 L26.5382708,31.864989 C26.1536107,31.6133261 25.6542985,31.7068509 25.3768317,32.0820454 C25.0369243,32.5406895 24.6290355,32.9351584 24.1640336,33.2545009 C23.7827832,33.516677 23.6625903,34.0248214 23.8844358,34.4370316 C24.0016453,34.6545261 24.2036717,34.8126641 24.438943,34.8713635 C24.5060721,34.8880096 24.5751191,34.8965517 24.6433137,34.8965517 C24.8165706,34.8965517 24.9840735,34.8444231 25.1279215,34.7456416 C25.7563772,34.3145951 26.3072616,33.7817006 26.7656571,33.1622902 C26.9127017,32.963194 26.9725851,32.7082457 26.9299635,32.4627156 C26.8873418,32.2180616 26.7483954,32.0029764 26.5485,31.8722169 Z" id="Fill-26" fill="#2A5780"></path>
                    <path d="M19.1772092,20.6206897 C18.6528262,20.6206897 18.2264151,20.9774067 18.2264151,21.4158309 C18.2264151,21.8521203 18.6528262,22.2068966 19.1772092,22.2068966 L21.2376519,22.2068966 C21.7620349,22.2068966 22.1886792,21.8521203 22.1886792,21.4119494 C22.1886792,20.97566 21.7620349,20.6206897 21.2376519,20.6206897 L19.1772092,20.6206897 Z" id="Fill-28" fill="#2A5780"></path>
                    <path d="M19.1767427,34.1034483 C18.6528262,34.1034483 18.2264151,34.4604031 18.2264151,34.8990751 C18.2264151,35.3350296 18.6528262,35.6896552 19.1767427,35.6896552 L21.2381184,35.6896552 C21.7622681,35.6896552 22.1886792,35.3350296 22.1886792,34.8940284 C22.1886792,34.4580738 21.7622681,34.1034483 21.2381184,34.1034483 L19.1767427,34.1034483 Z" id="Fill-30" fill="#2A5780"></path>
                    <path d="M14.6604877,3.96551724 C15.7528639,3.96551724 16.6415094,3.07609259 16.6415094,1.98275862 C16.6415094,0.889203727 15.7528639,0 14.6604877,0 C13.5678908,0 12.6792453,0.889203727 12.6792453,1.98275862 C12.6792453,3.07609259 13.5678908,3.96551724 14.6604877,3.96551724" id="Fill-32" fill="#FFFFFF"></path>
                    <path d="M43.1073558,26.2096422 C43.7567961,26.2096422 44.3426916,26.094016 44.8659601,25.8611083 C45.3885404,25.62891 45.8303709,25.3132432 46.1909926,24.9133986 C46.5518437,24.5137905 46.8314861,24.0304775 47.0299198,23.4632231 C47.2281241,22.8962052 47.3274556,22.2783496 47.3274556,21.6089469 C47.3274556,20.9397806 47.2281241,20.321925 47.0299198,19.7549071 C46.8314861,19.1881256 46.5518437,18.7048126 46.1909926,18.3047316 C45.8303709,17.9055964 45.3885404,17.5894567 44.8659601,17.3570219 C44.3426916,17.1248236 43.7567961,17.008488 43.1073558,17.008488 C42.4579156,17.008488 41.8717906,17.1248236 41.3489809,17.3570219 C40.8257124,17.5894567 40.383882,17.9055964 40.0237191,18.3047316 C39.6626386,18.7048126 39.3829962,19.1881256 39.1847919,19.7549071 C38.9863582,20.321925 38.8872561,20.9397806 38.8872561,21.6089469 C38.8872561,22.2783496 38.9863582,22.8962052 39.1847919,23.4632231 C39.3829962,24.0304775 39.6626386,24.5137905 40.0237191,24.9133986 C40.383882,25.3132432 40.8257124,25.62891 41.3489809,25.8611083 C41.8717906,26.094016 42.4579156,26.2096422 43.1073558,26.2096422 L43.1073558,26.2096422 Z M36.4528302,7.13793103 L38.8872561,7.13793103 L38.8872561,16.8971179 L38.9416246,16.8971179 C39.3745083,16.2092718 39.9966496,15.6656628 40.8082778,15.2655818 C41.6196766,14.8664466 42.4852146,14.6664061 43.4051211,14.6664061 C44.3966014,14.6664061 45.2940264,14.8428012 46.0964785,15.1958277 C46.8989306,15.5493272 47.5848459,16.0371329 48.1526186,16.659954 C48.7208501,17.2827752 49.1576337,18.0169665 49.4648045,18.8627642 C49.7710576,19.7083256 49.9245283,20.6241139 49.9245283,21.6089469 C49.9245283,22.5942528 49.7710576,23.5050756 49.4648045,24.3414152 C49.1576337,25.1782277 48.7208501,25.9126554 48.1526186,26.5444618 C47.5848459,27.1765047 46.8989306,27.668803 46.0964785,28.0223025 C45.2940264,28.3748562 44.3966014,28.5517241 43.4051211,28.5517241 C42.5391243,28.5517241 41.6960679,28.3568856 40.8757223,27.9664992 C40.0546885,27.5761128 39.4102952,27.0277748 38.9416246,26.3210123 L38.8872561,26.3210123 L38.8872561,28.2176139 L36.4528302,28.2176139 L36.4528302,7.13793103 Z" id="Fill-34" fill="#FFFFFF"></path>
                    <path d="M65.7735849,28.2190663 L63.226878,28.2190663 L63.226878,26.1937118 L63.1697565,26.1937118 C62.848868,26.8964338 62.2925334,27.4652928 61.5000326,27.9000536 C60.7077717,28.3341085 59.7923877,28.5517241 58.7548404,28.5517241 C58.093863,28.5517241 57.4715267,28.4545617 56.8868713,28.2602368 C56.3019759,28.0661472 55.7874024,27.7654848 55.3445908,27.35872 C54.9008191,26.9524257 54.5470498,26.4296777 54.2830429,25.7914169 C54.0187959,25.1531562 53.8867925,24.4000884 53.8867925,23.5303317 L53.8867925,15.0689655 L56.4342194,15.0689655 L56.4342194,22.8367848 C56.4342194,23.4468144 56.5189416,23.9700329 56.6886261,24.4040879 C56.8585506,24.8390839 57.0848765,25.1905625 57.368084,25.4585238 C57.6510514,25.7267204 57.97674,25.9205747 58.3444296,26.0407927 C58.7125993,26.1617164 59.0944493,26.2212372 59.4906998,26.2212372 C60.0184736,26.2212372 60.5092865,26.1381904 60.9626584,25.9718614 C61.4153103,25.8052973 61.8115608,25.5420412 62.1511697,25.1809169 C62.4907786,24.8207336 62.7547856,24.3624468 62.9436705,23.8079387 C63.1320755,23.25296 63.226878,22.5965842 63.226878,21.8378703 L63.226878,15.0689655 L65.7735849,15.0689655 L65.7735849,28.2190663 Z" id="Fill-36" fill="#FFFFFF"></path>
                    <mask id="mask-4" fill="white">
                        <use xlink:href="#path-3"></use>
                    </mask>
                    <g id="Clip-39"></g>
                    <path d="M70.3666142,27.7586207 L73.0676026,27.7586207 L73.0676026,14.5212842 L70.3666142,14.5212842 L70.3666142,27.7586207 Z M69.7358491,9.77421091 C69.7358491,9.27120349 69.9308313,8.83829504 70.3210505,8.47572237 C70.7112696,8.11220241 71.1768344,7.93103448 71.7169811,7.93103448 C72.2571279,7.93103448 72.7224381,8.11220241 73.1126572,8.47572237 C73.5028764,8.83829504 73.6981132,9.27120349 73.6981132,9.77421091 C73.6981132,10.2767447 73.5028764,10.7094163 73.1126572,11.0724626 C72.7224381,11.4357458 72.2571279,11.6169137 71.7169811,11.6169137 C71.1768344,11.6169137 70.7112696,11.4357458 70.3210505,11.0724626 C69.9308313,10.7094163 69.7358491,10.2767447 69.7358491,9.77421091 L69.7358491,9.77421091 Z" id="Fill-38" fill="#FFFFFF" mask="url(#mask-4)"></path>
                    <polygon id="Fill-40" fill="#FFFFFF" mask="url(#mask-4)" points="77.6603774 27.7586207 80.0377358 27.7586207 80.0377358 7.13793103 77.6603774 7.13793103"></polygon>
                    <path d="M91.8442564,17.05117 L88.3948335,17.05117 L88.3948335,23.1117173 C88.3948335,23.4877227 88.403677,23.8587083 88.421364,24.2249131 C88.4392778,24.5913571 88.5059443,24.9202721 88.6222705,25.2114194 C88.7379164,25.5030447 88.9163739,25.7377791 89.156736,25.9161008 C89.3975516,26.0951396 89.7492513,26.1840614 90.2131955,26.1840614 C90.4980019,26.1840614 90.7921053,26.155855 91.0957326,26.0994423 C91.398226,26.0432686 91.6748692,25.9400045 91.9245283,25.7894111 L91.9245283,28.1006611 C91.6392684,28.2701384 91.2694282,28.3870276 90.814781,28.4530018 C90.3603606,28.518737 90.0077539,28.5517241 89.7585483,28.5517241 C88.8315669,28.5517241 88.1143354,28.4152339 87.6061737,28.1429707 C87.0982387,27.8707074 86.7238633,27.5183666 86.4830477,27.0857095 C86.2422321,26.6540084 86.0993754,26.1699582 86.0553846,25.6345151 C86.01026,25.0988329 85.9884914,24.558609 85.9884914,24.0133653 L85.9884914,17.05117 L83.2075472,17.05117 L83.2075472,14.8525065 L85.9884914,14.8525065 L85.9884914,11.1034483 L88.3948335,11.1034483 L88.3948335,14.8525065 L91.8442564,14.8525065 L91.8442564,17.05117 Z" id="Fill-41" fill="#FFFFFF" mask="url(#mask-4)"></path>
                    <path d="M111.040739,17.8224218 C110.747671,17.4612683 110.385412,17.1588912 109.955594,16.9155201 C109.524845,16.6716898 108.99858,16.5500042 108.376101,16.5500042 C107.789498,16.5500042 107.281404,16.6716898 106.85112,16.9155201 C106.420837,17.1588912 106.205811,17.5154528 106.205811,17.9849753 C106.205811,18.3635781 106.329282,18.6710063 106.576689,18.9054231 C106.823631,19.1400696 107.116233,19.3297154 107.455661,19.4741309 C107.79439,19.618776 108.156183,19.7269154 108.540806,19.7985491 C108.925429,19.8711013 109.255073,19.93424 109.52997,19.9884245 C110.060894,20.1149316 110.559902,20.2680717 111.026994,20.4485336 C111.493854,20.6292252 111.896415,20.8641013 112.235843,21.1524731 C112.574572,21.4417632 112.840384,21.7932737 113.032346,22.2083822 C113.224774,22.6239498 113.320755,23.1290596 113.320755,23.7248596 C113.320755,24.446937 113.164902,25.0647782 112.853896,25.579531 C112.541957,26.0935951 112.139629,26.5132954 111.645047,26.8381728 C111.150698,27.1632799 110.587159,27.3979264 109.955594,27.5421123 C109.323797,27.6862981 108.687107,27.7586207 108.046224,27.7586207 C106.965506,27.7586207 106.017576,27.5962968 105.202902,27.2714193 C104.38753,26.9463123 103.659518,26.3507419 103.018868,25.4844785 L104.887004,23.9682307 C105.289798,24.3658899 105.738486,24.7174004 106.233301,25.0243694 C106.72765,25.3311088 107.33219,25.4844785 108.046224,25.4844785 C108.357231,25.4844785 108.673362,25.4532536 108.99392,25.3896556 C109.314245,25.3267465 109.598694,25.2271021 109.845403,25.0918704 C110.093043,24.9566388 110.294091,24.7853606 110.449943,24.5771176 C110.605563,24.3702522 110.683606,24.1305546 110.683606,23.8600913 C110.683606,23.4991673 110.568988,23.2011526 110.340217,22.9669653 C110.111214,22.7325484 109.836317,22.5468057 109.516225,22.4111149 C109.195201,22.2758832 108.856705,22.1677438 108.499571,22.0866966 C108.142671,22.0056495 107.826539,21.9374596 107.551642,21.8835047 C107.020252,21.7572273 106.516818,21.6130414 106.040873,21.4502583 C105.564229,21.2877047 105.143264,21.0711963 104.777278,20.8009625 C104.410593,20.5295808 104.117758,20.1870245 103.89784,19.7716865 C103.678388,19.3570372 103.568662,18.8422844 103.568662,18.228576 C103.568662,17.5609127 103.709838,16.9786588 103.994287,16.482044 C104.278037,15.986118 104.653341,15.5751423 105.120666,15.2502648 C105.587758,14.9258466 106.11845,14.6815571 106.713905,14.5192332 C107.308661,14.3571388 107.909008,14.2758621 108.513316,14.2758621 C109.392288,14.2758621 110.234685,14.438186 111.040739,14.7630634 C111.846561,15.0879409 112.487211,15.6293268 112.963854,16.3876803 L111.040739,17.8224218 Z" id="Fill-42" fill="#2A5780" mask="url(#mask-4)"></path>
                    <path d="M123.542372,17.05117 L120.092812,17.05117 L120.092812,23.1117173 C120.092812,23.4877227 120.101655,23.8587083 120.119568,24.2249131 C120.137255,24.5913571 120.204146,24.9202721 120.320243,25.2114194 C120.436112,25.5030447 120.614565,25.7377791 120.854694,25.9161008 C121.095731,26.0951396 121.447421,26.1840614 121.911126,26.1840614 C122.196152,26.1840614 122.490021,26.155855 122.793641,26.0994423 C123.096353,26.0432686 123.372762,25.9400045 123.622642,25.7894111 L123.622642,28.1006611 C123.337162,28.2701384 122.967332,28.3870276 122.512923,28.4530018 C122.058288,28.518737 121.705917,28.5517241 121.456718,28.5517241 C120.529534,28.5517241 119.812548,28.4152339 119.304172,28.1429707 C118.796251,27.8707074 118.421885,27.5183666 118.181076,27.0857095 C117.940493,26.6540084 117.797413,26.1699582 117.753424,25.6345151 C117.7083,25.0988329 117.686759,24.558609 117.686759,24.0133653 L117.686759,17.05117 L114.90566,17.05117 L114.90566,14.8525065 L117.686759,14.8525065 L117.686759,11.1034483 L120.092812,11.1034483 L120.092812,14.8525065 L123.542372,14.8525065 L123.542372,17.05117 Z" id="Fill-43" fill="#2A5780" mask="url(#mask-4)"></path>
                    <path d="M130.301704,21.0172414 C130.301704,21.6672259 130.405624,22.266929 130.613224,22.8177283 C130.820584,23.3685276 131.113143,23.8375909 131.490903,24.2256071 C131.867703,24.6140825 132.329943,24.9205923 132.877142,25.1458254 C133.424342,25.3722064 134.037542,25.4844785 134.716981,25.4844785 C135.396421,25.4844785 136.00914,25.3722064 136.55658,25.1458254 C137.10354,24.9205923 137.565779,24.6140825 137.943059,24.2256071 C138.320339,23.8375909 138.613139,23.3685276 138.820739,22.8177283 C139.028098,22.266929 139.132258,21.6672259 139.132258,21.0172414 C139.132258,20.3672569 139.028098,19.7675538 138.820739,19.2167545 C138.613139,18.6664144 138.320339,18.197351 137.943059,17.8088757 C137.565779,17.4210891 137.10354,17.1143497 136.55658,16.8886574 C136.00914,16.6631947 135.396421,16.5500042 134.716981,16.5500042 C134.037542,16.5500042 133.424342,16.6631947 132.877142,16.8886574 C132.329943,17.1143497 131.867703,17.4210891 131.490903,17.8088757 C131.113143,18.197351 130.820584,18.6664144 130.613224,19.2167545 C130.405624,19.7675538 130.301704,20.3672569 130.301704,21.0172414 M127.584906,21.0172414 C127.584906,20.0788851 127.768986,19.2032083 128.136905,18.3906703 C128.505065,17.5785915 129.009545,16.8659275 129.651064,16.252219 C130.292344,15.6387402 131.046903,15.1556715 131.915463,14.8037018 C132.782582,14.4517321 133.716662,14.2758621 134.716981,14.2758621 C135.71658,14.2758621 136.6509,14.4517321 137.518499,14.8037018 C138.386579,15.1556715 139.141138,15.6387402 139.782898,16.252219 C140.423938,16.8659275 140.928897,17.5785915 141.296817,18.3906703 C141.664977,19.2032083 141.849057,20.0788851 141.849057,21.0172414 C141.849057,21.9560569 141.664977,22.8356367 141.296817,23.6568994 C140.928897,24.4783916 140.423938,25.1910556 139.782898,25.7958099 C139.141138,26.4005641 138.386579,26.8788112 137.518499,27.2307809 C136.6509,27.5827506 135.71658,27.7586207 134.716981,27.7586207 C133.716662,27.7586207 132.782582,27.5827506 131.915463,27.2307809 C131.046903,26.8788112 130.292344,26.4005641 129.651064,25.7958099 C129.009545,25.1910556 128.505065,24.4783916 128.136905,23.6568994 C127.768986,22.8356367 127.584906,21.9560569 127.584906,21.0172414" id="Fill-44" fill="#2A5780" mask="url(#mask-4)"></path>
                    <path d="M145.018868,14.6085199 L147.62179,14.6085199 L147.62179,16.6338745 L147.679916,16.6338745 C147.853068,16.2828663 148.084592,15.9638536 148.373996,15.6766009 C148.662665,15.3902894 148.985915,15.1451483 149.34252,14.9418835 C149.69937,14.7381482 150.08982,14.5765245 150.513871,14.4560713 C150.938168,14.3360887 151.362218,14.2758621 151.786269,14.2758621 C152.21032,14.2758621 152.596111,14.3313835 152.943396,14.442191 L152.827634,17.1330965 C152.615486,17.0778103 152.403338,17.0319346 152.19119,16.994293 C151.978797,16.9575924 151.767139,16.9387716 151.554991,16.9387716 C150.282838,16.9387716 149.308919,17.2813104 148.63397,17.9659174 C147.95902,18.6500539 147.62179,19.7131944 147.62179,21.1560449 L147.62179,27.7586207 L145.018868,27.7586207 L145.018868,14.6085199 Z" id="Fill-45" fill="#2A5780" mask="url(#mask-4)"></path>
                    <path d="M154.528302,15.0689655 L157.465835,15.0689655 L161.429649,25.3437611 L161.486651,25.3437611 L165.288799,15.0689655 L168,15.0689655 L161.645683,31.0639908 C161.420308,31.6376386 161.185833,32.1611276 160.942016,32.6328093 C160.698439,33.1054329 160.40768,33.5078813 160.070696,33.8408607 C159.732754,34.1745467 159.324876,34.4333476 158.846584,34.6184409 C158.368292,34.8032986 157.78294,34.8965517 157.089093,34.8965517 C156.713788,34.8965517 156.334172,34.873003 155.949527,34.8268474 C155.56536,34.7806918 155.195085,34.6831999 154.83918,34.5350782 L155.147663,32.2581485 C155.652301,32.4613743 156.158136,32.5635759 156.663253,32.5635759 C157.056281,32.5635759 157.387757,32.5122396 157.659356,32.4112154 C157.930236,32.3087783 158.164233,32.1611276 158.360627,31.9663793 C158.557261,31.7723375 158.721083,31.5453275 158.851853,31.2865266 C158.982862,31.0267837 159.113872,30.7307758 159.244642,30.3980318 L160.068061,28.3151439 L154.528302,15.0689655 Z" id="Fill-46" fill="#2A5780" mask="url(#mask-4)"></path>
                </g>
            </g>
        </g>
    </g>
</svg>