<?xml version="1.0" encoding="UTF-8"?>
<svg width="165px" height="45px" viewBox="0 0 165 45" version="1.1" xmlns="http://www.w3.org/2000/svg" xmlns:xlink="http://www.w3.org/1999/xlink">
    <!-- Generator: sketchtool 52.6 (67491) - http://www.bohemiancoding.com/sketch -->
    <title>28F3BB70-9229-4F5D-AEBB-FD550239F9C3@SVG</title>
    <desc>Created with sketchtool.</desc>
    <defs>
        <polygon id="path-1" points="0 44.7676364 164.389932 44.7676364 164.389932 0 0 0"></polygon>
    </defs>
    <g id="Dashboard" stroke="none" stroke-width="1" fill="none" fill-rule="evenodd">
        <g id="CREATE-TOUR-2---3" transform="translate(-180.000000, -7.000000)">
            <g id="bar" transform="translate(0.000000, -1.000000)">
                <g id="Group-27" transform="translate(-13.000000, 0.000000)">
                    <g id="Logo" transform="translate(193.000000, 8.000000)">
                        <path d="M11.0785652,27.7985455 L11.0785652,11.6697273 C9.3303252,11.3710909 7.53974309,11.1542727 5.70844742,11.043 L5.70844742,32.5341818 C11.6200555,32.8925455 17.1489561,34.2679091 21.9873549,36.4295455 C19.1300777,32.7395455 15.3917591,29.7572727 11.0785652,27.7985455" id="Fill-1" fill="#21A3D0"></path>
                        <path d="M40.3811687,8.41385455 L38.1557658,10.7833091 L38.1557658,22.3237636 L38.1557658,27.7982182 C33.8425719,29.7569455 30.1050676,32.7392182 27.2469761,36.4292182 C32.0853749,34.2684 37.6142755,32.8922182 43.5258836,32.5338545 L43.5258836,19.4789455 L43.5258836,11.0434909 L40.3811687,8.41385455 Z" id="Fill-3" fill="#21A3D0"></path>
                        <path d="M4.94368402,33.3029455 L4.94368402,18.4856727 C3.24267173,18.9487636 1.58725862,19.4634 0.000244281325,20.0418545 L0.000244281325,41.4315818 C6.41018624,39.0932182 13.8135389,37.6753091 21.7290681,37.4404909 C16.7693429,35.1446727 11.0661883,33.6735818 4.94368402,33.3029455" id="Fill-5" fill="#EDEDEE"></path>
                        <path d="M44.2903213,18.4861636 L44.2903213,20.2468909 L44.2903213,33.3026182 C38.8176053,33.6348 33.0338378,35.4978 28.3639932,37.4876182 C35.9546282,37.7952545 43.0583291,39.1788 49.2345753,41.4312545 L49.2345753,20.0415273 C47.6467467,19.4630727 45.9929621,18.9476182 44.2903213,18.4861636" id="Fill-7" fill="#EDEDEE"></path>
                        <path d="M11.8435729,5.42560909 C16.812255,7.6797 21.0220365,11.2846091 23.9973831,15.7723364 L23.9973831,37.3919727 C21.0228508,32.8993364 16.8138836,29.2862455 11.8435729,27.0305182 L11.8435729,5.42560909 Z" id="Fill-9" fill="#EDEDEE"></path>
                        <path d="M31.8504577,3.31625455 L31.8504577,5.67998182 C30.3505703,6.81398182 28.9630524,8.08625455 27.7172177,9.4878 L27.7172177,12.6034364 C26.8166338,13.6147091 25.9877059,14.6889818 25.2369479,15.8213455 L25.2369479,37.3918909 C28.2114802,32.8992545 32.4212617,29.2861636 37.3915724,27.0304364 L37.3915724,21.5559818 L37.3915724,6.16516364 L37.3915724,0.000163636364 C35.4112651,0.897709091 33.5596127,2.01861818 31.8504577,3.31625455" id="Fill-11" fill="#EDEDEE"></path>
                        <path d="M62.2671468,30.7389273 L62.2671468,35.8386545 L64.7425309,35.8386545 C65.4362899,35.8386545 65.9631233,35.6251091 66.3222168,35.1963818 C66.6829389,34.7676545 66.8628928,34.1605636 66.8628928,33.3734727 C66.8628928,31.6610182 66.2391611,30.7822909 64.9933264,30.7389273 L62.2671468,30.7389273 Z M62.2671468,27.9325636 L64.2816535,27.9325636 C65.800269,27.9325636 66.5591697,27.1495636 66.5591697,25.5852 C66.5591697,24.7212 66.3841014,24.0993818 66.0331506,23.7238364 C65.6821997,23.3474727 65.1113957,23.1601091 64.3207385,23.1601091 L62.2671468,23.1601091 L62.2671468,27.9325636 Z M58.3952878,39.0385636 L58.3952878,19.9479273 L64.3207385,19.9479273 C66.3222168,19.9479273 67.8440895,20.3922 68.8839136,21.2782909 C69.9237378,22.1652 70.4448713,23.4661091 70.4448713,25.1802 C70.4448713,26.1505636 70.2290895,26.9851091 69.7991543,27.6838364 C69.3692192,28.3825636 68.7805012,28.8939273 68.0346289,29.2179273 C68.8953134,29.4617455 69.5573158,29.9534727 70.0230789,30.6922909 C70.4888419,31.4311091 70.7209092,32.3425636 70.7209092,33.4266545 C70.7209092,35.2798364 70.2095469,36.6781091 69.1868225,37.6214727 C68.164098,38.5656545 66.6829389,39.0385636 64.7425309,39.0385636 L58.3952878,39.0385636 Z" id="Fill-13" fill="#EDEDEE"></path>
                        <path d="M80.3464891,37.7406 C79.5737458,38.7805091 78.537993,39.3008727 77.2392306,39.3008727 C75.930697,39.3008727 74.9389148,38.8516909 74.2630698,37.9566 C73.5864105,37.0598727 73.2493023,35.7556909 73.2493023,34.0416 L73.2493023,24.8509636 L76.9754068,24.8509636 L76.9754068,34.1348727 C76.9933208,35.5151455 77.4533839,36.2056909 78.3580391,36.2056909 C79.2097666,36.2056909 79.823727,35.8391455 80.2015488,35.1044182 L80.2015488,24.8509636 L83.9545242,24.8509636 L83.9545242,39.0382364 L80.45153,39.0382364 L80.3464891,37.7406 Z" id="Fill-15" fill="#EDEDEE"></path>
                        <mask id="mask-2" fill="white">
                            <use xlink:href="#path-1"></use>
                        </mask>
                        <g id="Clip-18"></g>
                        <path d="M86.7858262,39.0385636 L90.524959,39.0385636 L90.524959,24.8512909 L86.7858262,24.8512909 L86.7858262,39.0385636 Z M86.614015,21.1792909 C86.614015,20.6032909 86.7988546,20.1320182 87.1677194,19.7638364 C87.5365842,19.3972909 88.0275896,19.2140182 88.6423643,19.2140182 C89.2563247,19.2140182 89.7481444,19.3972909 90.1170092,19.7638364 C90.485874,20.1320182 90.6707136,20.6032909 90.6707136,21.1792909 C90.6707136,21.7487455 90.4883168,22.2200182 90.1235234,22.5963818 C89.7587299,22.9719273 89.2652817,23.1601091 88.6423643,23.1601091 C88.0194469,23.1601091 87.5251844,22.9719273 87.1612052,22.5963818 C86.7964117,22.2200182 86.614015,21.7487455 86.614015,21.1792909 Z" id="Fill-17" fill="#EDEDEE" mask="url(#mask-2)"></path>
                        <polygon id="Fill-19" fill="#EDEDEE" mask="url(#mask-2)" points="93.5801041 39.0385636 97.3200512 39.0385636 97.3200512 18.8998364 93.5801041 18.8998364"></polygon>
                        <path d="M104.53604,21.3633818 L104.53604,24.8512909 L106.44632,24.8512909 L106.44632,27.6306545 L104.53604,27.6306545 L104.53604,34.6825636 C104.53604,35.2438364 104.612582,35.6292 104.765665,35.8378364 C104.919562,36.0481091 105.215956,36.1536545 105.656477,36.1536545 C106.014756,36.1536545 106.309523,36.1225636 106.537518,36.0612 L106.511462,38.9452909 C105.879587,39.1817455 105.194785,39.3012 104.457056,39.3012 C102.051699,39.3012 100.835992,37.9258364 100.809936,35.1783818 L100.809936,27.6306545 L99.1634795,27.6306545 L99.1634795,24.8512909 L100.809936,24.8512909 L100.809936,21.3633818 L104.53604,21.3633818 Z" id="Fill-20" fill="#EDEDEE" mask="url(#mask-2)"></path>
                        <path d="M117.182729,34.0292455 C117.182729,33.2511545 116.983232,32.6637 116.585054,32.2660636 C116.184432,31.8676091 115.458102,31.4552455 114.40525,31.0265182 C112.482756,30.3016091 111.099309,29.4515182 110.257353,28.4762455 C109.415397,27.5017909 108.99279,26.3497909 108.99279,25.0227 C108.99279,23.4133364 109.565223,22.1222455 110.711716,21.1477909 C111.857396,20.1733364 113.311684,19.6857 115.076209,19.6857 C116.252831,19.6857 117.301612,19.9327909 118.223367,20.4253364 C119.145936,20.9203364 119.853538,21.6166091 120.350243,22.5182455 C120.846134,23.4174273 121.094487,24.4409727 121.094487,25.5856091 L117.23647,25.5856091 C117.23647,24.6937909 117.044302,24.0147 116.663224,23.5458818 C116.282145,23.0795182 115.730883,22.8455182 115.011068,22.8455182 C114.334408,22.8455182 113.807575,23.0443364 113.431382,23.4427909 C113.05356,23.8396091 112.863835,24.3747 112.863835,25.0480636 C112.863835,25.5725182 113.075545,26.0470636 113.496523,26.4717 C113.917502,26.8947 114.663374,27.3340636 115.734955,27.7881545 C117.605335,28.4615182 118.963539,29.2878818 119.811196,30.2664273 C120.657223,31.2466091 121.081459,32.4902455 121.081459,34.0030636 C121.081459,35.6631545 120.54974,36.9624273 119.48793,37.8976091 C118.424492,38.8327909 116.981604,39.3007909 115.156008,39.3007909 C113.917502,39.3007909 112.788922,39.0471545 111.771083,38.5398818 C110.75243,38.0334273 109.955258,37.3077 109.381197,36.3635182 C108.806322,35.4185182 108.518884,34.3049727 108.518884,33.0204273 L112.402957,33.0204273 C112.402957,34.1208818 112.618739,34.9210636 113.048674,35.4185182 C113.479424,35.9176091 114.179697,36.1663364 115.156008,36.1663364 C116.507698,36.1663364 117.182729,35.4537 117.182729,34.0292455" id="Fill-21" fill="#21A3D0" mask="url(#mask-2)"></path>
                        <path d="M127.796834,21.3633818 L127.796834,24.8512909 L129.706299,24.8512909 L129.706299,27.6306545 L127.796834,27.6306545 L127.796834,34.6825636 C127.796834,35.2438364 127.874189,35.6292 128.026458,35.8378364 C128.180355,36.0481091 128.47675,36.1536545 128.915642,36.1536545 C129.27555,36.1536545 129.570316,36.1225636 129.798312,36.0612 L129.771441,38.9452909 C129.138752,39.1817455 128.454765,39.3012 127.717849,39.3012 C125.312492,39.3012 124.096786,37.9258364 124.070729,35.1783818 L124.070729,27.6306545 L122.423459,27.6306545 L122.423459,24.8512909 L124.070729,24.8512909 L124.070729,21.3633818 L127.796834,21.3633818 Z" id="Fill-22" fill="#21A3D0" mask="url(#mask-2)"></path>
                        <path d="M134.656905,32.4192273 C134.656905,34.9703182 135.337635,36.2450455 136.698282,36.2450455 C137.953074,36.2450455 138.629733,35.1814091 138.725817,33.0516818 L138.73966,31.4824091 C138.73966,30.1815 138.558892,29.2160455 138.198984,28.5868636 C137.839076,27.9593182 137.330157,27.6443182 136.672226,27.6443182 C136.039537,27.6443182 135.546089,27.9593182 135.189438,28.5868636 C134.834416,29.2160455 134.656905,30.1815 134.656905,31.4824091 L134.656905,32.4192273 Z M130.917772,31.4848636 C130.917772,29.3355 131.425877,27.6492273 132.44453,26.4244091 C133.463183,25.2012273 134.872686,24.5900455 136.672226,24.5900455 C138.488864,24.5900455 139.90651,25.2012273 140.924349,26.4244091 C141.943002,27.6492273 142.451922,29.3445 142.451922,31.5118636 L142.451922,32.4167727 C142.451922,34.5767727 141.947074,36.2630455 140.939006,37.4780455 C139.927681,38.6938636 138.514107,39.3009545 136.698282,39.3009545 C134.872686,39.3009545 133.451783,38.6905909 132.438016,37.4715 C131.424248,36.2515909 130.917772,34.5579545 130.917772,32.3905909 L130.917772,31.4848636 Z" id="Fill-23" fill="#21A3D0" mask="url(#mask-2)"></path>
                        <path d="M151.801952,28.4305909 L150.563446,28.3250455 C149.545607,28.3250455 148.856734,28.7717727 148.496012,29.6635909 L148.496012,39.0383182 L144.757693,39.0383182 L144.757693,24.8510455 L148.272901,24.8510455 L148.377128,26.3851364 C148.96666,25.1873182 149.779303,24.5900455 150.814241,24.5900455 C151.23522,24.5900455 151.578842,24.6465 151.841037,24.7602273 L151.801952,28.4305909 Z" id="Fill-24" fill="#21A3D0" mask="url(#mask-2)"></path>
                        <path d="M158.517327,32.8626818 L160.41295,24.8510455 L164.38985,24.8510455 L159.701277,41.1615 C159.00019,43.5661364 157.678628,44.7680455 155.739034,44.7680455 C155.291185,44.7680455 154.782266,44.6837727 154.211462,44.5193182 L154.211462,41.6205 L154.646283,41.6335909 C155.224415,41.6335909 155.661679,41.5231364 155.95563,41.2997727 C156.250397,41.0772273 156.471878,40.6894091 156.62089,40.1395909 L156.91077,39.1823182 L152.801959,24.8510455 L156.804915,24.8510455 L158.517327,32.8626818 Z" id="Fill-25" fill="#21A3D0" mask="url(#mask-2)"></path>
                        <path d="M46.873922,30.2299364 L46.873922,32.4038455 C46.477372,32.2794818 46.0743078,32.1551182 45.6704293,32.0364818 L45.6704293,29.8625727 C46.0743078,29.9803909 46.477372,30.1055727 46.873922,30.2299364" id="Fill-26" fill="#185060" mask="url(#mask-2)"></path>
                        <path d="M46.873922,21.5215364 L46.873922,23.6954455 C46.477372,23.5645364 46.0743078,23.4401727 45.6704293,23.3215364 L45.6704293,21.1541727 C46.0743078,21.2719909 46.477372,21.3971727 46.873922,21.5215364" id="Fill-27" fill="#185060" mask="url(#mask-2)"></path>
                        <path d="M35.93134,10.7765182 L35.93134,12.9316091 C35.522576,13.1623364 35.1195118,13.4053364 34.7286617,13.6540636 L34.7286617,11.4989727 C35.1195118,11.2494273 35.522576,11.0064273 35.93134,10.7765182" id="Fill-28" fill="#185060" mask="url(#mask-2)"></path>
                        <path d="M35.93134,19.6063364 L35.93134,21.7614273 C35.522576,21.9921545 35.1195118,22.2351545 34.7286617,22.4847 L34.7286617,20.3287909 C35.1195118,20.0792455 35.522576,19.8362455 35.93134,19.6063364" id="Fill-29" fill="#185060" mask="url(#mask-2)"></path>
                        <path d="M35.93134,6.47149091 L35.93134,8.6274 C35.522576,8.85730909 35.1195118,9.10030909 34.7286617,9.34985455 L34.7286617,7.19476364 C35.1195118,6.94521818 35.522576,6.70221818 35.93134,6.47149091 L28.3856412,-25.0776199" id="Fill-30" fill="#185060" mask="url(#mask-2)"></path>
                        <path d="M33.5259018,16.6252909 L33.5259018,18.7812 C33.1171378,19.0667455 32.7205877,19.3670182 32.3289234,19.6722 L32.3289234,17.5162909 C32.7205877,17.2111091 33.1171378,16.9124727 33.5259018,16.6252909" id="Fill-31" fill="#185060" mask="url(#mask-2)"></path>
                        <path d="M33.5259018,12.321 L33.5259018,14.4703636 C33.1171378,14.7567273 32.7205877,15.0561818 32.3289234,15.3613636 L32.3289234,13.212 C32.7205877,12.9068182 33.1171378,12.6016364 33.5259018,12.321" id="Fill-32" fill="#185060" mask="url(#mask-2)"></path>
                        <path d="M31.126815,18.5252727 L31.126815,20.6811818 C30.7115367,21.042 30.3149867,21.4159091 29.9241366,21.8020909 L29.9241366,19.6461818 C30.3149867,19.26 30.7115367,18.8860909 31.126815,18.5252727" id="Fill-33" fill="#185060" mask="url(#mask-2)"></path>
                        <path d="M31.126815,25.7091545 L31.126815,27.8650636 C30.7115367,28.2258818 30.3149867,28.5997909 29.9241366,28.9859727 L29.9241366,26.8308818 C30.3149867,26.4438818 30.7115367,26.0707909 31.126815,25.7091545" id="Fill-34" fill="#185060" mask="url(#mask-2)"></path>
                        <path d="M31.126815,9.91039091 L31.126815,12.0654818 C30.7115367,12.4271182 30.3149867,12.8002091 29.9241366,13.1872091 L29.9241366,11.0313 C30.3149867,10.6451182 30.7115367,10.2712091 31.126815,9.91039091" id="Fill-35" fill="#185060" mask="url(#mask-2)"></path>
                        <path d="M40.9839735,20.0385818 L40.9839735,21.9817636 C40.5809094,22.0259455 40.1786594,22.0750364 39.7812952,22.1249455 L39.7812952,20.1817636 C40.1786594,20.1253091 40.5809094,20.0754 40.9839735,20.0385818" id="Fill-36" fill="#21A3D0" mask="url(#mask-2)"></path>
                        <path d="M40.9839735,16.1451 L40.9839735,18.0948273 C40.5809094,18.1324636 40.1786594,18.1815545 39.7812952,18.2380091 L39.7812952,16.2882818 C40.1786594,16.2318273 40.5809094,16.1827364 40.9839735,16.1451" id="Fill-37" fill="#21A3D0" mask="url(#mask-2)"></path>
                        <path d="M40.9839735,12.2515364 L40.9839735,14.1955364 C40.5809094,14.2389 40.1786594,14.2888091 39.7812952,14.3387182 L39.7812952,12.3947182 C40.1786594,12.3382636 40.5809094,12.2891727 40.9839735,12.2515364" id="Fill-38" fill="#21A3D0" mask="url(#mask-2)"></path>
                    </g>
                </g>
            </g>
        </g>
    </g>
</svg>