<?xml version="1.0" encoding="UTF-8"?>
<svg width="42px" height="36px" viewBox="0 0 42 36" version="1.1" xmlns="http://www.w3.org/2000/svg" xmlns:xlink="http://www.w3.org/1999/xlink">
    <!-- Generator: sketchtool 53.2 (72643) - https://sketchapp.com -->
    <title>0DC2B86A-F1BA-48CA-99DB-AF6567066F1C@SVG</title>
    <desc>Created with sketchtool.</desc>
    <g id="Mobil-Website" stroke="none" stroke-width="1" fill="none" fill-rule="evenodd">
        <g id="Search-tour-details" transform="translate(-167.000000, -14.000000)">
            <g id="Group-27">
                <g transform="translate(0.000000, -8.000000)" id="Logo">
                    <g transform="translate(167.000000, 0.000000)">
                        <path d="M9.44936444,45.8869947 L9.44936444,32.1300615 C7.95821855,31.8753422 6.43095734,31.6904091 4.86896986,31.5955 L4.86896986,49.9262139 C9.91122379,50.231877 14.6270508,51.4049813 18.7539204,53.2487299 C16.316831,50.101377 13.1282651,47.5576738 9.44936444,45.8869947" id="Fill-1" fill="#21A3D0"></path>
                        <path d="M34.4427615,29.3529936 L32.5446238,31.3739989 L32.5446238,41.2173278 L32.5446238,45.8867155 C28.8657231,47.5573947 25.6778518,50.1010979 23.2400679,53.2484508 C27.3669374,51.4054 32.0827644,50.2315979 37.1250183,49.9259348 L37.1250183,38.7908652 L37.1250183,31.5959187 L34.4427615,29.3529936 Z" id="Fill-3" fill="#21A3D0"></path>
                        <path d="M4.21667167,50.5819241 L4.21667167,37.943662 C2.76580824,38.3386513 1.35383824,38.7776059 0.0002083576,39.2709936 L0.0002083576,57.5151727 C5.46751179,55.5206861 11.7821361,54.311293 18.5336169,54.111007 C14.3032631,52.1528091 9.43880766,50.8980551 4.21667167,50.5819241" id="Fill-5" fill="#EDEDEE"></path>
                        <path d="M37.7770387,37.9440807 L37.7770387,39.4458775 L37.7770387,50.5816449 C33.109134,50.8649765 28.1759205,52.4540059 24.1928177,54.1512037 C30.6671829,54.4135995 36.7262219,55.5936824 41.9941966,57.5148936 L41.9941966,39.2707144 C40.6398722,38.7773267 39.2292912,38.3376743 37.7770387,37.9440807" id="Fill-7" fill="#EDEDEE"></path>
                        <path d="M10.101871,26.804196 C14.3398646,28.7268029 17.9305606,31.8015783 20.4683561,35.6293457 L20.4683561,54.0696238 C17.9312551,50.2376693 14.3412536,47.1559152 10.101871,45.2319126 L10.101871,26.804196 Z" id="Fill-9" fill="#EDEDEE"></path>
                        <path d="M27.1665668,25.0050406 L27.1665668,27.021161 C25.8872512,27.9883963 24.70378,29.0735701 23.6411562,30.2690059 L23.6411562,32.9264604 C22.8730112,33.7890166 22.1659844,34.705308 21.5256321,35.6711476 L21.5256321,54.069554 C24.0627331,50.2375995 27.6534291,47.1558455 31.8928117,45.2318428 L31.8928117,40.5624551 L31.8928117,27.4349925 L31.8928117,22.1766102 C30.2037261,22.9421636 28.6243755,23.8982332 27.1665668,25.0050406" id="Fill-11" fill="#EDEDEE"></path>
                        <path d="M39.9806982,47.9608281 L39.9806982,49.8150447 C39.6424643,49.7089698 39.2986743,49.6028949 38.9541897,49.5017051 L38.9541897,47.6474885 C39.2986743,47.7479805 39.6424643,47.8547532 39.9806982,47.9608281" id="Fill-26" fill="#185060"></path>
                        <path d="M39.9806982,40.5330751 L39.9806982,42.3872917 C39.6424643,42.275634 39.2986743,42.1695591 38.9541897,42.0683693 L38.9541897,40.2197356 C39.2986743,40.3202275 39.6424643,40.4270003 39.9806982,40.5330751" id="Fill-27" fill="#185060"></path>
                        <path d="M30.6473195,31.3682067 L30.6473195,33.2063725 C30.2986677,33.4031693 29.9548777,33.610434 29.6215055,33.8225837 L29.6215055,31.9844179 C29.9548777,31.7715703 30.2986677,31.5643056 30.6473195,31.3682067" id="Fill-28" fill="#185060"></path>
                        <path d="M30.6473195,38.8995222 L30.6473195,40.737688 C30.2986677,40.9344848 29.9548777,41.1417495 29.6215055,41.3545971 L29.6215055,39.5157334 C29.9548777,39.3028858 30.2986677,39.0956211 30.6473195,38.8995222" id="Fill-29" fill="#185060"></path>
                        <path d="M30.6473195,27.6962717 L30.6473195,29.5351353 C30.2986677,29.7312342 29.9548777,29.9384989 29.6215055,30.1513465 L29.6215055,28.3131807 C29.9548777,28.1003332 30.2986677,27.8930684 30.6473195,27.6962717 L24.2112822,0.786735983" id="Fill-30" fill="#185060"></path>
                        <path d="M28.5956222,36.3568658 L28.5956222,38.1957294 C28.2469704,38.4392829 27.9087366,38.6953979 27.5746699,38.9557 L27.5746699,37.1168364 C27.9087366,36.8565342 28.2469704,36.601815 28.5956222,36.3568658" id="Fill-31" fill="#185060"></path>
                        <path d="M28.5956222,32.6855588 L28.5956222,34.5188396 C28.2469704,34.7630909 27.9087366,35.018508 27.5746699,35.2788102 L27.5746699,33.4455294 C27.9087366,33.1852273 28.2469704,32.9249251 28.5956222,32.6855588" id="Fill-32" fill="#185060"></path>
                        <path d="M26.5493422,37.9774385 L26.5493422,39.8163021 C26.1951342,40.1240588 25.8569004,40.4429813 25.5235282,40.7723717 L25.5235282,38.933508 C25.8569004,38.6041176 26.1951342,38.2851952 26.5493422,37.9774385" id="Fill-33" fill="#185060"></path>
                        <path d="M26.5493422,44.1048671 L26.5493422,45.9437307 C26.1951342,46.2514874 25.8569004,46.5704099 25.5235282,46.8998003 L25.5235282,45.0616345 C25.8569004,44.7315463 26.1951342,44.4133217 26.5493422,44.1048671" id="Fill-34" fill="#185060"></path>
                        <path d="M26.5493422,30.6294511 L26.5493422,32.4676168 C26.1951342,32.7760714 25.8569004,33.094296 25.5235282,33.4243842 L25.5235282,31.5855206 C25.8569004,31.2561302 26.1951342,30.9372078 26.5493422,30.6294511" id="Fill-35" fill="#185060"></path>
                        <path d="M34.9569186,39.2682021 L34.9569186,40.9256219 C34.6131286,40.9633064 34.2700331,41.0051781 33.9311047,41.0477476 L33.9311047,39.3903278 C34.2700331,39.3421754 34.6131286,39.2996059 34.9569186,39.2682021" id="Fill-36" fill="#21A3D0"></path>
                        <path d="M34.9569186,35.9472912 L34.9569186,37.6102939 C34.6131286,37.6423955 34.2700331,37.6842671 33.9311047,37.7324195 L33.9311047,36.0694168 C34.2700331,36.0212644 34.6131286,35.9793928 34.9569186,35.9472912" id="Fill-37" fill="#21A3D0"></path>
                        <path d="M34.9569186,32.6263104 L34.9569186,34.2844281 C34.6131286,34.3214147 34.2700331,34.3639842 33.9311047,34.4065537 L33.9311047,32.7484361 C34.2700331,32.7002837 34.6131286,32.658412 34.9569186,32.6263104" id="Fill-38" fill="#21A3D0"></path>
                    </g>
                </g>
            </g>
        </g>
    </g>
</svg>