<?xml version="1.0" encoding="UTF-8"?>
<svg width="159px" height="43px" viewBox="0 0 159 43" version="1.1" xmlns="http://www.w3.org/2000/svg" xmlns:xlink="http://www.w3.org/1999/xlink">
    <!-- Generator: sketchtool 52.5 (67469) - http://www.bohemiancoding.com/sketch -->
    <title>2BBE2EF8-A58E-442E-8DEF-0BB600F8CB91@SVG</title>
    <desc>Created with sketchtool.</desc>
    <defs>
        <polygon id="path-1" points="0 43 158.24 43 158.24 0 0 0"></polygon>
    </defs>
    <g id="Dashboard" stroke="none" stroke-width="1" fill="none" fill-rule="evenodd">
        <g id="My-Dashboard" transform="translate(-155.000000, -5.000000)">
            <g id="bar">
                <g id="Logo" transform="translate(155.000000, 5.000000)">
                    <path d="M10.2665726,26.2132036 L10.2665726,10.9144721 C8.60412965,10.6312054 6.90142257,10.425546 5.16,10.32 L5.16,30.7051154 C10.7814886,31.0450355 16.0390516,32.3496145 20.64,34.4 C17.9229472,30.8999098 14.3680912,28.0711229 10.2665726,26.2132036" id="Fill-1" fill="#21A3D0"></path>
                    <path d="M39.1496158,7.74 L37.0334274,9.994822 L37.0334274,20.9769574 L37.0334274,26.1865617 C32.9319088,28.0505271 29.3778271,30.8885196 26.66,34.4 C31.2609484,32.3437207 36.5185114,31.0341176 42.14,30.6930913 L42.14,18.2697696 L42.14,10.2424164 L39.1496158,7.74 Z" id="Fill-3" fill="#21A3D0"></path>
                    <path d="M4.69572569,31.94358 L4.69572569,18.06 C3.07995053,18.4939098 1.5074896,18.976117 0,19.5181209 L0,39.56 C6.08874199,37.3689856 13.1211152,36.0404243 20.64,35.8204029 C15.9288049,33.669253 10.5114334,32.2908611 4.69572569,31.94358" id="Fill-5" fill="#EDEDEE"></path>
                    <path d="M42.6141056,18.06 L42.6141056,19.709836 L42.6141056,31.9433084 C37.4273637,32.2545692 31.9458242,34.0002368 27.52,35.8647354 C34.7139901,36.1529967 41.4464906,37.4494059 47.3,39.56 L47.3,19.5174062 C45.7951426,18.975383 44.2277757,18.492392 42.6141056,18.06" id="Fill-7" fill="#EDEDEE"></path>
                    <path d="M11.18,5.16 C16.1021546,7.34312772 20.2725151,10.8345472 23.22,15.1809921 L23.22,36.12 C20.2733217,31.7688006 16.1037679,28.2694569 11.18,26.0847443 L11.18,5.16 Z" id="Fill-9" fill="#EDEDEE"></path>
                    <path d="M30.6311409,3.20330759 L30.6311409,5.48664231 C29.1453983,6.58207392 27.7709654,7.81107547 26.5368795,9.16495306 L26.5368795,12.1746238 C25.6447886,13.1515022 24.8236779,14.1892379 24.08,15.2830888 L24.08,36.12 C27.0264809,31.7801624 31.1965619,28.289956 36.12,26.1109481 L36.12,20.8226848 L36.12,5.95532264 L36.12,0 C34.1583681,0.867019102 32.3241777,1.94980504 30.6311409,3.20330759" id="Fill-11" fill="#EDEDEE"></path>
                    <path d="M59.6821365,29.1284318 L59.6821365,33.9528428 L62.1001586,33.9528428 C62.7778411,33.9528428 63.2924661,33.7508259 63.6432384,33.3452441 C63.9956015,32.9396623 64.1713853,32.3653461 64.1713853,31.6207474 C64.1713853,30.0007423 63.5621074,29.1694544 62.3451424,29.1284318 L59.6821365,29.1284318 Z M59.6821365,26.4735739 L61.649961,26.4735739 C63.1333857,26.4735739 63.8747004,25.7328453 63.8747004,24.2529362 C63.8747004,23.4355805 63.703689,22.8473321 63.3608707,22.492061 C63.0180525,22.1360159 62.4604757,21.9587674 61.6881403,21.9587674 L59.6821365,21.9587674 L59.6821365,26.4735739 Z M55.9,36.98 L55.9,18.92 L61.6881403,18.92 C63.6432384,18.92 65.1298448,19.340288 66.1455731,20.178542 C67.1613014,21.01757 67.6703587,22.2482475 67.6703587,23.8698007 C67.6703587,24.7877778 67.4595772,25.5772691 67.0396049,26.2382745 C66.6196327,26.89928 66.044557,27.3830369 65.3159688,27.6895453 C66.1567087,27.9202006 66.8033705,28.3853812 67.2583405,29.0843132 C67.7133104,29.7832452 67.94,30.6454935 67.94,31.6710582 C67.94,33.4241932 67.4404875,34.7469781 66.4414626,35.6394128 C65.4424377,36.5326216 63.9956015,36.98 62.1001586,36.98 L55.9,36.98 Z" id="Fill-13" fill="#EDEDEE"></path>
                    <path d="M77.3617981,36.3542223 C76.6168616,37.3444811 75.6183799,37.84 74.3663528,37.84 C73.1049061,37.84 72.1488127,37.4122643 71.4972876,36.5599094 C70.8449776,35.7059963 70.52,34.4640824 70.52,32.8318306 L70.52,24.08 L74.1120225,24.08 L74.1120225,32.92065 C74.1292919,34.2350218 74.5727999,34.8925972 75.4449015,34.8925972 C76.2659801,34.8925972 76.8578474,34.5435525 77.2220735,33.8439046 L77.2220735,24.08 L80.84,24.08 L80.84,37.5899032 L77.4630593,37.5899032 L77.3617981,36.3542223 Z" id="Fill-15" fill="#EDEDEE"></path>
                    <mask id="mask-2" fill="white">
                        <use xlink:href="#path-1"></use>
                    </mask>
                    <g id="Clip-18"></g>
                    <path d="M83.6021156,36.98 L87.5655038,36.98 L87.5655038,23.4400578 L83.6021156,23.4400578 L83.6021156,36.98 Z M83.42,19.9356021 C83.42,19.3858836 83.6159253,18.9361139 84.0069129,18.5847313 C84.3979004,18.2349104 84.9183541,18.06 85.57,18.06 C86.2207828,18.06 86.7420996,18.2349104 87.1330871,18.5847313 C87.5240747,18.9361139 87.72,19.3858836 87.72,19.9356021 C87.72,20.4790739 87.526664,20.9288436 87.139992,21.2880347 C86.75332,21.6464449 86.230277,21.8260404 85.57,21.8260404 C84.909723,21.8260404 84.3858169,21.6464449 84.000008,21.2880347 C83.613336,20.9288436 83.42,20.4790739 83.42,19.9356021 Z" id="Fill-17" fill="#EDEDEE" mask="url(#mask-2)"></path>
                    <polygon id="Fill-19" fill="#EDEDEE" mask="url(#mask-2)" points="90.3 36.98 93.74 36.98 93.74 18.06 90.3 18.06"></polygon>
                    <path d="M100.472615,20.64 L100.472615,23.9844444 L102.254912,23.9844444 L102.254912,26.6494873 L100.472615,26.6494873 L100.472615,33.4113373 C100.472615,33.9495238 100.544028,34.3190367 100.686855,34.5190914 C100.830442,34.7207152 101.106979,34.8219194 101.517986,34.8219194 C101.852261,34.8219194 102.127279,34.7921073 102.34,34.7332677 L102.315689,37.4987302 C101.726148,37.7254589 101.087226,37.84 100.398922,37.84 C98.1547173,37.84 97.0204594,36.5212078 96.9961484,33.8867615 L96.9961484,26.6494873 L95.46,26.6494873 L95.46,23.9844444 L96.9961484,23.9844444 L96.9961484,20.64 L100.472615,20.64 Z" id="Fill-20" fill="#EDEDEE" mask="url(#mask-2)"></path>
                    <path d="M112.354846,32.7552599 C112.354846,32.0047418 112.163846,31.4381046 111.782626,31.0545591 C111.399068,30.6702244 110.703673,30.2724735 109.695662,29.8589389 C107.855048,29.159718 106.530523,28.3397514 105.724426,27.399039 C104.918329,26.4591157 104.513722,25.3479386 104.513722,24.0678752 C104.513722,22.5155418 105.061774,21.2702027 106.159438,20.3302795 C107.256322,19.3903562 108.648671,18.92 110.338045,18.92 C111.464553,18.92 112.468666,19.1583349 113.351163,19.6334262 C114.234439,20.1108851 114.911904,20.7824844 115.387454,21.6521699 C115.862225,22.5194878 116.1,23.5067623 116.1,24.6108367 L112.406299,24.6108367 C112.406299,23.7506215 112.222315,23.0955952 111.857467,22.6433903 C111.492618,22.193553 110.964836,21.9678452 110.275677,21.9678452 C109.627837,21.9678452 109.123442,22.1596179 108.763271,22.5439526 C108.401541,22.9267089 108.219896,23.4428381 108.219896,24.09234 C108.219896,24.5982097 108.42259,25.0559389 108.825638,25.4655277 C109.228687,25.873538 109.942792,26.2973321 110.968733,26.7353316 C112.759454,27.3848336 114.059811,28.1819137 114.871365,29.1257829 C115.68136,30.0712305 116.087527,31.2707967 116.087527,32.7300058 C116.087527,34.3312689 115.578454,35.5844999 114.561867,36.4865421 C113.543722,37.3885843 112.162287,37.84 110.414444,37.84 C109.228687,37.84 108.148174,37.5953516 107.173686,37.1060549 C106.198418,36.6175473 105.435198,35.9175373 104.885587,35.006814 C104.335196,34.0953016 104.06,33.0212163 104.06,31.7821907 L107.778648,31.7821907 C107.778648,32.843649 107.98524,33.6154751 108.396864,34.0953016 C108.809267,34.5767064 109.479715,34.8166197 110.414444,34.8166197 C111.708565,34.8166197 112.354846,34.1292367 112.354846,32.7552599" id="Fill-21" fill="#21A3D0" mask="url(#mask-2)"></path>
                    <path d="M122.832821,20.64 L122.832821,23.9844444 L124.614161,23.9844444 L124.614161,26.6494873 L122.832821,26.6494873 L122.832821,33.4113373 C122.832821,33.9495238 122.904986,34.3190367 123.047038,34.5190914 C123.190608,34.7207152 123.467115,34.8219194 123.876557,34.8219194 C124.212315,34.8219194 124.487303,34.7921073 124.7,34.7332677 L124.674932,37.4987302 C124.084697,37.7254589 123.446605,37.84 122.759137,37.84 C120.515179,37.84 119.381047,36.5212078 119.356738,33.8867615 L119.356738,26.6494873 L117.82,26.6494873 L117.82,23.9844444 L119.356738,23.9844444 L119.356738,20.64 L122.832821,20.64 Z" id="Fill-22" fill="#21A3D0" mask="url(#mask-2)"></path>
                    <path d="M129.184325,30.5431057 C129.184325,32.9292948 129.844154,34.121624 131.163023,34.121624 C132.379287,34.121624 133.03517,33.1267408 133.128304,31.1346785 L133.141721,29.6668432 C133.141721,28.4500245 132.966503,27.5469766 132.617646,26.958465 C132.268789,26.3714839 131.775496,26.0768454 131.137766,26.0768454 C130.524504,26.0768454 130.046207,26.3714839 129.700507,26.958465 C129.356385,27.5469766 129.184325,28.4500245 129.184325,29.6668432 L129.184325,30.5431057 Z M125.56,29.669139 C125.56,27.6587097 126.052504,26.0814372 127.03988,24.9357909 C128.027256,23.7916752 129.393481,23.22 131.137766,23.22 C132.898626,23.22 134.272744,23.7916752 135.259331,24.9357909 C136.246707,26.0814372 136.74,27.6671279 136.74,29.6943938 L136.74,30.5408098 C136.74,32.561188 136.250653,34.1384605 135.273538,35.2749232 C134.293265,36.4121513 132.923094,36.98 131.163023,36.98 C129.393481,36.98 128.016206,36.4090901 127.033566,35.2688009 C126.050926,34.1277464 125.56,32.5435862 125.56,30.5163204 L125.56,29.669139 Z" id="Fill-23" fill="#21A3D0" mask="url(#mask-2)"></path>
                    <path d="M146.162037,26.8775933 L144.959085,26.7770757 C143.970466,26.7770757 143.301368,27.2025222 142.951001,28.0518568 L142.951001,36.98 L139.32,36.98 L139.32,23.4685667 L142.734296,23.4685667 L142.835531,24.9295781 C143.408139,23.7888204 144.197453,23.22 145.202681,23.22 C145.611574,23.22 145.945332,23.2737652 146.2,23.3820749 L146.162037,26.8775933 Z" id="Fill-24" fill="#21A3D0" mask="url(#mask-2)"></path>
                    <path d="M152.574189,31.690592 L154.403086,24.08 L158.24,24.08 L153.716464,39.5739901 C153.040055,41.8582558 151.765012,43 149.893691,43 C149.461606,43 148.970601,42.9199458 148.419889,42.7637235 L148.419889,40.0100136 L148.839404,40.0224492 C149.397186,40.0224492 149.819058,39.9175237 150.102663,39.7053412 C150.387054,39.4939358 150.600739,39.125531 150.744506,38.6032354 L151.024182,37.6938816 L147.06,24.08 L150.922053,24.08 L152.574189,31.690592 Z" id="Fill-25" fill="#21A3D0" mask="url(#mask-2)"></path>
                    <path d="M44.72,28.752962 L44.72,30.96 C44.4366306,30.8337411 44.1486062,30.7074823 43.86,30.587038 L43.86,28.38 C44.1486062,28.4996137 44.4366306,28.6267032 44.72,28.752962" id="Fill-26" fill="#185060" mask="url(#mask-2)"></path>
                    <path d="M44.72,20.152962 L44.72,22.36 C44.4366306,22.2270959 44.1486062,22.1008371 43.86,21.9803928 L43.86,19.78 C44.1486062,19.8996137 44.4366306,20.0267032 44.72,20.152962" id="Fill-27" fill="#185060" mask="url(#mask-2)"></path>
                    <path d="M34.4,10.32 L34.4,12.2522491 C34.1077048,12.4591186 33.8194854,12.6769918 33.54,12.9 L33.54,10.9677509 C33.8194854,10.7440091 34.1077048,10.5261359 34.4,10.32" id="Fill-28" fill="#185060" mask="url(#mask-2)"></path>
                    <path d="M34.4,18.92 L34.4,20.8516998 C34.1077048,21.0585105 33.8194854,21.2763218 33.54,21.5 L33.54,19.5675668 C33.8194854,19.3438886 34.1077048,19.1260773 34.4,18.92" id="Fill-29" fill="#185060" mask="url(#mask-2)"></path>
                    <path d="M34.4,5.86773674 L34.4,7.9142159 C34.027298,8.13245523 33.6597931,8.36312101 33.3034247,8.6 L33.3034247,6.55429749 C33.6597931,6.3174185 34.027298,6.08675272 34.4,5.86773674 L27.52,-24.08" id="Fill-30" fill="#185060" mask="url(#mask-2)"></path>
                    <path d="M31.82,16.34 L31.82,18.1655371 C31.5263129,18.4073255 31.2414014,18.6615843 30.96,18.92 L30.96,17.0944629 C31.2414014,16.8360473 31.5263129,16.583174 31.82,16.34" id="Fill-31" fill="#185060" mask="url(#mask-2)"></path>
                    <path d="M31.82,12.04 L31.82,13.8639128 C31.5263129,14.106916 31.2414014,14.361028 30.96,14.62 L30.96,12.7960872 C31.2414014,12.5371152 31.5263129,12.2781432 31.82,12.04" id="Fill-32" fill="#185060" mask="url(#mask-2)"></path>
                    <path d="M30.1,17.2 L30.1,19.4632709 C29.8030467,19.8420574 29.5194854,20.2345868 29.24,20.64 L29.24,18.3767291 C29.5194854,17.9713159 29.8030467,17.5787865 30.1,17.2" id="Fill-33" fill="#185060" mask="url(#mask-2)"></path>
                    <path d="M30.1,24.08 L30.1,26.3432709 C29.8030467,26.7220574 29.5194854,27.1145868 29.24,27.52 L29.24,25.257588 C29.5194854,24.8513159 29.8030467,24.4596454 30.1,24.08" id="Fill-34" fill="#185060" mask="url(#mask-2)"></path>
                    <path d="M30.1,9.46 L30.1,11.722412 C29.8030467,12.1020574 29.5194854,12.4937278 29.24,12.9 L29.24,10.6367291 C29.5194854,10.2313159 29.8030467,9.83878652 30.1,9.46" id="Fill-35" fill="#185060" mask="url(#mask-2)"></path>
                    <path d="M39.56,18.92 L39.56,20.5219608 C39.2717806,20.5583843 38.9841435,20.5988549 38.7,20.64 L38.7,19.0380392 C38.9841435,18.991498 39.2717806,18.9503529 39.56,18.92" id="Fill-36" fill="#21A3D0" mask="url(#mask-2)"></path>
                    <path d="M39.56,15.48 L39.56,17.0823299 C39.2717806,17.1132604 38.9841435,17.1536044 38.7,17.2 L38.7,15.5976701 C38.9841435,15.5512744 39.2717806,15.5109304 39.56,15.48" id="Fill-37" fill="#21A3D0" mask="url(#mask-2)"></path>
                    <path d="M39.56,12.04 L39.56,13.6420071 C39.2717806,13.6777421 38.9841435,13.718871 38.7,13.76 L38.7,12.1579929 C38.9841435,12.11147 39.2717806,12.0710153 39.56,12.04" id="Fill-38" fill="#21A3D0" mask="url(#mask-2)"></path>
                </g>
            </g>
        </g>
    </g>
</svg>