<?xml version="1.0" encoding="UTF-8"?>
<svg width="16px" height="25px" viewBox="0 0 16 25" version="1.1" xmlns="http://www.w3.org/2000/svg" xmlns:xlink="http://www.w3.org/1999/xlink">
    <!-- Generator: sketchtool 52.5 (67469) - http://www.bohemiancoding.com/sketch -->
    <title>F09CE6BE-D578-4965-A857-06E3CF2548A3@3x</title>
    <desc>Created with sketchtool.</desc>
    <g id="Dashboard" stroke="none" stroke-width="1" fill="none" fill-rule="evenodd">
        <g id="Merchant-Dashboard" transform="translate(-113.000000, -341.000000)" fill="#8E8E8E">
            <g id="Dashboard/-open" transform="translate(55.000000, 79.000000)">
                <g id="Group" transform="translate(58.000000, 262.500000)">
                    <g id="Group-13">
                        <path d="M12.0000143,7.99998331 C12.0000143,5.79685568 10.2031372,3.99997854 8.00000954,3.99997854 C5.79688191,3.99997854 4.00000477,5.79685568 4.00000477,7.99998331 C4.00000477,10.2031109 5.79688191,11.9999881 8.00000954,11.9999881 C10.2031372,11.9999881 12.0000143,10.2031109 12.0000143,7.99998331 Z M16.0000191,7.99998331 C16.0000191,8.95310945 15.8906439,9.93748562 15.4843935,10.7968616 L9.79688668,22.8906261 C9.46876129,23.5781269 8.75001043,24.0000024 8.00000954,24.0000024 C7.25000864,24.0000024 6.53125779,23.5781269 6.21875741,22.8906261 L0.515625615,10.7968616 C0.10937513,9.93748562 0,8.95310945 0,7.99998331 C0,3.57810304 3.57812927,-2.62260437e-05 8.00000954,-2.62260437e-05 C12.4218898,-2.62260437e-05 16.0000191,3.57810304 16.0000191,7.99998331 Z" id="ï"></path>
                    </g>
                </g>
            </g>
        </g>
    </g>
</svg>