<?xml version="1.0" encoding="UTF-8"?>
<svg width="39px" height="39px" viewBox="0 0 39 39" version="1.1" xmlns="http://www.w3.org/2000/svg" xmlns:xlink="http://www.w3.org/1999/xlink">
    <!-- Generator: sketchtool 52.5 (67469) - http://www.bohemiancoding.com/sketch -->
    <title>518B88E0-6D8C-4CDB-802E-C483CF732006</title>
    <desc>Created with sketchtool.</desc>
    <g id="Dashboard" stroke="none" stroke-width="1" fill="none" fill-rule="evenodd">
        <g id="My-journal-Copy-5" transform="translate(-450.000000, -777.000000)">
            <g id="Group-4" transform="translate(469.500000, 796.500000) rotate(-360.000000) translate(-469.500000, -796.500000) translate(450.000000, 777.000000)">
                <path d="M19.3749538,0 C22.8645292,0 26.0936878,0.872394151 29.0624307,2.61718126 C32.0311736,4.36196837 34.3879392,6.71873398 36.1327264,9.6874769 C37.8775135,12.6562198 38.7499076,15.8853784 38.7499076,19.3749538 C38.7499076,22.8645292 37.8775135,26.0936878 36.1327264,29.0624307 C34.3879392,32.0311736 32.0311736,34.3879392 29.0624307,36.1327264 C26.0936878,37.8775135 22.8645292,38.7499076 19.3749538,38.7499076 C15.8853784,38.7499076 12.6562198,37.8775135 9.6874769,36.1327264 C6.71873398,34.3879392 4.36196837,32.0311736 2.61718126,29.0624307 C0.872394151,26.0936878 0,22.8645292 0,19.3749538 C0,15.8853784 0.872394151,12.6562198 2.61718126,9.6874769 C4.36196837,6.71873398 6.71873398,4.36196837 9.6874769,2.61718126 C12.6562198,0.872394151 15.8853784,0 19.3749538,0 Z" id="Path-Copy" fill="#008FB7"></path>
                <path d="M28.1562139,18.1718484 L17.5312392,7.5468737 C17.1666563,7.18229083 16.7239499,7 16.2031174,7 C15.6822849,7 15.2656196,7.18229083 14.9531203,7.5468737 L13.6249985,8.87499553 C13.2083332,9.29166081 13,9.74738968 13,10.2421798 C13,10.7369699 13.2083332,11.1666563 13.6249985,11.5312392 L21.5156047,19.4999702 L13.6249985,27.4687012 C13.2083332,27.8332841 13,28.2759905 13,28.796823 C13,29.3176555 13.2083332,29.760362 13.6249985,30.1249449 L14.9531203,31.3749419 C15.3177032,31.7916072 15.7473897,31.9999404 16.2421798,31.9999404 C16.7369699,31.9999404 17.1666563,31.8176496 17.5312392,31.4530667 L28.1562139,20.828092 C28.5207967,20.4635092 28.7030876,20.0208027 28.7030876,19.4999702 C28.7030876,18.9791377 28.5207967,18.5364312 28.1562139,18.1718484 Z" id="Path-Copy-2" fill="#FFFFFF"></path>
            </g>
        </g>
    </g>
</svg>