<?xml version="1.0" encoding="UTF-8"?>
<svg width="21px" height="19px" viewBox="0 0 21 19" version="1.1" xmlns="http://www.w3.org/2000/svg" xmlns:xlink="http://www.w3.org/1999/xlink">
    <!-- Generator: Sketch 53 (72520) - https://sketchapp.com -->
    <title>share@3x</title>
    <desc>Created with Sketch.</desc>
    <g id="Dashboard" stroke="none" stroke-width="1" fill="none" fill-rule="evenodd">
        <g id="SEARCH-TOUR-DETAILS" transform="translate(-611.000000, -82.000000)" fill="#0093BC" fill-rule="nonzero">
            <g id="Group-8">
                <g id="Group-18" transform="translate(469.000000, 71.500000)">
                    <g id="Group-5-Copy">
                        <g id="Group-3">
                            <g id="Group-16">
                                <g id="Group-17-Copy" transform="translate(129.000000, 0.000000)">
                                    <g id="Group-20" transform="translate(13.000000, 7.000000)">
                                        <path d="M20.1895395,9.80012529 C20.4004765,10.0344999 20.505945,10.3040302 20.505945,10.6087171 C20.505945,10.9134041 20.4004765,11.1829343 20.1895395,11.4173089 L14.5645529,17.0422955 C14.3301783,17.2532325 14.060648,17.358701 13.7559611,17.358701 C13.4512741,17.358701 13.1876029,17.2532325 12.9649474,17.0422955 C12.7422918,16.8313585 12.6309638,16.5618277 12.6309638,16.2337037 L12.6309638,13.7376159 C11.0606548,13.7610535 9.91222043,13.8899591 9.18565949,14.1243337 C8.38878621,14.3821454 7.89074088,14.8215975 7.69152242,15.44269 C7.49230397,16.0637824 7.5567573,16.9719832 7.88488134,18.1672928 C7.97863129,18.4954169 7.93761559,18.7942443 7.76183476,19.0637751 C7.58605392,19.3333059 7.33996076,19.5032272 7.02355527,19.5735395 C6.70714977,19.6438518 6.40832236,19.585258 6.12707303,19.3977587 C5.40051208,18.8586976 4.81457634,18.2258866 4.36926472,17.4993257 C3.68957902,16.4212031 3.3497359,15.2258934 3.3497359,13.9133967 C3.3497359,11.6165274 4.27551476,9.94074995 6.12707303,8.88606497 C7.60363201,8.0657546 9.77159577,7.62044298 12.6309638,7.55013065 L12.6309638,4.98373052 C12.6309638,4.65560648 12.7422918,4.3860757 12.9649474,4.1751387 C13.1876029,3.9642017 13.4512741,3.8587332 13.7559611,3.8587332 C14.060648,3.8587332 14.3301783,3.9642017 14.5645529,4.1751387 L20.1895395,9.80012529 Z M13.7559611,16.2337037 L19.3809477,10.6087171 L13.7559611,4.98373052 L13.7559611,8.6399718 C11.9044028,8.66340943 10.4161253,8.78059647 9.29112798,8.99153347 C7.7676943,9.27278279 6.61925935,9.76496912 5.8458237,10.4680924 C4.93176338,11.2884028 4.47473322,12.4368378 4.47473322,13.9133967 C4.47473322,14.9680817 4.72082638,15.9172982 5.21301271,16.7610462 C5.61144908,17.4172948 6.13879157,17.991512 6.79504019,18.4836983 C6.32629148,16.7727647 6.33801003,15.4719866 6.83019635,14.5813639 C7.27550797,13.7844906 8.1309745,13.233711 9.39659648,12.9290241 C10.3575315,12.6946495 11.8106534,12.5774624 13.7559611,12.5774624 L13.7559611,16.2337037 Z M15.0567392,18.0618243 C15.1270516,18.0149496 15.2090824,17.9563558 15.3028324,17.8860435 C15.4434571,17.7454188 15.5958003,17.7161222 15.7598626,17.7981531 C15.9239248,17.880184 16.0059557,18.0032306 16.0059557,18.1672928 L16.0059557,20.1711943 C16.0059557,20.639943 15.8418934,21.0383799 15.5137694,21.366504 C15.1856454,21.694628 14.7872085,21.8586903 14.3184597,21.8586903 L1.94348925,21.8586903 C1.47474055,21.8586903 1.07630364,21.694628 0.748179603,21.366504 C0.420055564,21.0383799 0.255993276,20.639943 0.255993276,20.1711943 L0.255993276,7.79622382 C0.255993276,7.32747511 0.420055564,6.9290382 0.748179603,6.60091417 C1.07630364,6.27279013 1.47474055,6.10872784 1.94348925,6.10872784 L7.99034984,6.10872784 C8.10753688,6.10872784 8.20714637,6.14974354 8.28917725,6.23177442 C8.37120812,6.3138053 8.41222383,6.40755525 8.41222383,6.51302375 C8.41222383,6.61849225 8.3829272,6.70638266 8.32433341,6.776695 C8.26573963,6.84700733 8.18956829,6.89388204 8.09581833,6.91731966 C7.74425667,7.01106962 7.42785118,7.10481903 7.14660185,7.19856899 C7.09972714,7.22200661 7.05285189,7.23372516 7.00597718,7.23372516 L1.94348925,7.23372516 C1.77942697,7.23372516 1.64466184,7.28645941 1.53919334,7.3919279 C1.43372484,7.4973964 1.38099059,7.63216153 1.38099059,7.79622382 L1.38099059,20.1711943 C1.38099059,20.3352566 1.43372484,20.4700217 1.53919334,20.5754902 C1.64466184,20.6809587 1.77942697,20.733693 1.94348925,20.733693 L14.3184597,20.733693 C14.482522,20.733693 14.6172872,20.6809587 14.7227557,20.5754902 C14.8282242,20.4700217 14.8809584,20.3352566 14.8809584,20.1711943 L14.8809584,18.413386 C14.8809584,18.2727613 14.9395522,18.1555743 15.0567392,18.0618243 Z" id="share"></path>
                                    </g>
                                </g>
                            </g>
                        </g>
                    </g>
                </g>
            </g>
        </g>
    </g>
</svg>