<?xml version="1.0" encoding="UTF-8"?>
<svg width="65px" height="64px" viewBox="0 0 65 64" version="1.1" xmlns="http://www.w3.org/2000/svg" xmlns:xlink="http://www.w3.org/1999/xlink">
    <!-- Generator: Sketch 52.6 (67491) - http://www.bohemiancoding.com/sketch -->
    <title>Group 2@3x</title>
    <desc>Created with Sketch.</desc>
    <defs>
        <circle id="path-1" cx="32" cy="32" r="32"></circle>
        <filter x="-2.3%" y="-2.3%" width="104.7%" height="104.7%" filterUnits="objectBoundingBox" id="filter-2">
            <feGaussianBlur stdDeviation="1.5" in="SourceAlpha" result="shadowBlurInner1"></feGaussianBlur>
            <feOffset dx="0" dy="0" in="shadowBlurInner1" result="shadowOffsetInner1"></feOffset>
            <feComposite in="shadowOffsetInner1" in2="SourceAlpha" operator="arithmetic" k2="-1" k3="1" result="shadowInnerInner1"></feComposite>
            <feColorMatrix values="0 0 0 0 0   0 0 0 0 0   0 0 0 0 0  0 0 0 0.112460371 0" type="matrix" in="shadowInnerInner1"></feColorMatrix>
        </filter>
        <polygon id="path-3" points="0 0.175746835 42.3925063 0.175746835 42.3925063 25.3417392 0 25.3417392"></polygon>
        <polygon id="path-5" points="0.219837716 0.0576278481 9.81022785 0.0576278481 9.81022785 7.56962025 0.219837716 7.56962025"></polygon>
    </defs>
    <g id="Dashboard" stroke="none" stroke-width="1" fill="none" fill-rule="evenodd">
        <g id="Tours-History" transform="translate(-755.000000, -208.000000)">
            <g id="Group-9" transform="translate(451.000000, 175.000000)">
                <g id="Group-11" transform="translate(304.500000, 33.000000)">
                    <g id="Group-12-Copy">
                        <g id="Group-2">
                            <g id="Group-15">
                                <g id="Group-18">
                                    <g id="Oval">
                                        <use fill="#F5F5F5" fill-rule="evenodd" xlink:href="#path-1"></use>
                                        <use fill="black" fill-opacity="1" filter="url(#filter-2)" xlink:href="#path-1"></use>
                                    </g>
                                    <g id="Group-9" transform="translate(33.800595, 33.097520) rotate(-44.000000) translate(-33.800595, -33.097520) translate(12.572747, 20.097520)">
                                        <g id="Group-3" transform="translate(0.000000, 0.153400)">
                                            <mask id="mask-4" fill="white">
                                                <use xlink:href="#path-3"></use>
                                            </mask>
                                            <g id="Clip-2"></g>
                                            <path d="M37.3211899,12.7587266 C37.3211899,9.95796709 39.5917468,7.68773924 42.3925063,7.68773924 L42.3925063,3.09956203 C42.3925063,1.4846 41.0836203,0.175713924 39.4683291,0.175713924 L2.9238481,0.175713924 C1.30921519,0.175713924 0,1.4846 0,3.09956203 L0,7.68773924 C2.80075949,7.68773924 5.07131646,9.95796709 5.07131646,12.7587266 C5.07131646,15.5594861 2.80075949,17.8297139 0,17.8297139 L0,22.4178911 C0,24.0328532 1.30921519,25.3417392 2.9238481,25.3417392 L39.4683291,25.3417392 C41.0836203,25.3417392 42.3925063,24.0328532 42.3925063,22.4178911 L42.3925063,17.8297139 C39.5917468,17.8297139 37.3211899,15.5594861 37.3211899,12.7587266" id="Fill-1" fill="#8CD2E8" mask="url(#mask-4)"></path>
                                        </g>
                                        <path d="M33.7128177,21.5314557 L8.67942532,21.5314557 C7.57327342,21.5314557 6.67676709,20.6346203 6.67676709,19.5287975 L6.67676709,6.2954557 C6.67676709,5.18963291 7.57327342,4.29279747 8.67942532,4.29279747 L33.7128177,4.29279747 C34.8189696,4.29279747 35.7158051,5.18963291 35.7158051,6.2954557 L35.7158051,19.5287975 C35.7158051,20.6346203 34.8189696,21.5314557 33.7128177,21.5314557" id="Fill-4" fill="#4090B9"></path>
                                        <g id="Group-8" transform="translate(32.582278, 17.925552)">
                                            <mask id="mask-6" fill="white">
                                                <use xlink:href="#path-5"></use>
                                            </mask>
                                            <g id="Clip-7"></g>
                                            <path d="M9.81029367,0.0576278481 C9.81029367,0.0576278481 9.55128101,5.97377975 0.323913924,7.33005823 C0.175812658,7.35177975 0.189964557,7.56965316 0.339711392,7.56965316 L6.95950886,7.56965316 C8.53398987,7.56965316 9.81029367,6.29334937 9.81029367,4.71886835 L9.81029367,0.0576278481 Z" id="Fill-6" fill="#4090B9" mask="url(#mask-6)"></path>
                                        </g>
                                    </g>
                                </g>
                            </g>
                        </g>
                    </g>
                </g>
            </g>
        </g>
    </g>
</svg>