<?xml version="1.0" encoding="UTF-8" standalone="no"?>
<!-- Created with Keyshape -->
<svg xmlns="http://www.w3.org/2000/svg" xmlns:xlink="http://www.w3.org/1999/xlink" id="BST" viewBox="0 0 1440 700" style="white-space: preserve-spaces;">
    <style>
@keyframes BST9_Tks_t { 0% { transform: translate(480.994px,-79.447px); } 100% { transform: translate(299.109px,-79.447px); } }
@keyframes BST9_Tks_o { 0% { opacity: 0; } 19.6429% { opacity: 1; animation-timing-function: steps(1, start); } 82.1429% { opacity: 1; } 93.75% { opacity: 0; } 100% { opacity: 0; } }
@keyframes BST7_Tks_t { 0% { transform: translate(-479.2px,-15px); } 90.1785% { transform: translate(-556.6px,-15px); } 100% { transform: translate(-556.6px,-15px); } }
@keyframes BST7_Tks_o { 0% { opacity: 0; } 14.2857% { opacity: 1; } 80.3571% { opacity: 1; } 90.1786% { opacity: 0; } 100% { opacity: 0; } }
@keyframes BST6_Tks_t { 0% { transform: translate(488.2px,95.8px); } 96.4285% { transform: translate(232.128px,95.8px); } 100% { transform: translate(232.128px,95.8px); } }
@keyframes BST6_Tks_o { 0% { opacity: 0; } 20.5357% { opacity: 1; } 79.4643% { opacity: 1; } 92.8571% { opacity: 0; } 100% { opacity: 0; } }
@keyframes BST5-2_Tks_t { 0% { transform: translate(-651.092px,0px); } 93.75% { transform: translate(-975.994px,0px); } 100% { transform: translate(-975.994px,0px); } }
@keyframes BST5-2_Tks_o { 0% { opacity: 0; } 21.4286% { opacity: 1; } 80.3571% { opacity: 1; } 93.75% { opacity: 0; } 100% { opacity: 0; } }
@keyframes BSTtrr_Tks_d { 0% { d: path('M812.9,386.5C832.2,386.5,847.9,402.2,847.9,421.5C847.9,442.5,847.9,484.6,847.9,505.6C847.9,524.9,832.2,540.6,812.9,540.6L812.9,540.6C793.6,540.6,777.9,524.9,777.9,505.6C777.9,484.6,777.9,442.5,777.9,421.5C777.9,402.2,793.6,386.5,812.9,386.5Z'); animation-timing-function: cubic-bezier(0.59,0.25,0.25,1); } 15.1786% { d: path('M800.5,386.5C819.8,386.5,831.6,399,837.5,421.5C842.6,443.5,847.9,470.5,847.9,505.6C847.9,524.9,832.2,540.6,812.9,540.6L812.9,540.6C793.6,540.6,777.9,527,777.9,505.6C777.9,480.5,772.6,450,768.5,426.5C764.5,403.5,781.2,386.5,800.5,386.5Z'); animation-timing-function: cubic-bezier(0.43,0,0.33,1); } 31.25% { d: path('M812.9,386.5C832.2,386.5,847.9,402.2,847.9,421.5C847.9,442.5,847.9,484.6,847.9,505.6C847.9,524.9,832.2,540.6,812.9,540.6L812.9,540.6C793.6,540.6,777.9,524.9,777.9,505.6C777.9,484.6,777.9,442.5,777.9,421.5C777.9,402.2,793.6,386.5,812.9,386.5Z'); animation-timing-function: cubic-bezier(0.59,0.25,0.25,1); } 46.4286% { d: path('M800.5,386.5C819.8,386.5,831.6,399,837.5,421.5C842.6,443.5,847.9,470.5,847.9,505.6C847.9,524.9,832.2,540.6,812.9,540.6L812.9,540.6C793.6,540.6,777.9,527,777.9,505.6C777.9,480.5,772.6,450,768.5,426.5C764.5,403.5,781.2,386.5,800.5,386.5Z'); } 62.5% { d: path('M812.9,386.5C832.2,386.5,847.9,402.2,847.9,421.5C847.9,442.5,847.9,484.6,847.9,505.6C847.9,524.9,832.2,540.6,812.9,540.6L812.9,540.6C793.6,540.6,777.9,524.9,777.9,505.6C777.9,484.6,777.9,442.5,777.9,421.5C777.9,402.2,793.6,386.5,812.9,386.5Z'); animation-timing-function: cubic-bezier(0.59,0.25,0.25,1); } 77.6786% { d: path('M800.5,386.5C819.8,386.5,831.6,399,837.5,421.5C842.6,443.5,847.9,470.5,847.9,505.6C847.9,524.9,832.2,540.6,812.9,540.6L812.9,540.6C793.6,540.6,777.9,527,777.9,505.6C777.9,480.5,772.6,450,768.5,426.5C764.5,403.5,781.2,386.5,800.5,386.5Z'); animation-timing-function: cubic-bezier(0.43,0,0.33,1); } 93.75% { d: path('M812.9,386.5C832.2,386.5,847.9,402.2,847.9,421.5C847.9,442.5,847.9,484.6,847.9,505.6C847.9,524.9,832.2,540.6,812.9,540.6L812.9,540.6C793.6,540.6,777.9,524.9,777.9,505.6C777.9,484.6,777.9,442.5,777.9,421.5C777.9,402.2,793.6,386.5,812.9,386.5Z'); } 100% { d: path('M812.9,386.5C832.2,386.5,847.9,402.2,847.9,421.5C847.9,442.5,847.9,484.6,847.9,505.6C847.9,524.9,832.2,540.6,812.9,540.6L812.9,540.6C793.6,540.6,777.9,524.9,777.9,505.6C777.9,484.6,777.9,442.5,777.9,421.5C777.9,402.2,793.6,386.5,812.9,386.5Z'); } }
@keyframes BSTts1_Tks_d { 0% { d: path('M812.5,455.5C812.5,487.1,812.4,494,812.4,582'); animation-timing-function: cubic-bezier(0.59,0.25,0.25,1); } 15.1786% { d: path('M806.5,456.5C812.5,487,812.4,494,812.4,582'); animation-timing-function: cubic-bezier(0.43,0,0.33,1); } 31.25% { d: path('M812.5,455.5C812.5,487.1,812.4,494,812.4,582'); animation-timing-function: cubic-bezier(0.59,0.25,0.25,1); } 46.4286% { d: path('M806.5,456.5C812.5,487,812.4,494,812.4,582'); } 62.5% { d: path('M812.5,455.5C812.5,487.1,812.4,494,812.4,582'); animation-timing-function: cubic-bezier(0.59,0.25,0.25,1); } 77.6786% { d: path('M806.5,456.5C812.5,487,812.4,494,812.4,582'); animation-timing-function: cubic-bezier(0.43,0,0.33,1); } 93.75% { d: path('M812.5,455.5C812.5,487.1,812.4,494,812.4,582'); } 100% { d: path('M812.5,455.5C812.5,487.1,812.4,494,812.4,582'); } }
@keyframes BSTts2_Tks_d { 0% { d: path('M813,496.3C813,496.3,824.933,481.967,830.9,474.8'); animation-timing-function: cubic-bezier(0.59,0.25,0.25,1); } 15.1786% { d: path('M812,496.3C812,496.3,825,483,828.5,474.5'); animation-timing-function: cubic-bezier(0.43,0,0.33,1); } 31.25% { d: path('M813,496.3C813,496.3,824.933,481.967,830.9,474.8'); animation-timing-function: cubic-bezier(0.59,0.25,0.25,1); } 46.4286% { d: path('M812,496.3C812,496.3,825,483,828.5,474.5'); } 62.5% { d: path('M813,496.3C813,496.3,824.933,481.967,830.9,474.8'); animation-timing-function: cubic-bezier(0.59,0.25,0.25,1); } 77.6786% { d: path('M812,496.3C812,496.3,825,483,828.5,474.5'); animation-timing-function: cubic-bezier(0.43,0,0.33,1); } 93.75% { d: path('M813,496.3C813,496.3,824.933,481.967,830.9,474.8'); } 100% { d: path('M813,496.3C813,496.3,824.933,481.967,830.9,474.8'); } }
@keyframes BSTts3_Tks_d { 0% { d: path('M813,519.9C813,519.9,824.933,505.567,830.9,498.4'); animation-timing-function: cubic-bezier(0.59,0.25,0.25,1); } 15.1786% { d: path('M813,519.9C813,519.9,826.5,506.5,829.5,498.5'); animation-timing-function: cubic-bezier(0.43,0,0.33,1); } 31.25% { d: path('M813,519.9C813,519.9,824.933,505.567,830.9,498.4'); animation-timing-function: cubic-bezier(0.59,0.25,0.25,1); } 46.4286% { d: path('M813,519.9C813,519.9,826.5,506.5,829.5,498.5'); } 62.5% { d: path('M813,519.9C813,519.9,824.933,505.567,830.9,498.4'); animation-timing-function: cubic-bezier(0.59,0.25,0.25,1); } 77.6786% { d: path('M813,519.9C813,519.9,826.5,506.5,829.5,498.5'); animation-timing-function: cubic-bezier(0.43,0,0.33,1); } 93.75% { d: path('M813,519.9C813,519.9,824.933,505.567,830.9,498.4'); } 100% { d: path('M813,519.9C813,519.9,824.933,505.567,830.9,498.4'); } }
@keyframes BSTts4_Tks_d { 0% { d: path('M811.2,509.3C811.2,509.3,793.3,487.8,793.3,487.8'); animation-timing-function: cubic-bezier(0.59,0.25,0.25,1); } 15.1786% { d: path('M811.2,509.3C811.2,509.3,800.5,494.5,791.5,489.5'); animation-timing-function: cubic-bezier(0.43,0,0.33,1); } 31.25% { d: path('M811.2,509.3C811.2,509.3,793.3,487.8,793.3,487.8'); animation-timing-function: cubic-bezier(0.59,0.25,0.25,1); } 46.4286% { d: path('M811.2,509.3C811.2,509.3,800.5,494.5,791.5,489.5'); } 62.5% { d: path('M811.2,509.3C811.2,509.3,793.3,487.8,793.3,487.8'); animation-timing-function: cubic-bezier(0.59,0.25,0.25,1); } 77.6786% { d: path('M811.2,509.3C811.2,509.3,800.5,494.5,791.5,489.5'); animation-timing-function: cubic-bezier(0.43,0,0.33,1); } 93.75% { d: path('M811.2,509.3C811.2,509.3,793.3,487.8,793.3,487.8'); } 100% { d: path('M811.2,509.3C811.2,509.3,793.3,487.8,793.3,487.8'); } }
@keyframes BSTtrr-2_Tks_d { 0% { d: path('M812.9,386.5C832.2,386.5,847.9,402.2,847.9,421.5C847.9,442.5,847.9,484.6,847.9,505.6C847.9,524.9,832.2,540.6,812.9,540.6L812.9,540.6C793.6,540.6,777.9,524.9,777.9,505.6C777.9,484.6,777.9,442.5,777.9,421.5C777.9,402.2,793.6,386.5,812.9,386.5Z'); } 4.4643% { d: path('M812.9,386.5C832.2,386.5,847.9,402.2,847.9,421.5C847.9,442.5,847.9,484.6,847.9,505.6C847.9,524.9,832.2,540.6,812.9,540.6L812.9,540.6C793.6,540.6,777.9,524.9,777.9,505.6C777.9,484.6,777.9,442.5,777.9,421.5C777.9,402.2,793.6,386.5,812.9,386.5Z'); animation-timing-function: cubic-bezier(0.59,0.25,0.25,1); } 19.6429% { d: path('M800.5,386.5C819.8,386.5,831.6,399,837.5,421.5C842.6,443.5,847.9,470.5,847.9,505.6C847.9,524.9,832.2,540.6,812.9,540.6L812.9,540.6C793.6,540.6,777.9,527,777.9,505.6C777.9,480.5,772.6,450,768.5,426.5C764.5,403.5,781.2,386.5,800.5,386.5Z'); animation-timing-function: cubic-bezier(0.43,0,0.33,1); } 35.7143% { d: path('M812.9,386.5C832.2,386.5,847.9,402.2,847.9,421.5C847.9,442.5,847.9,484.6,847.9,505.6C847.9,524.9,832.2,540.6,812.9,540.6L812.9,540.6C793.6,540.6,777.9,524.9,777.9,505.6C777.9,484.6,777.9,442.5,777.9,421.5C777.9,402.2,793.6,386.5,812.9,386.5Z'); animation-timing-function: cubic-bezier(0.59,0.25,0.25,1); } 50.8929% { d: path('M800.5,386.5C819.8,386.5,831.6,399,837.5,421.5C842.6,443.5,847.9,470.5,847.9,505.6C847.9,524.9,832.2,540.6,812.9,540.6L812.9,540.6C793.6,540.6,777.9,527,777.9,505.6C777.9,480.5,772.6,450,768.5,426.5C764.5,403.5,781.2,386.5,800.5,386.5Z'); animation-timing-function: cubic-bezier(0.43,0,0.33,1); } 66.9643% { d: path('M812.9,386.5C832.2,386.5,847.9,402.2,847.9,421.5C847.9,442.5,847.9,484.6,847.9,505.6C847.9,524.9,832.2,540.6,812.9,540.6L812.9,540.6C793.6,540.6,777.9,524.9,777.9,505.6C777.9,484.6,777.9,442.5,777.9,421.5C777.9,402.2,793.6,386.5,812.9,386.5Z'); animation-timing-function: cubic-bezier(0.59,0.25,0.25,1); } 82.1429% { d: path('M800.5,386.5C819.8,386.5,831.6,399,837.5,421.5C842.6,443.5,847.9,470.5,847.9,505.6C847.9,524.9,832.2,540.6,812.9,540.6L812.9,540.6C793.6,540.6,777.9,527,777.9,505.6C777.9,480.5,772.6,450,768.5,426.5C764.5,403.5,781.2,386.5,800.5,386.5Z'); animation-timing-function: cubic-bezier(0.43,0,0.33,1); } 98.2143% { d: path('M812.9,386.5C832.2,386.5,847.9,402.2,847.9,421.5C847.9,442.5,847.9,484.6,847.9,505.6C847.9,524.9,832.2,540.6,812.9,540.6L812.9,540.6C793.6,540.6,777.9,524.9,777.9,505.6C777.9,484.6,777.9,442.5,777.9,421.5C777.9,402.2,793.6,386.5,812.9,386.5Z'); } 100% { d: path('M812.9,386.5C832.2,386.5,847.9,402.2,847.9,421.5C847.9,442.5,847.9,484.6,847.9,505.6C847.9,524.9,832.2,540.6,812.9,540.6L812.9,540.6C793.6,540.6,777.9,524.9,777.9,505.6C777.9,484.6,777.9,442.5,777.9,421.5C777.9,402.2,793.6,386.5,812.9,386.5Z'); } }
@keyframes BSTts1-2_Tks_d { 0% { d: path('M812.5,455.5C812.5,487.1,812.4,494,812.4,582'); } 4.4643% { d: path('M812.5,455.5C812.5,487.1,812.4,494,812.4,582'); animation-timing-function: cubic-bezier(0.59,0.25,0.25,1); } 19.6429% { d: path('M806.5,456.5C812.5,487,812.4,494,812.4,582'); animation-timing-function: cubic-bezier(0.43,0,0.33,1); } 35.7143% { d: path('M812.5,455.5C812.5,487.1,812.4,494,812.4,582'); animation-timing-function: cubic-bezier(0.59,0.25,0.25,1); } 50.8929% { d: path('M806.5,456.5C812.5,487,812.4,494,812.4,582'); animation-timing-function: cubic-bezier(0.43,0,0.33,1); } 66.9643% { d: path('M812.5,455.5C812.5,487.1,812.4,494,812.4,582'); animation-timing-function: cubic-bezier(0.59,0.25,0.25,1); } 82.1429% { d: path('M806.5,456.5C812.5,487,812.4,494,812.4,582'); animation-timing-function: cubic-bezier(0.43,0,0.33,1); } 98.2143% { d: path('M812.5,455.5C812.5,487.1,812.4,494,812.4,582'); } 100% { d: path('M812.5,455.5C812.5,487.1,812.4,494,812.4,582'); } }
@keyframes BSTts2-2_Tks_d { 0% { d: path('M813,496.3C813,496.3,824.933,481.967,830.9,474.8'); } 4.4643% { d: path('M813,496.3C813,496.3,824.933,481.967,830.9,474.8'); animation-timing-function: cubic-bezier(0.59,0.25,0.25,1); } 19.6429% { d: path('M812,496.3C812,496.3,825,483,828.5,474.5'); animation-timing-function: cubic-bezier(0.43,0,0.33,1); } 35.7143% { d: path('M813,496.3C813,496.3,824.933,481.967,830.9,474.8'); animation-timing-function: cubic-bezier(0.59,0.25,0.25,1); } 50.8929% { d: path('M812,496.3C812,496.3,825,483,828.5,474.5'); animation-timing-function: cubic-bezier(0.43,0,0.33,1); } 66.9643% { d: path('M813,496.3C813,496.3,824.933,481.967,830.9,474.8'); animation-timing-function: cubic-bezier(0.59,0.25,0.25,1); } 82.1429% { d: path('M812,496.3C812,496.3,825,483,828.5,474.5'); animation-timing-function: cubic-bezier(0.43,0,0.33,1); } 98.2143% { d: path('M813,496.3C813,496.3,824.933,481.967,830.9,474.8'); } 100% { d: path('M813,496.3C813,496.3,824.933,481.967,830.9,474.8'); } }
@keyframes BSTts3-2_Tks_d { 0% { d: path('M813,519.9C813,519.9,824.933,505.567,830.9,498.4'); } 4.4643% { d: path('M813,519.9C813,519.9,824.933,505.567,830.9,498.4'); animation-timing-function: cubic-bezier(0.59,0.25,0.25,1); } 19.6429% { d: path('M813,519.9C813,519.9,826.5,506.5,829.5,498.5'); animation-timing-function: cubic-bezier(0.43,0,0.33,1); } 35.7143% { d: path('M813,519.9C813,519.9,824.933,505.567,830.9,498.4'); animation-timing-function: cubic-bezier(0.59,0.25,0.25,1); } 50.8929% { d: path('M813,519.9C813,519.9,826.5,506.5,829.5,498.5'); animation-timing-function: cubic-bezier(0.43,0,0.33,1); } 66.9643% { d: path('M813,519.9C813,519.9,824.933,505.567,830.9,498.4'); animation-timing-function: cubic-bezier(0.59,0.25,0.25,1); } 82.1429% { d: path('M813,519.9C813,519.9,826.5,506.5,829.5,498.5'); animation-timing-function: cubic-bezier(0.43,0,0.33,1); } 98.2143% { d: path('M813,519.9C813,519.9,824.933,505.567,830.9,498.4'); } 100% { d: path('M813,519.9C813,519.9,824.933,505.567,830.9,498.4'); } }
@keyframes BSTts4-2_Tks_d { 0% { d: path('M811.2,509.3C811.2,509.3,793.3,487.8,793.3,487.8'); } 4.4643% { d: path('M811.2,509.3C811.2,509.3,793.3,487.8,793.3,487.8'); animation-timing-function: cubic-bezier(0.59,0.25,0.25,1); } 19.6429% { d: path('M811.2,509.3C811.2,509.3,800.5,494.5,791.5,489.5'); animation-timing-function: cubic-bezier(0.43,0,0.33,1); } 35.7143% { d: path('M811.2,509.3C811.2,509.3,793.3,487.8,793.3,487.8'); animation-timing-function: cubic-bezier(0.59,0.25,0.25,1); } 50.8929% { d: path('M811.2,509.3C811.2,509.3,800.5,494.5,791.5,489.5'); animation-timing-function: cubic-bezier(0.43,0,0.33,1); } 66.9643% { d: path('M811.2,509.3C811.2,509.3,793.3,487.8,793.3,487.8'); animation-timing-function: cubic-bezier(0.59,0.25,0.25,1); } 82.1429% { d: path('M811.2,509.3C811.2,509.3,800.5,494.5,791.5,489.5'); animation-timing-function: cubic-bezier(0.43,0,0.33,1); } 98.2143% { d: path('M811.2,509.3C811.2,509.3,793.3,487.8,793.3,487.8'); } 100% { d: path('M811.2,509.3C811.2,509.3,793.3,487.8,793.3,487.8'); } }
@keyframes a0_t { 0% { transform: translate(377.54px,398.644px); } 47.3214% { transform: translate(377.54px,398.644px); } 48.6607% { transform: translate(349.726837px,388.262421px); } 49.3303% { transform: translate(338.89682px,378.253235px); } 49.6651% { transform: translate(335.285828px,371.763855px); } 50% { transform: translate(333.12px,364.644px); } 50.4464% { transform: translate(332.23288px,358.013367px); } 50.8928% { transform: translate(333.495361px,351.68692px); } 51.3392% { transform: translate(337.78772px,346.978394px); } 51.7857% { transform: translate(344.12px,345.498px); } 52.4553% { transform: translate(350.233429px,349.346405px); } 53.125% { transform: translate(353.111511px,356.017853px); } 53.7946% { transform: translate(352.048981px,363.180786px); } 54.4642% { transform: translate(347.293px,368.733px); } 54.9107% { transform: translate(332.506531px,377.48938px); } 55.3571% { transform: translate(315.952148px,382.20047px); } 56.25% { transform: translate(281.565613px,382.439301px); } 57.1428% { transform: translate(248.281708px,373.548279px); } 57.5892% { transform: translate(232.782791px,365.946594px); } 58.0357% { transform: translate(218.83px,355.933px); } 100% { transform: translate(218.83px,355.933px); } }
@keyframes BStleaf_Tks_t { 0% { transform: rotate(0deg) scale(0.8,0.8) translate(-17.5023px,-4.06689px); } 47.3214% { transform: rotate(0deg) scale(0.8,0.8) translate(-17.5023px,-4.06689px); } 50% { transform: rotate(59deg) scale(0.8,0.8) translate(-17.5023px,-4.06689px); } 51.7857% { transform: rotate(153deg) scale(0.8,0.8) translate(-17.5023px,-4.06689px); } 54.4642% { transform: rotate(305deg) scale(0.8,0.8) translate(-17.5023px,-4.06689px); } 58.0357% { transform: rotate(377deg) scale(0.8,0.8) translate(-17.5023px,-4.06689px); } 100% { transform: rotate(377deg) scale(0.8,0.8) translate(-17.5023px,-4.06689px); } }
@keyframes BStleaf_Tks_o { 0% { opacity: 0; } 47.3214% { opacity: 0; } 50% { opacity: 1; } 56.25% { opacity: 1; } 58.0357% { opacity: 0; } 100% { opacity: 0; } }
@keyframes Envelope_Thks_t { 0% { transform: translate(15.282613px,202.578167px); } 60.7142% { transform: translate(15.282613px,202.578167px); animation-timing-function: cubic-bezier(0.429392,0,0.752664,0.367488); } 61.6071% { transform: translate(9.07116px,203.448146px); animation-timing-function: cubic-bezier(0.749239,0.186326,0.453278,0.727393); } 62.5% { transform: translate(-58.165962px,202.772303px); animation-timing-function: cubic-bezier(0.214577,0.517527,0.52651,0.885032); } 63.3928% { transform: translate(-101.789741px,193.442012px); animation-timing-function: cubic-bezier(0.309638,0.657382,0.642307,1); } 64.2857% { transform: translate(-106.550004px,191.514985px); animation-timing-function: cubic-bezier(0.429392,0,0.752664,0.367488); } 65.1785% { transform: translate(-99.790168px,197.47726px); animation-timing-function: cubic-bezier(0.749239,0.186326,0.453278,0.727393); } 66.0714% { transform: translate(-21.097297px,244.952144px); animation-timing-function: cubic-bezier(0.214577,0.517527,0.52651,0.885032); } 66.9642% { transform: translate(37.990654px,260.488215px); animation-timing-function: cubic-bezier(0.309638,0.657382,0.642307,1); } 67.8571% { transform: translate(45.44999px,261.514971px); animation-timing-function: cubic-bezier(0.452098,0,0.771474,0.36949); } 68.9732% { transform: translate(36.434807px,266.096431px); animation-timing-function: cubic-bezier(0.674943,0.195102,0.321056,0.748023); } 70.0892% { transform: translate(-87.221199px,302.684199px); animation-timing-function: cubic-bezier(0.2297,0.52015,0.548064,0.882668); } 71.2053% { transform: translate(-116.505378px,305.486323px); animation-timing-function: cubic-bezier(0.31162,0.65802,0.644408,1); } 72.3214% { transform: translate(-121.432496px,305.777074px); } 100% { transform: translate(-121.432496px,305.777074px); } }
@keyframes Envelope_Thks_o { 0% { opacity: 0; } 56.25% { opacity: 0; } 58.0357% { opacity: 1; } 71.4286% { opacity: 1; } 73.2143% { opacity: 0; } 100% { opacity: 0; } }
@keyframes Body_Env_thks_d { 0% { d: path('M0,0C0,0,33.26,0,33.26,0L33.26,28.65C33.26,28.65,0,28.65,0,28.65Z'); } 60.7143% { d: path('M0,0C0,0,33.26,0,33.26,0L33.26,28.65C33.26,28.65,0,28.65,0,28.65Z'); animation-timing-function: cubic-bezier(0.77,0,0.175,1); } 64.2857% { d: path('M-30,-6C-9.02128,-0.840439,7.0502,1.60451,28.26,0L28.26,26.65C7.0685,30.1445,-9.01526,28.9908,-30,21.65Z'); animation-timing-function: cubic-bezier(0.77,0,0.175,1); } 67.8571% { d: path('M-22,-4C-1.02128,1.15956,15.0502,3.60451,36.26,2L28.26,26.65C7.0685,30.1445,-9.01526,28.9908,-30,21.65Z'); animation-timing-function: cubic-bezier(0.77,0,0,1); } 72.3214% { d: path('M-41.6175,12.3029C-20.6388,17.4625,0.882502,16.8029,19.3825,12.3029L32.3825,27.65C11.191,31.1445,-9.1175,31.8029,-32,27.65Z'); } 100% { d: path('M-41.6175,12.3029C-20.6388,17.4625,0.882502,16.8029,19.3825,12.3029L32.3825,27.65C11.191,31.1445,-9.1175,31.8029,-32,27.65Z'); } }
@keyframes Lip_Env_thks_d { 0% { d: path('M814.55,286.42L831.44,301.35L847.81,286.42'); } 60.7143% { d: path('M814.55,286.42L831.44,301.35L847.81,286.42'); animation-timing-function: cubic-bezier(0.77,0,0.175,1); } 64.2857% { d: path('M785.05,280.982L815.05,295.982L842.81,286.42'); animation-timing-function: cubic-bezier(0.77,0,0.175,1); } 67.8571% { d: path('M793.05,283.982L818.05,296.985L850.05,288.985'); animation-timing-function: cubic-bezier(0.77,0,0,1); } 72.3214% { d: path('M773.933,298.985L809.933,307.723L833.933,298.985'); } 100% { d: path('M773.933,298.985L809.933,307.723L833.933,298.985'); } }
@keyframes a1_t { 0% { transform: translate(457.313727px,526.34545px); } 5.3571% { transform: translate(526.863708px,535.249512px); } 8.0357% { transform: translate(562.177856px,537.812378px); } 9.375% { transform: translate(579.604248px,538.214294px); } 10.7142% { transform: translate(597.089172px,537.561042px); } 12.2767% { transform: translate(619.152161px,532.387634px); } 13.8392% { transform: translate(637.098572px,518.865173px); } 15.4017% { transform: translate(640.667358px,497.404205px); } 16.183% { transform: translate(634.06134px,488.269379px); } 16.9642% { transform: translate(624.32px,482.488946px); } 17.2991% { transform: translate(618.042053px,480.863953px); } 17.6339% { transform: translate(611.570923px,480.993774px); } 18.3035% { transform: translate(599.807373px,486.143433px); } 19.6428% { transform: translate(588.052002px,508.348999px); } 20.9821% { transform: translate(599.980347px,530.048767px); } 21.6517% { transform: translate(611.590881px,535.711609px); } 22.3214% { transform: translate(624.32px,538.747006px); } 23.4375% { transform: translate(652.38562px,539.733582px); } 24.5535% { transform: translate(680.323547px,537.048828px); } 26.7857% { transform: translate(735.89032px,526.794312px); } 31.25% { transform: translate(844.346147px,497.21px); } 100% { transform: translate(844.346147px,497.21px); } }
@keyframes Plane_-Thks_t { 0% { transform: rotate(37deg) scale(0.89,0.89) translate(-637.479864px,-506.465432px); } 10.7142% { transform: rotate(37deg) scale(0.89,0.89) translate(-637.479864px,-506.465432px); } 16.9642% { transform: rotate(-134deg) scale(0.89,0.89) translate(-637.479864px,-506.465432px); } 22.3214% { transform: rotate(-326deg) scale(0.89,0.89) translate(-637.479864px,-506.465432px); } 31.25% { transform: rotate(-347.38deg) scale(0.89,0.89) translate(-637.479864px,-506.465432px); } 100% { transform: rotate(-347.38deg) scale(0.89,0.89) translate(-637.479864px,-506.465432px); } }
@keyframes Plane_-Thks_o { 0% { opacity: 0; } 4.4643% { opacity: 1; } 30.3571% { opacity: 1; } 33.0357% { opacity: 0; } 100% { opacity: 0; } }
@keyframes Mail_1_Flag_-Thks_t { 0% { transform: translate(864.115px,494.46px) rotate(90deg) translate(-862.12px,-491.47px); } 31.25% { transform: translate(864.115px,494.46px) rotate(90deg) translate(-862.12px,-491.47px); } 33.0357% { transform: translate(864.115px,494.46px) rotate(0deg) translate(-862.12px,-491.47px); } 58.9285% { transform: translate(864.115px,494.46px) rotate(0deg) translate(-862.12px,-491.47px); } 60.7142% { transform: translate(864.115px,494.46px) rotate(90deg) translate(-862.12px,-491.47px); } 100% { transform: translate(864.115px,494.46px) rotate(90deg) translate(-862.12px,-491.47px); } }
@keyframes Mail_cap_Thks_d { 0% { d: path('M812.29,520.6C812.29,520.6,805.5,530,802.34,535.07C799.18,540.14,801.08,549.5,812.29,549.5C822.5,549.5,834.5,544.14,841.5,535.07C848.5,526,851.55,520.6,851.55,520.6'); } 31.25% { d: path('M812.29,520.6C812.29,520.6,805.5,530,802.34,535.07C799.18,540.14,801.08,549.5,812.29,549.5C822.5,549.5,834.5,544.14,841.5,535.07C848.5,526,851.55,520.6,851.55,520.6'); } 32.1429% { d: path('M812.29,519.933C812.29,519.933,808,519.933,805.657,521.88C803.313,523.827,807.72,524.5,819.027,524.5C829.667,524.5,840.517,523.427,845.183,521.88C849.85,520.333,851.883,519.933,851.883,519.933'); } 33.9286% { d: path('M812.29,518.6C812.29,518.6,812.29,508,812.29,495.5C812.29,483,821,474.5,832.5,474.5C844,474.5,852.55,482,852.55,495.5C852.55,509,852.55,518.6,852.55,518.6'); } 56.25% { d: path('M812.29,518.6C812.29,518.6,812.29,508,812.29,495.5C812.29,483,821,474.5,832.5,474.5C844,474.5,852.55,482,852.55,495.5C852.55,509,852.55,518.6,852.55,518.6'); } 58.0357% { d: path('M812.29,519.933C812.29,519.933,808,519.933,805.657,521.88C803.313,523.827,807.72,524.5,819.027,524.5C829.667,524.5,840.517,523.427,845.183,521.88C849.85,520.333,851.883,519.933,851.883,519.933'); } 58.9286% { d: path('M812.29,520.6C812.29,520.6,805.5,530,802.34,535.07C799.18,540.14,801.08,549.5,812.29,549.5C822.5,549.5,834.5,544.14,841.5,535.07C848.5,526,851.55,520.6,851.55,520.6'); } 61.6071% { d: path('M812.29,520.6C812.29,520.6,805.5,530,802.34,535.07C799.18,540.14,801.08,549.5,812.29,549.5C822.5,549.5,834.5,544.14,841.5,535.07C848.5,526,851.55,520.6,851.55,520.6'); } 62.5% { d: path('M812.29,519.933C812.29,519.933,808,519.933,805.657,521.88C803.313,523.827,807.72,524.5,819.027,524.5C829.667,524.5,840.517,523.427,845.183,521.88C849.85,520.333,851.883,519.933,851.883,519.933'); } 64.2857% { d: path('M812.29,518.6C812.29,518.6,812.29,508,812.29,495.5C812.29,483,821,474.5,832.5,474.5C844,474.5,852.55,482,852.55,495.5C852.55,509,852.55,518.6,852.55,518.6'); } 91.0714% { d: path('M812.29,518.6C812.29,518.6,812.29,508,812.29,495.5C812.29,483,821,474.5,832.5,474.5C844,474.5,852.55,482,852.55,495.5C852.55,509,852.55,518.6,852.55,518.6'); } 92.8571% { d: path('M812.29,519.933C812.29,519.933,808,519.933,805.657,521.88C803.313,523.827,807.72,524.5,819.027,524.5C829.667,524.5,840.517,523.427,845.183,521.88C849.85,520.333,851.883,519.933,851.883,519.933'); } 93.75% { d: path('M812.29,520.6C812.29,520.6,805.5,530,802.34,535.07C799.18,540.14,801.08,549.5,812.29,549.5C822.5,549.5,834.5,544.14,841.5,535.07C848.5,526,851.55,520.6,851.55,520.6'); } 100% { d: path('M812.29,520.6C812.29,520.6,805.5,530,802.34,535.07C799.18,540.14,801.08,549.5,812.29,549.5C822.5,549.5,834.5,544.14,841.5,535.07C848.5,526,851.55,520.6,851.55,520.6'); } }
    </style>
    <g id="All_Thanks" transform="translate(640.55,408) translate(-640.55,-360)">
        <rect id="Background_Tks" class="st0" width="1439.79" height="700.96" fill="#4BA7C9" transform="translate(0,-48) translate(-0.41,0.86)"/>
        <g id="BSTClouds_Tks">
            <path id="BST9_Tks" class="st1" d="M401.1,441.9L393,441.9C394.9,438.1,396,433.8,396,429.5C396,414,383.2,401.5,367.4,401.5C355.6,401.5,345.4,408.5,341,418.7C338.2,417.4,335.1,416.7,332,416.7C320.5,416.7,311.1,425.9,311.1,437.1C311.1,441.7,312.6,446,315.4,449.6C316.3,450.8,317.7,451.5,319.3,451.5L401.2,451.5C403.9,451.5,406.1,449.4,406.1,446.7C406.1,444,403.8,441.9,401.1,441.9Z" stroke-linecap="round" stroke-width="3" stroke-linejoin="round" stroke="#FFFFFF" fill="none" opacity="0" transform="translate(839.594,347.053) translate(-358.6,-426.5)" style="animation: 11.2s linear infinite both BST9_Tks_t, 11.2s linear infinite both BST9_Tks_o;"/>
            <path id="BST7_Tks" class="st1" d="M933.249,480.7C927.538,480.7,922.071,482.576,917.503,485.922C915.463,485.269,913.342,484.942,911.139,484.942C899.309,484.942,889.6,494.243,889.6,505.747C889.6,507.787,891.313,509.5,893.435,509.5L955.277,509.5C957.398,509.5,959.112,507.868,959.112,505.747C959.193,491.959,947.608,480.7,933.249,480.7Z" stroke-linecap="round" stroke-width="3" stroke-linejoin="round" stroke="#FFFFFF" fill="none" opacity="0" transform="translate(453,483.35) translate(-932.2,-498.35)" style="animation: 11.2s linear infinite both BST7_Tks_t, 11.2s linear infinite both BST7_Tks_o;"/>
            <path id="BST6_Tks" class="st1" d="M634.101,124.254C614.825,124.254,596.236,130.278,580.918,141.293C573.948,139.228,566.719,138.195,559.404,138.195C519.215,138.195,486.6,168.659,486.6,206.18C486.6,212.892,492.452,218.4,499.681,218.4L708.885,218.4C716.113,218.4,721.965,212.978,721.965,206.18C721.879,161,682.551,124.254,634.101,124.254Z" stroke-linecap="round" stroke-width="3" stroke-linejoin="round" stroke="#FFFFFF" fill="#49a7c8" opacity="0" transform="translate(1111.55,259.5) translate(-623.35,-163.7)" style="animation: 11.2s linear infinite both BST6_Tks_t, 11.2s linear infinite both BST6_Tks_o;"/>
            <path id="BST5-2_Tks" class="st1" d="M1391.96,214.077L1363.39,214.077C1370.14,200.245,1373.85,184.951,1373.85,169.32C1373.85,113.431,1328.42,68,1272.64,68C1231.15,68,1194.71,93.4144,1179.31,130.187C1169.41,125.464,1158.5,122.877,1147.37,122.877C1106.66,122.877,1073.6,156.051,1073.6,196.759C1073.6,213.29,1078.89,228.808,1089.01,241.853C1092.27,246.126,1097.33,248.6,1102.61,248.6L1391.96,248.6C1401.51,248.6,1409.16,240.841,1409.16,231.395C1409.16,221.836,1401.4,214.077,1391.96,214.077Z" stroke-linecap="round" stroke-width="3" stroke-linejoin="round" stroke="#FFFFFF" fill="none" opacity="0" transform="translate(571.708,148.3) translate(-1222.8,-148.3)" style="animation: 11.2s linear infinite both BST5-2_Tks_t, 11.2s linear infinite both BST5-2_Tks_o;"/>
        </g>
        <g id="BSTTree_Tks" transform="translate(989.07,464.24) scale(1.11,1.11) translate(-812.9,-484.25)">
            <path id="BSTtrr_Tks" class="st2" d="M812.9,386.5C832.2,386.5,847.9,402.2,847.9,421.5C847.9,442.5,847.9,484.6,847.9,505.6C847.9,524.9,832.2,540.6,812.9,540.6L812.9,540.6C793.6,540.6,777.9,524.9,777.9,505.6C777.9,484.6,777.9,442.5,777.9,421.5C777.9,402.2,793.6,386.5,812.9,386.5Z" stroke-width="3" stroke="#FFFFFF" fill="#49a7c8" style="animation: 11.2s linear infinite both BSTtrr_Tks_d;"/>
            <path id="BSTts1_Tks" class="st1" d="M812.5,455.5C812.5,487.1,812.4,494,812.4,582" stroke-linecap="round" stroke-width="3" stroke-linejoin="round" stroke="#FFFFFF" fill="none" style="animation: 11.2s linear infinite both BSTts1_Tks_d;"/>
            <path id="BSTts2_Tks" class="st1" d="M813,496.3C813,496.3,824.933,481.967,830.9,474.8" stroke-linecap="round" stroke-width="3" stroke-linejoin="round" stroke="#FFFFFF" fill="none" style="animation: 11.2s linear infinite both BSTts2_Tks_d;"/>
            <path id="BSTts3_Tks" class="st1" d="M813,519.9C813,519.9,824.933,505.567,830.9,498.4" stroke-linecap="round" stroke-width="3" stroke-linejoin="round" stroke="#FFFFFF" fill="none" style="animation: 11.2s linear infinite both BSTts3_Tks_d;"/>
            <path id="BSTts4_Tks" class="st1" d="M811.2,509.3L793.3,487.8" stroke-linecap="round" stroke-width="3" stroke-linejoin="round" stroke="#FFFFFF" fill="none" style="animation: 11.2s linear infinite both BSTts4_Tks_d;"/>
        </g>
        <g id="BSTTree-2_Tks" transform="translate(352.2,449.41) scale(1.27,1.27) translate(-812.9,-484.25)">
            <path id="BSTtrr-2_Tks" class="st2" d="M812.9,386.5C832.2,386.5,847.9,402.2,847.9,421.5C847.9,442.5,847.9,484.6,847.9,505.6C847.9,524.9,832.2,540.6,812.9,540.6L812.9,540.6C793.6,540.6,777.9,524.9,777.9,505.6C777.9,484.6,777.9,442.5,777.9,421.5C777.9,402.2,793.6,386.5,812.9,386.5Z" stroke-width="3" stroke="#FFFFFF" fill="#49a7c8" style="animation: 11.2s linear infinite both BSTtrr-2_Tks_d;"/>
            <path id="BSTts1-2_Tks" class="st1" d="M812.5,455.5C812.5,487.1,812.4,494,812.4,582" stroke-linecap="round" stroke-width="3" stroke-linejoin="round" stroke="#FFFFFF" fill="none" style="animation: 11.2s linear infinite both BSTts1-2_Tks_d;"/>
            <path id="BSTts2-2_Tks" class="st1" d="M813,496.3C813,496.3,824.933,481.967,830.9,474.8" stroke-linecap="round" stroke-width="3" stroke-linejoin="round" stroke="#FFFFFF" fill="none" style="animation: 11.2s linear infinite both BSTts2-2_Tks_d;"/>
            <path id="BSTts3-2_Tks" class="st1" d="M813,519.9C813,519.9,824.933,505.567,830.9,498.4" stroke-linecap="round" stroke-width="3" stroke-linejoin="round" stroke="#FFFFFF" fill="none" style="animation: 11.2s linear infinite both BSTts3-2_Tks_d;"/>
            <path id="BSTts4-2_Tks" class="st1" d="M811.2,509.3L793.3,487.8" stroke-linecap="round" stroke-width="3" stroke-linejoin="round" stroke="#FFFFFF" fill="none" style="animation: 11.2s linear infinite both BSTts4-2_Tks_d;"/>
        </g>
        <g id="LeafGrbS_Tks" transform="translate(-61.11,50.8622)">
            <g transform="translate(377.54,398.644)" style="animation: 11.2s linear infinite both a0_t;">
                <path id="BStleaf_Tks" d="M0,0C0,0,16.5,-8,26,-3C35.5,2,35,11,35,11C35,11,26,15,16,11C6,7,0,0,0,0Z" stroke="#ffffff" fill="#49a7c8" stroke-width="3" stroke-miterlimit="1" stroke-linecap="round" stroke-linejoin="round" opacity="0" transform="translate(0,0) scale(0.8,0.8) translate(-17.5023,-4.06689)" style="animation: 11.2s linear infinite both BStleaf_Tks_t, 11.2s linear infinite both BStleaf_Tks_o;"/>
            </g>
        </g>
    </g>
    <g opacity="1">
        <path id="Thks_Horizon" class="st1" d="M782.44,623.31L1439.41,623.31" stroke-linecap="round" stroke-width="3" stroke-linejoin="round" stroke="#FFFFFF" fill="none" transform="translate(725.542,623.31) scale(2.21,1) translate(-1110.92,-623.31)"/>
        <rect id="Stick_thks" width="7.83" height="88.655" stroke="#ffffff" fill="none" stroke-width="3" stroke-linecap="round" stroke-linejoin="round" transform="translate(851.455,564.237) translate(-3.915,-44.3275)"/>
        <g id="Envelope_Thks" opacity="0" transform="translate(846.463,503.323) translate(-831.18,-300.745)" style="animation: 11.2s linear infinite both Envelope_Thks_t, 11.2s linear infinite both Envelope_Thks_o;">
            <path id="Body_Env_thks" fill="#4ba7c9" stroke="#FFFFFF" stroke-linecap="round" stroke-linejoin="round" stroke-width="3" d="M0,0L33.26,0L33.26,28.65L0,28.65Z" transform="translate(0,0) translate(814.55,286.42)" style="animation: 11.2s linear infinite both Body_Env_thks_d;"/>
            <path id="Lip_Env_thks" class="st1" d="M814.55,286.42L831.44,301.35L847.81,286.42" stroke-linecap="round" stroke-width="3" stroke-linejoin="round" stroke="#FFFFFF" fill="none" style="animation: 11.2s linear infinite both Lip_Env_thks_d;"/>
        </g>
        <g id="Mailbox_tks">
            <path id="Mail_thkbk" class="st1" d="M812.2,519.91L889.04,519.91L889.04,489.21C889.04,489.21,887.18,474.51,871.92,474.51C856.66,474.51,831.18,474.51,831.18,474.51C831.18,474.51,812.39,476.74,812.39,494.23C812.39,511.72,812.2,519.91,812.2,519.91Z" stroke-linecap="round" stroke-width="3" stroke-linejoin="round" stroke="#FFFFFF" fill="none"/>
            <path id="Bush_-Thks2" class="st3" d="M918.52,623.44C918.52,623.38,918.53,623.33,918.53,623.27C918.53,613.71,910.78,605.97,901.23,605.97C897.22,605.97,893.53,607.35,890.59,609.64C888.47,607.44,885.5,606.07,882.2,606.07C881.12,606.07,880.07,606.23,879.07,606.51C876.74,599.71,870.31,594.81,862.71,594.81C856.17,594.81,850.49,598.44,847.54,603.79C844.47,601,840.4,599.28,835.92,599.28C832.17,599.28,828.71,600.49,825.87,602.51C822.9,597.25,817.27,593.69,810.8,593.69C802.26,593.69,795.17,599.89,793.77,608.03C786.44,609.6,780.83,615.81,780.17,623.44L918.52,623.44Z" stroke-linecap="round" stroke-width="3" stroke-linejoin="round" stroke="#FFFFFF" fill="#4BA7C9"/>
        </g>
        <path d="M0,0L66.63,-14.71L51.14,31.01L36.4,21.28L22.11,31.01L19.32,11.06C19.32,11.06,0,0,0,0Z" fill="#4ba7c9" stroke-linecap="square" stroke="none" transform="translate(605,498.48)"/>
        <path id="Plane_-Thks_trail" class="st5" d="M447.68,529.8C485.86,534.44,524.84,537.37,562.5,529.76C575.71,527.09,590.19,516.97,588.3,501.73C586.18,484.66,565.81,473.28,550.31,480.27C527.17,490.7,533.43,522.32,554.86,530.73C563.6,534.16,573.28,534.24,582.59,533.25C591.9,532.26,601.09,530.24,610.44,529.63" stroke-linecap="round" stroke="#FFFFFF" stroke-width="3" stroke-linejoin="round" stroke-dasharray="8" fill="none" display="none" transform="translate(52.6775,4.31104)"/>
        <g transform="translate(457.314,526.345)" style="animation: 11.2s linear infinite both a1_t;">
            <path id="Plane_-Thks" class="st4" d="M673.76,483.77C673.73,483.89,673.68,484.15,673.59,484.4C668.05,499.43,662.51,514.47,656.97,529.5C656.52,530.71,655.6,531.02,654.52,530.32C650.14,527.48,645.77,524.64,641.4,521.78C641.07,521.56,640.86,521.55,640.52,521.78C636.39,524.55,632.26,527.3,628.12,530.06C627.93,530.19,627.75,530.34,627.56,530.46C626.67,531.01,625.48,530.49,625.31,529.49C624.98,527.54,624.67,525.59,624.32,523.65C623.52,519.2,622.71,514.75,621.92,510.3C621.85,509.92,621.69,509.72,621.36,509.54C614.99,506.19,608.63,502.84,602.28,499.47C601.89,499.26,601.49,498.88,601.31,498.48C600.95,497.67,601.51,496.79,602.43,496.6C605.51,495.95,608.6,495.32,611.69,494.68C621.77,492.6,631.85,490.52,641.92,488.43C651.82,486.38,661.73,484.33,671.63,482.3C672.03,482.22,672.49,482.22,672.88,482.32C673.47,482.47,673.76,482.99,673.76,483.77ZM654.78,526.99C659.59,513.92,664.39,500.91,669.18,487.89C669.14,487.87,669.11,487.85,669.07,487.83C657.43,496.39,645.8,504.95,634.11,513.54C641.01,518.04,647.86,522.49,654.78,526.99ZM606.98,498.64C607.28,498.8,607.44,498.9,607.61,498.99C612.62,501.63,617.63,504.27,622.63,506.92C623,507.12,623.28,507.11,623.65,506.92C636.23,500.47,648.81,494.02,661.4,487.58C661.51,487.52,661.61,487.45,661.71,487.39C661.7,487.37,661.69,487.35,661.68,487.33C643.5,491.09,625.32,494.85,606.98,498.64ZM627.11,522.62C627.14,522.62,627.17,522.62,627.21,522.63C627.28,522.43,627.36,522.23,627.42,522.03C628.29,519.21,629.16,516.38,630.02,513.56C630.19,513,630.48,512.58,630.94,512.24C637.67,507.3,644.4,502.35,651.13,497.4C652.82,496.16,654.51,494.91,656.2,493.67C656.18,493.64,656.16,493.6,656.14,493.57C645.69,498.93,635.23,504.28,624.78,509.64C625.56,514.01,626.33,518.32,627.11,522.62ZM629.42,525.67C632.43,523.66,635.33,521.73,638.28,519.76C636.29,518.47,634.36,517.21,632.37,515.92C631.39,519.15,630.42,522.34,629.42,525.67Z" fill="#FFFFFF" opacity="0" transform="translate(0,0) rotate(37) scale(0.89,0.89) translate(-637.48,-506.465)" style="animation: 11.2s linear infinite both Plane_-Thks_t, 11.2s linear infinite both Plane_-Thks_o;"/>
        </g>
        <path id="Mail_front_thk" class="st1" d="M889.04,519.91L889.04,489.21C889.04,489.21,887.18,474.51,871.92,474.51C856.66,474.51,831.18,474.51,831.18,474.51C831.18,474.51,852.5,475.01,852.5,492.5C852.5,509.99,852.5,519.91,852.5,519.91Z" stroke-linecap="round" stroke-width="3" stroke-linejoin="round" stroke="#FFFFFF" fill="#4ba7c9"/>
        <path id="Mail_1_Flag_-Thks" class="st1" d="M872.03,467.92L872.03,461.12L862.4,461.12L862.4,488.02C862.3,488.01,862.21,487.99,862.11,487.99C859.95,487.99,858.2,489.74,858.2,491.9C858.2,494.06,859.95,495.81,862.11,495.81C864.27,495.81,866.02,494.06,866.02,491.9C866.02,489.87,864.38,488.23,862.4,488.03L862.4,467.92L872.03,467.92Z" stroke-linecap="round" stroke-width="3" stroke-linejoin="round" stroke="#FFFFFF" fill="#4ba7c9" transform="translate(864.115,494.46) rotate(90) translate(-862.12,-491.47)" style="animation: 11.2s linear infinite both Mail_1_Flag_-Thks_t;"/>
        <path id="Mail_cap_Thks" class="st3" d="M812.29,520.6C812.29,520.6,805.5,530,802.34,535.07C799.18,540.14,801.08,549.5,812.29,549.5C822.5,549.5,834.5,544.14,841.5,535.07C848.5,526,851.55,520.6,851.55,520.6" stroke-linecap="round" stroke-width="3" stroke-linejoin="round" stroke="#FFFFFF" fill="#4BA7C9" style="animation: 11.2s linear infinite both Mail_cap_Thks_d;"/>
    </g>
</svg>
