<?xml version="1.0" encoding="UTF-8"?>
<svg width="1440px" height="208px" viewBox="0 0 1440 208" version="1.1" xmlns="http://www.w3.org/2000/svg" xmlns:xlink="http://www.w3.org/1999/xlink">
    <!-- Generator: sketchtool 52.4 (67378) - http://www.bohemiancoding.com/sketch -->
    <title>83FFDACF-57E2-4157-8128-B9A316E66F42@3x</title>
    <desc>Created with sketchtool.</desc>
    <g id="Dashboard" stroke="none" stroke-width="1" fill="none" fill-rule="evenodd">
        <g id="Tour-operator-register--2.2" transform="translate(0.000000, -883.000000)" stroke="#FFFFFF" stroke-width="3">
            <g id="Group-5" transform="translate(-4.000000, 883.000000)">
                <g id="Group-4" transform="translate(393.000000, 0.000000)">
                    <g id="Group-3">
                        <path d="M141.740675,111.311803 L159.598751,89.8181818" id="Line-5" stroke-linecap="round" stroke-linejoin="round"></path>
                        <path d="M501.998224,111.311803 L519.8563,89.8181818" id="Line-5-Copy-2" stroke-linecap="round" stroke-linejoin="round"></path>
                        <path d="M141.740675,134.948166 L159.598751,113.454545" id="Line-5-Copy" stroke-linecap="round" stroke-linejoin="round"></path>
                        <path d="M501.998224,134.948166 L519.8563,113.454545" id="Line-5-Copy-3" stroke-linecap="round" stroke-linejoin="round"></path>
                        <path d="M141.150088,197.490589 L141.150089,65 C141.15009,65 141.15009,109.16353 141.150088,197.490589 Z" id="Triangle-Copy" stroke-linecap="round" stroke-linejoin="round"></path>
                        <path d="M501.407637,196.985085 L501.407638,65 C501.407639,65 501.407638,108.995028 501.407637,196.985085 Z" id="Triangle-Copy-2" stroke-linecap="round" stroke-linejoin="round"></path>
                        <rect id="Rectangle" x="106.624334" y="1.5" width="70.0557664" height="154.155787" rx="35.0278832"></rect>
                        <rect id="Rectangle-Copy" x="466.881883" y="1.5" width="70.0557664" height="154.155787" rx="35.0278832"></rect>
                        <path d="M120.479574,124.311803 L138.33765,102.818182" id="Line-5-Copy" stroke-linecap="round" stroke-linejoin="round" transform="translate(130.220343, 114.391670) scale(-1, 1) translate(-130.220343, -114.391670) "></path>
                        <path d="M480.737123,124.311803 L498.595199,102.818182" id="Line-5-Copy-4" stroke-linecap="round" stroke-linejoin="round" transform="translate(490.477891, 114.391670) scale(-1, 1) translate(-490.477891, -114.391670) "></path>
                        <path d="M90.0979373,56.9497873 L82.0100689,56.9497873 C83.9291828,53.1329795 84.9616144,48.8995583 84.9616144,44.5730792 C84.9616144,29.1183002 72.1186137,16.5454545 56.3328416,16.5454545 C44.577355,16.5454545 34.2866734,23.5639333 29.9273553,33.7425648 C27.1313082,32.425914 24.0408378,31.7191508 20.8791988,31.7191508 C9.36646521,31.7186735 0,40.8884613 0,52.1594501 C0,56.7164266 1.50282655,61.0309752 4.34518194,64.6373289 C5.26842342,65.8079503 6.69325703,66.494193 8.20437033,66.494193 L90.0979373,66.494193 C92.7896688,66.494193 94.9724963,64.3576778 94.9724963,61.7219902 C94.9724963,59.0863025 92.7896688,56.9497873 90.0979373,56.9497873 Z" id="Path" stroke-linecap="round" stroke-linejoin="round" fill-rule="nonzero"></path>
                        <path d="M632.137478,95.7272727 C625.155941,95.7272727 618.414516,97.9783965 612.859789,102.117855 C610.32947,101.351424 607.721634,100.963635 605.074095,100.963635 C590.529331,100.963635 578.696387,112.411929 578.696387,126.483892 C578.696387,129.009394 580.812654,131.056868 583.423011,131.056868 L659.201492,131.056868 C661.811848,131.056868 663.928115,129.009394 663.928115,126.483892 C663.928115,109.524857 649.666948,95.7272727 632.137478,95.7272727 Z" id="Path" stroke-linecap="round" stroke-linejoin="round" fill-rule="nonzero"></path>
                        <g id="Group-2" transform="translate(382.443739, 64.778794) rotate(-15.000000) translate(-382.443739, -64.778794) translate(348.443739, 23.778794)">
                            <path d="M33.7729443,5.89160989 C20.1878075,5.82697316 9.18680579,16.7690397 9.24998014,30.2831983 C9.27132468,34.8491899 10.5635886,39.3112135 12.9879262,43.1885188 L32.691898,74.6333787 C33.069333,75.2357632 33.731051,75.6038124 34.4408858,75.6071897 C34.4463608,75.6072158 34.4516989,75.6072412 34.4571739,75.6072672 C35.173142,75.6050913 35.8327643,75.2320278 36.1976913,74.6226913 L55.1086243,43.0577909 C57.3644316,39.2844475 58.5457614,34.9481565 58.5250502,30.5176442 C58.4618758,17.0034856 47.3580811,5.95624661 33.7729443,5.89160989 Z" id="Path" fill-rule="nonzero" transform="translate(33.887514, 40.749296) rotate(16.000000) translate(-33.887514, -40.749296) "></path>
                            <ellipse id="Oval" cx="36.3533485" cy="30.9658092" rx="11.2211368" ry="11.2272727"></ellipse>
                        </g>
                        <path d="M227.103908,178.318182 L431.990231,178.318182 L431.990231,74 C431.990231,69.8578644 428.632367,66.5 424.490231,66.5 L404.177663,66.5 L382.054097,100.02638 L361.774161,66.5 L234.603908,66.5 C230.461772,66.5 227.103908,69.8578644 227.103908,74 L227.103908,178.318182 Z" id="Rectangle"></path>
                        <path d="M217.654529,178.772727 L217.654529,190 C217.654529,199.112698 225.041831,206.5 234.154529,206.5 L423.758437,206.5 C432.871135,206.5 440.258437,199.112698 440.258437,190 L440.258437,178.772727 L217.654529,178.772727 Z" id="Rectangle"></path>
                        <path d="M309.594657,177.421752 L315.129813,177.421752 L325.045628,177.421752 C332.130962,178.930278 335.673628,175.158963 335.673628,166.107806 C335.673628,164.463317 335.6961,110.152146 335.748397,108.590139 C336.127858,97.2563668 338.077571,88.5172439 344.406791,88.5172439 C344.406791,88.5172439 352.223497,88.5172439 367.856908,88.5172439" id="Path-4" stroke-linecap="round" stroke-dasharray="8" fill-rule="nonzero" transform="translate(338.725782, 133.131126) scale(-1, 1) rotate(-270.000000) translate(-338.725782, -133.131126) "></path>
                        <path d="M294.175342,173.193992 L294.175342,151.806008 C294.175343,151.806008 294.175343,158.935336 294.175342,173.193992 Z" id="Triangle-Copy-3" stroke-linecap="round" stroke-linejoin="round" transform="translate(294.175342, 162.500000) rotate(-270.000000) translate(-294.175342, -162.500000) "></path>
                    </g>
                    <path d="M1051,198.500003 C642.333333,198.499997 438,198.499996 438,198.5" id="Triangle-Copy-2" stroke-linecap="round" stroke-linejoin="round" transform="translate(744.500000, 198.500000) rotate(-180.000000) translate(-744.500000, -198.500000) "></path>
                </g>
                <path d="M1444,198.500003 C1035.33333,198.499997 831,198.499996 831,198.5" id="Triangle-Copy-2" stroke-linecap="round" stroke-linejoin="round" transform="translate(1137.500000, 198.500000) rotate(-180.000000) translate(-1137.500000, -198.500000) "></path>
                <path d="M613,198.500003 C204.333333,198.499997 3.88126843e-12,198.499996 5.46845989e-13,198.5" id="Triangle-Copy-4" stroke-linecap="round" stroke-linejoin="round" transform="translate(306.500000, 198.500000) rotate(-180.000000) translate(-306.500000, -198.500000) "></path>
            </g>
        </g>
    </g>
</svg>