<?xml version="1.0" encoding="UTF-8"?>
<svg width="70px" height="51px" viewBox="0 0 70 51" version="1.1" xmlns="http://www.w3.org/2000/svg" xmlns:xlink="http://www.w3.org/1999/xlink">
    <!-- Generator: sketchtool 52.5 (67469) - http://www.bohemiancoding.com/sketch -->
    <title>AB7EB3B7-A95D-4D75-9761-B61CC11B7D10</title>
    <desc>Created with sketchtool.</desc>
    <g id="Dashboard" stroke="none" stroke-width="1" fill="none" fill-rule="evenodd">
        <g id="My-account-photo" transform="translate(-685.000000, -329.000000)" fill="#964CBE">
            <g id="Group-16" transform="translate(0.000000, -2.000000)">
                <g id="Group-11" transform="translate(435.000000, 132.000000)">
                    <g id="Group-13" transform="translate(70.000000, 112.000000)">
                        <g id="Group-9" transform="translate(48.000000, 87.000000)">
                            <path d="M178.363636,26.6590909 C178.363636,26.3693182 178.254972,26.0433239 178.037642,25.8259943 L165.287642,13.0759943 C165.070312,12.8586648 164.78054,12.75 164.454545,12.75 C164.164773,12.75 163.838778,12.8586648 163.621449,13.0759943 L150.90767,25.7897727 C150.690341,26.0433239 150.545455,26.3330966 150.545455,26.6590909 C150.545455,27.3110795 151.052557,27.8181818 151.704545,27.8181818 L159.818182,27.8181818 L159.818182,40.5681818 C159.818182,41.1839489 160.361506,41.7272727 160.977273,41.7272727 L167.931818,41.7272727 C168.547585,41.7272727 169.090909,41.1839489 169.090909,40.5681818 L169.090909,27.8181818 L177.204545,27.8181818 C177.856534,27.8181818 178.363636,27.274858 178.363636,26.6590909 Z M201.545455,37.0909091 C201.545455,44.7698864 195.315341,51 187.636364,51 L148.227273,51 C139.28054,51 132,43.7194602 132,34.7727273 C132,28.4701705 135.658381,22.7471591 141.34517,20.102983 C141.308949,19.5596591 141.272727,19.0525568 141.272727,18.5454545 C141.272727,8.29474432 149.567472,0 159.818182,0 C167.352273,0 174.12571,4.56392045 176.987216,11.5184659 C178.653409,10.0696023 180.790483,9.27272727 183,9.27272727 C188.107244,9.27272727 192.272727,13.4382102 192.272727,18.5454545 C192.272727,20.3203125 191.765625,22.0589489 190.787642,23.5440341 C197.090199,25.0291193 201.545455,30.6434659 201.545455,37.0909091 Z" id="cloud-upload---FontAwesome"></path>
                        </g>
                    </g>
                </g>
            </g>
        </g>
    </g>
</svg>