<?xml version="1.0" encoding="UTF-8"?>
<svg width="22px" height="22px" viewBox="0 0 22 22" version="1.1" xmlns="http://www.w3.org/2000/svg" xmlns:xlink="http://www.w3.org/1999/xlink">
    <!-- Generator: sketchtool 52.5 (67469) - http://www.bohemiancoding.com/sketch -->
    <title>7678EA69-E26C-465A-99AF-4837E74B1998@SVG</title>
    <desc>Created with sketchtool.</desc>
    <g id="Dashboard" stroke="none" stroke-width="1" fill="none" fill-rule="evenodd">
        <g id="My-Dashboard-Copy" transform="translate(-1235.000000, -360.000000)" fill="#C6C6C6">
            <g id="Group-6" transform="translate(335.000000, 144.000000)">
                <g id="Group-9-Copy" transform="translate(512.000000, 95.000000)">
                    <g id="Group-4" transform="translate(137.000000, 121.000000)">
                        <g id="Group-5-Copy-3" transform="translate(217.000000, 0.000000)">
                            <g id="Group-4-Copy">
                                <g id="Group-8" transform="translate(20.000000, 0.000000)">
                                    <g id="Group-3-Copy-2" transform="translate(14.000000, 0.000000)">
                                        <g id="IMG_2366-copy-400x400.jpg.400x400_q95_autocrop_crop_upscale-Copy" transform="translate(0.687500, 0.687500)">
                                            <g id="User-Empty-Estate-Copy-3">
                                                <path d="M10.3125,0 C12.1698591,0 13.8886089,0.464339929 15.46875,1.39301915 C17.0488911,2.32169838 18.3033016,3.57610887 19.2319808,5.15625 C20.1606601,6.73639113 20.625,8.45514092 20.625,10.3125 C20.625,12.1698591 20.1606601,13.8886089 19.2319808,15.46875 C18.3033016,17.0488911 17.0488911,18.3033016 15.46875,19.2319808 C13.8886089,20.1606601 12.1698591,20.625 10.3125,20.625 C8.45514092,20.625 6.73639113,20.1606601 5.15625,19.2319808 C3.57610887,18.3033016 2.32169838,17.0488911 1.39301915,15.46875 C0.464339929,13.8886089 0,12.1698591 0,10.3125 C0,8.45514092 0.464339929,6.73639113 1.39301915,5.15625 C2.32169838,3.57610887 3.57610887,2.32169838 5.15625,1.39301915 C6.73639113,0.464339929 8.45514092,0 10.3125,0 Z M15.6350806,17.5478831 L15.6350806,16.9657258 C15.6350806,16.2449599 15.371724,15.62122 14.8450101,15.094506 C14.3182962,14.5677921 13.6945562,14.3044355 12.9737903,14.3044355 C12.862903,14.3044355 12.6549897,14.3460181 12.3500504,14.4291835 C11.6570058,14.6509574 10.9778226,14.7618448 10.3125,14.7618448 C9.64717742,14.7618448 8.96799416,14.6509574 8.2749496,14.4291835 C7.97001029,14.3460181 7.76209699,14.3044355 7.65120968,14.3044355 C6.93044376,14.3044355 6.30670384,14.5677921 5.77998992,15.094506 C5.253276,15.62122 4.98991935,16.2449599 4.98991935,16.9657258 L4.98991935,17.5478831 C6.57006048,18.7121976 8.34425424,19.2943548 10.3125,19.2943548 C12.2807458,19.2943548 14.0549395,18.7121976 15.6350806,17.5478831 Z M16.9241431,16.3835685 C17.672631,15.5796373 18.2547883,14.6509574 18.6706149,13.5975302 C19.0864415,12.544103 19.2943548,11.4490925 19.2943548,10.3125 C19.2943548,8.67691553 18.8923889,7.17300907 18.0884577,5.80078125 C17.2845264,4.42855343 16.1964466,3.34047358 14.8242188,2.53654234 C13.4519909,1.7326111 11.9480845,1.33064516 10.3125,1.33064516 C8.67691553,1.33064516 7.17300907,1.7326111 5.80078125,2.53654234 C4.42855343,3.34047358 3.34047358,4.42855343 2.53654234,5.80078125 C1.7326111,7.17300907 1.33064516,8.67691553 1.33064516,10.3125 C1.33064516,11.4490925 1.53855847,12.544103 1.95438508,13.5975302 C2.37021169,14.6509574 2.95236895,15.5796373 3.70085685,16.3835685 C3.8671875,15.4133067 4.31766612,14.6024448 5.05229335,13.9509829 C5.78692057,13.299521 6.65322581,12.9737903 7.65120968,12.9737903 C7.90070565,12.9737903 8.23336694,13.043095 8.64919355,13.1817036 C9.23135081,13.3480343 9.78578608,13.4311996 10.3125,13.4311996 C10.8392139,13.4311996 11.3936492,13.3480343 11.9758065,13.1817036 C12.3916331,13.043095 12.7242944,12.9737903 12.9737903,12.9737903 C13.9717742,12.9737903 14.8380794,13.299521 15.5727067,13.9509829 C16.3073339,14.6024448 16.7578125,15.4133067 16.9241431,16.3835685 Z M10.3125,4.65725806 C11.3104839,4.65725806 12.1698591,5.01764134 12.890625,5.73840726 C13.6113909,6.45917318 13.9717742,7.31854839 13.9717742,8.31653226 C13.9717742,9.31451613 13.6113909,10.1738913 12.890625,10.8946573 C12.1698591,11.6154232 11.3104839,11.9758065 10.3125,11.9758065 C9.31451613,11.9758065 8.45514092,11.6154232 7.734375,10.8946573 C7.01360908,10.1738913 6.65322581,9.31451613 6.65322581,8.31653226 C6.65322581,7.31854839 7.01360908,6.45917318 7.734375,5.73840726 C8.45514092,5.01764134 9.31451613,4.65725806 10.3125,4.65725806 Z M10.3125,10.6451613 C10.9501006,10.6451613 11.4976058,10.4164567 11.9550151,9.95904738 C12.4124244,9.5016381 12.641129,8.95413285 12.641129,8.31653226 C12.641129,7.67893166 12.4124244,7.13142641 11.9550151,6.67401714 C11.4976058,6.21660786 10.9501006,5.98790323 10.3125,5.98790323 C9.67489941,5.98790323 9.12739415,6.21660786 8.66998488,6.67401714 C8.2125756,7.13142641 7.98387097,7.67893166 7.98387097,8.31653226 C7.98387097,8.95413285 8.2125756,9.5016381 8.66998488,9.95904738 C9.12739415,10.4164567 9.67489941,10.6451613 10.3125,10.6451613 Z" id=""></path>
                                            </g>
                                        </g>
                                    </g>
                                </g>
                            </g>
                        </g>
                    </g>
                </g>
            </g>
        </g>
    </g>
</svg>