<?xml version="1.0" encoding="UTF-8"?>
<svg width="12px" height="12px" viewBox="0 0 12 12" version="1.1" xmlns="http://www.w3.org/2000/svg" xmlns:xlink="http://www.w3.org/1999/xlink">
    <!-- Generator: Sketch 53 (72520) - https://sketchapp.com -->
    <title>linkedin@3x</title>
    <desc>Created with Sketch.</desc>
    <g id="Dashboard" stroke="none" stroke-width="1" fill="none" fill-rule="evenodd">
        <g id="TOUR-PROFILE" transform="translate(-241.000000, -404.000000)" fill="#8E8E8E" fill-rule="nonzero">
            <g id="Group-5" transform="translate(237.000000, 402.000000)">
                <path d="M6.72656575,5.88280402 L6.72656575,13.6250007 L4.14843768,13.6250007 L4.14843768,5.88280402 L6.72656575,5.88280402 Z M6.89062845,3.49217617 C6.89844096,4.23436455 6.33594028,4.82811526 5.43750171,4.82811526 L5.4218767,4.82811526 C4.55468816,4.82811526 4,4.23436455 4,3.49217617 C4,2.73436276 4.57812569,2.15623707 5.45312673,2.15623707 C6.33594028,2.15623707 6.88281594,2.73436276 6.89062845,3.49217617 Z M10.718758,6.98323634 C11.0579146,6.45305143 11.6697388,5.7031163 13.0390733,5.7031163 C14.7343878,5.7031163 16.0000143,6.81249262 16.0000143,9.18749546 L16.0000143,13.6250007 L13.4296987,13.6250007 L13.4296987,9.48437081 C13.4296987,8.44530707 13.0546983,7.73436872 12.1250097,7.73436872 C11.4140713,7.73436872 10.9921958,8.21093179 10.8046956,8.67186984 C10.7421955,8.84374505 10.718758,9.07030782 10.718758,9.30468309 L10.718758,13.6250007 L8.14844245,13.6250007 C8.17969248,6.60936738 8.14844245,5.88280402 8.14844245,5.88280402 L10.718758,5.88280402 L10.718758,6.98323634 L10.718758,6.98323634 Z" id="linkedin"></path>
            </g>
        </g>
    </g>
</svg>