<?xml version="1.0" encoding="UTF-8"?>
<svg width="14px" height="19px" viewBox="0 0 14 19" version="1.1" xmlns="http://www.w3.org/2000/svg" xmlns:xlink="http://www.w3.org/1999/xlink">
    <!-- Generator: Sketch 53 (72520) - https://sketchapp.com -->
    <title>pin@3x</title>
    <desc>Created with Sketch.</desc>
    <g id="Dashboard" stroke="none" stroke-width="1" fill="none" fill-rule="evenodd">
        <g id="TOUR-PROFILE" transform="translate(-240.000000, -518.000000)" fill="#8E8E8E" fill-rule="nonzero">
            <g id="Group-5" transform="translate(237.000000, 402.000000)">
                <path d="M9.51391943,133.898433 C8.90454606,133.00781 8.11939133,131.882813 7.1584563,130.523441 C5.98658427,128.835945 5.21314862,127.699229 4.83814933,127.113293 C4.2990883,126.269545 3.93580755,125.560562 3.74830818,124.986345 C3.56080881,124.412128 3.46705885,123.750019 3.46705885,123.000021 C3.46705885,121.781274 3.7717458,120.656277 4.38111917,119.62503 C4.99049254,118.593782 5.81080344,117.773471 6.8420508,117.164098 C7.87329817,116.554725 8.99829548,116.250038 10.2170428,116.250038 C11.43579,116.250038 12.5607873,116.554725 13.5920347,117.164098 C14.6232821,117.773471 15.443593,118.593782 16.0529663,119.62503 C16.6623397,120.656277 16.9670267,121.781274 16.9670267,123.000021 C16.9670267,123.750019 16.8732767,124.412128 16.6857773,124.986345 C16.498278,125.560562 16.1349972,126.269545 15.5959362,127.113293 C15.2209369,127.699229 14.4475012,128.835945 13.2756292,130.523441 L10.9201661,133.898433 C10.7561038,134.132808 10.5217297,134.249995 10.2170428,134.249995 C9.9123558,134.249995 9.67798172,134.132808 9.51391943,133.898433 Z M10.2170428,125.812515 C10.9904784,125.812515 11.652586,125.537125 12.2033661,124.986345 C12.7541463,124.435565 13.0295361,123.773457 13.0295361,123.000021 C13.0295361,122.226586 12.7541463,121.564478 12.2033661,121.013698 C11.652586,120.462918 10.9904784,120.187528 10.2170428,120.187528 C9.4436071,120.187528 8.78149948,120.462918 8.23071937,121.013698 C7.67993925,121.564478 7.40454946,122.226586 7.40454946,123.000021 C7.40454946,123.773457 7.67993925,124.435565 8.23071937,124.986345 C8.78149948,125.537125 9.4436071,125.812515 10.2170428,125.812515 Z" id="pin"></path>
            </g>
        </g>
    </g>
</svg>