<?xml version="1.0" encoding="UTF-8"?>
<svg width="17px" height="14px" viewBox="0 0 17 14" version="1.1" xmlns="http://www.w3.org/2000/svg" xmlns:xlink="http://www.w3.org/1999/xlink">
    <!-- Generator: Sketch 53 (72520) - https://sketchapp.com -->
    <title>twitter@3x</title>
    <desc>Created with Sketch.</desc>
    <g id="Dashboard" stroke="none" stroke-width="1" fill="none" fill-rule="evenodd">
        <g id="TOUR-PROFILE" transform="translate(-237.000000, -476.000000)" fill="#4BABE8" fill-rule="nonzero">
            <g id="Group-5" transform="translate(237.000000, 402.000000)">
                <path d="M16.59375,76.1171875 C16.1718729,76.7734408 15.6093785,77.3593724 14.90625,77.875 L14.90625,78.296875 C14.90625,80.7578248 14.0214932,82.9902244 12.2519531,84.9941406 C10.482413,86.9980569 8.13282715,88 5.203125,88 C3.32811563,88 1.59375797,87.4843802 0,86.453125 C0.375001875,86.5000002 0.64453043,86.5234375 0.80859375,86.5234375 C2.3789141,86.5234375 3.78515004,86.0312549 5.02734375,85.046875 C4.30077762,85.0234374 3.64453418,84.794924 3.05859375,84.3613281 C2.47265332,83.9277322 2.0742198,83.3710971 1.86328125,82.6914062 C2.14453266,82.7382815 2.35546805,82.7617188 2.49609375,82.7617188 C2.73046992,82.7617188 3.03515437,82.7148442 3.41015625,82.6210938 C2.63671488,82.4570304 1.98633076,82.0644562 1.45898438,81.4433594 C0.931637988,80.8222625 0.66796875,80.1015666 0.66796875,79.28125 L0.66796875,79.2460938 C1.18359633,79.5273452 1.69921617,79.6679688 2.21484375,79.6679688 C1.20702621,79.0117155 0.703125,78.0625062 0.703125,76.8203125 C0.703125,76.2343721 0.855467227,75.6718777 1.16015625,75.1328125 C2.96485277,77.3593861 5.2968607,78.542968 8.15625,78.6835938 C8.10937477,78.5195304 8.0859375,78.2617205 8.0859375,77.9101562 C8.0859375,76.9492139 8.41405922,76.1406283 9.0703125,75.484375 C9.72656578,74.8281217 10.5351514,74.5 11.4960938,74.5 C12.4570361,74.5 13.2773404,74.8632776 13.9570312,75.5898438 C14.6601598,75.4726557 15.386715,75.1914085 16.1367188,74.7460938 C15.9023426,75.5664104 15.3984414,76.1992165 14.625,76.6445312 C15.3515661,76.5742184 16.0078096,76.3984389 16.59375,76.1171875 Z" id="twitter"></path>
            </g>
        </g>
    </g>
</svg>