<?xml version="1.0" encoding="UTF-8"?>
<svg width="22px" height="20px" viewBox="0 0 22 20" version="1.1" xmlns="http://www.w3.org/2000/svg" xmlns:xlink="http://www.w3.org/1999/xlink">
    <!-- Generator: Sketch 52.6 (67491) - http://www.bohemiancoding.com/sketch -->
    <title>heart</title>
    <desc>Created with Sketch.</desc>
    <g id="Symbols" stroke="none" stroke-width="1" fill="none" fill-rule="evenodd">
        <path d="M17.1050206,0.127361322 C16.7340767,0.0459802854 16.3504893,0 15.9560938,0 C13.1058008,0 10.7893897,2.23309563 10.6513309,5.04257245 L10.6570409,4.85519262 C10.3499262,2.21498835 8.04921755,0 5.31883388,0 C4.89915134,0 4.49211229,0.0504562424 4.10077565,0.141806456 C3.93396306,0.180869353 3.77388006,0.235801552 3.61338922,0.290123394 C2.03091276,0.825203707 0.780634004,2.07379225 0.262862391,3.66194318 C0.23492434,3.74759672 0.212288401,3.83528478 0.188836752,3.92236249 C0.170687216,3.98889149 0.152537679,4.05542049 0.137039198,4.12296675 C0.119093589,4.20048218 0.103799036,4.27901488 0.0893201917,4.35795449 C0.0728020741,4.44849089 0.0591389397,4.5398411 0.0473111518,4.63200513 C0.039357984,4.69426162 0.0305891068,4.75651811 0.0246752128,4.81918151 C0.00978851416,4.9797056 0,5.14124696 0,5.3054332 C0,6.35992798 0.240022524,7.44331302 0.647877281,8.52120485 C0.821011625,8.97958353 1.0330961,9.43572424 1.2625144,9.88922006 L1.26496153,9.89410293 C1.3116609,9.98626695 1.35366994,10.0794482 1.40220465,10.1714088 C1.502333,10.3614335 1.60633596,10.5502375 1.71441747,10.7386346 C1.77987816,10.8525681 1.84309565,10.966705 1.91100346,11.0798246 C2.16285378,11.4985301 2.4326497,11.9117423 2.71488519,12.3174267 C2.85620686,12.520269 3.00058745,12.7210767 3.14761909,12.9200533 C3.44209022,13.3175997 3.74696165,13.7063976 4.05774698,14.084209 C4.26004293,14.3299798 4.46662137,14.5649675 4.67279195,14.8001587 C4.73886442,14.8754362 4.80371333,14.9549861 4.86998972,15.0296532 C7.44192182,17.9223421 10.1451831,19.9733477 10.5336648,19.997762 C10.5361119,19.997762 10.5403944,20 10.5426376,20 C10.5589518,20 10.5852584,19.9873859 10.6052433,19.98291 C10.6372599,19.9755857 10.6656058,19.9727374 10.7053717,19.9554439 C10.7263762,19.946492 10.7528867,19.9300123 10.7759305,19.9184155 C10.8246692,19.8937977 10.8738157,19.8685696 10.9313232,19.832762 C10.9623202,19.8138409 10.9975996,19.7888162 11.0304319,19.7668433 C11.0887551,19.7279839 11.1474862,19.6885141 11.2123351,19.6415165 C11.2494499,19.6142539 11.2894197,19.5835325 11.3285737,19.5540319 C11.3966855,19.502355 11.4656129,19.4496607 11.5390268,19.3912698 C11.5794044,19.3591243 11.6212095,19.3249443 11.6630146,19.2909677 C11.7413227,19.2270836 11.8210583,19.1613684 11.903445,19.0917876 C11.9442305,19.0574041 11.9854238,19.0222069 12.027025,18.9866026 C12.1155295,18.9109183 12.2052575,18.8331994 12.2968209,18.7530391 C12.3349553,18.7192659 12.3732937,18.6856963 12.411836,18.6515162 C12.5123722,18.5622005 12.613928,18.4712572 12.7160956,18.3788898 C12.7456651,18.3522375 12.7750306,18.3255852 12.804804,18.2987294 C12.9220623,18.1921203 13.0395244,18.0842904 13.1563748,17.9760536 C13.1708537,17.9626258 13.1853325,17.9494013 13.1998113,17.93577 C13.5946148,17.5697588 13.9753472,17.2076132 14.3069331,16.8900237 C14.4072654,16.7937906 14.5020916,16.7030508 14.5916157,16.6169903 C14.672167,16.5394749 14.7472123,16.4670458 14.8175672,16.399703 C14.9331941,16.2882109 15.0384206,16.1872985 15.1195837,16.1101899 C15.1717891,16.0607509 15.2160413,16.0192466 15.2513208,15.9866942 C15.3082165,15.9342034 15.3502256,15.8969716 15.3561394,15.8969716 C15.6408221,15.6158001 15.9191829,15.3378839 16.1944849,15.060578 C17.6068859,13.6374271 18.875926,12.2449976 19.7950267,10.6594916 C19.9031082,10.473129 20.0054797,10.2841215 20.1037727,10.0920623 C20.1233498,10.0536098 20.13946,10.0127158 20.1586292,9.97365289 C20.6356153,9.01315321 20.9882058,7.97818988 21.167254,6.81891702 C21.1678658,6.81484797 21.2143612,6.47447179 21.2108945,6.47101309 C21.3269292,5.4818266 21.3167328,4.56588304 21.0035003,3.62755969 C20.4125188,1.85569108 18.9275196,0.527145662 17.1050206,0.127361322 Z" id="heart" fill="#272727"></path>
    </g>
</svg>