<?xml version="1.0" encoding="UTF-8"?>
<svg width="21px" height="17px" viewBox="0 0 21 17" version="1.1" xmlns="http://www.w3.org/2000/svg" xmlns:xlink="http://www.w3.org/1999/xlink">
    <!-- Generator: Sketch 52.6 (67491) - http://www.bohemiancoding.com/sketch -->
    <title>Payment method</title>
    <desc>Created with Sketch.</desc>
    <g id="Symbols" stroke="none" stroke-width="1" fill="none" fill-rule="evenodd">
        <path d="M18.8571689,3.67705866e-13 C19.8000274,3.67705866e-13 20.571457,0.771429638 20.571457,1.71428808 L20.571457,14.7428775 C20.571457,15.685736 19.8000274,16.4571656 18.8571689,16.4571656 L1.71428808,16.4571656 C0.771429637,16.4571656 -9.04165631e-13,15.685736 -9.04165631e-13,14.7428775 L-9.04165631e-13,1.71428808 C-9.04165631e-13,0.771429638 0.771429637,3.67705866e-13 1.71428808,3.67705866e-13 L18.8571689,3.67705866e-13 Z M2.74286093,13.7143047 L5.48572187,13.7143047 L5.48572187,12.3428742 L2.74286093,12.3428742 L2.74286093,13.7143047 Z M6.85715233,13.7143047 L10.9714437,13.7143047 L10.9714437,12.3428742 L6.85715233,12.3428742 L6.85715233,13.7143047 Z M2,6.37143047 L19.1142914,6.37143047 L19.1142914,4 L2,4 L2,6.37143047 Z" id="Payment-method" fill="#272727"></path>
    </g>
</svg>