<?xml version="1.0" encoding="UTF-8"?>
<svg width="16px" height="20px" viewBox="0 0 16 20" version="1.1" xmlns="http://www.w3.org/2000/svg" xmlns:xlink="http://www.w3.org/1999/xlink">
    <!-- Generator: Sketch 52.6 (67491) - http://www.bohemiancoding.com/sketch -->
    <title>purshased tour</title>
    <desc>Created with Sketch.</desc>
    <g id="Symbols" stroke="none" stroke-width="1" fill="none" fill-rule="evenodd">
        <path d="M11.0457064,2.01765009 C11.2671018,0.87796213 12.2667654,0.0108539129 13.4726144,9.85864532e-05 C14.8509972,-0.0120453256 15.9846788,1.09927442 15.9998463,2.47776023 C16.0150137,3.85624605 14.9059371,4.98760325 13.5275542,4.99989896 C12.865429,5.00580537 12.2597297,4.75240327 11.80735,4.33467506 L4.88149744,4.4025594 C3.922194,4.41201364 3.15099598,5.30932256 3.16174974,6.40297584 C3.17267419,7.49629146 3.96179514,8.37823723 4.92126927,8.36878299 L11.0555197,8.30884985 C13.2066126,8.28774663 14.9758617,10.2027372 14.9997589,12.5781157 C15.0234855,14.9529877 13.2928133,16.9022499 11.1417205,16.9233531 L4.63199555,16.9869449 C4.2508782,17.7977677 3.66766592,18.5837933 3.35066778,18.9840838 L2.54506951,20 L1.71876307,18.9996934 C1.2057729,18.3782031 0.0119385562,16.8107987 0.000153419515,15.6767639 C-0.0149988991,14.2137994 1.09415082,13.0131419 2.47250674,13.000107 C3.57455189,12.9896864 4.52014871,13.7413629 4.86286157,14.7907582 L4.94431304,14.6759446 L11.1183353,14.5991289 C12.0776387,14.5898434 12.8490075,13.6925345 12.838083,12.5992189 C12.8271586,11.5055656 12.0380376,10.6236198 11.0787342,10.6329053 L4.94431304,10.6930072 C2.79339087,10.7141105 1.02414175,8.79911986 1.00024451,6.42407906 C0.976347271,4.0487006 2.70719012,2.09926955 4.85811228,2.07816633 L11.0457064,2.01765009 Z" id="purshased-tour" fill="#272727"></path>
    </g>
</svg>