<?xml version="1.0" encoding="UTF-8"?>
<svg width="22px" height="21px" viewBox="0 0 22 21" version="1.1" xmlns="http://www.w3.org/2000/svg" xmlns:xlink="http://www.w3.org/1999/xlink">
    <!-- Generator: Sketch 52.6 (67491) - http://www.bohemiancoding.com/sketch -->
    <title>Sales history</title>
    <desc>Created with Sketch.</desc>
    <g id="Symbols" stroke="none" stroke-width="1" fill="none" fill-rule="evenodd">
        <g id="Sales-history" fill="#979797">
            <g id="Group-15">
                <path d="M18.1428597,10.2857265 C18.1428597,6.26786461 14.8749987,3.00000358 10.8571367,3.00000358 C6.83927479,3.00000358 3.57141376,6.26786461 3.57141376,10.2857265 C3.57141376,14.3035885 6.83927479,17.5714495 10.8571367,17.5714495 C14.8749987,17.5714495 18.1428597,14.3035885 18.1428597,10.2857265 Z M21.1428633,10.2857265 C21.1428633,15.9643047 16.5357149,20.5714531 10.8571367,20.5714531 C5.17855853,20.5714531 0.571410179,15.9643047 0.571410179,10.2857265 C0.571410179,4.60714835 5.17855853,1.77635684e-15 10.8571367,1.77635684e-15 C16.5357149,1.77635684e-15 21.1428633,4.60714835 21.1428633,10.2857265 Z" id="Clock-Outlined---FontAwesome-Copy"></path>
                <path d="M12.7142735,5.42857194 L12.7142735,11.4285791 C12.7142735,11.6696508 12.5267732,11.857151 12.2857015,11.857151 L7.99998212,11.857151 C7.7589104,11.857151 7.57141018,11.6696508 7.57141018,11.4285791 L7.57141018,10.5714352 C7.57141018,10.3303635 7.7589104,10.1428633 7.99998212,10.1428633 L10.9999857,10.1428633 L10.9999857,5.42857194 C10.9999857,5.18750022 11.1874859,5 11.4285576,5 L12.2857015,5 C12.5267732,5 12.7142735,5.18750022 12.7142735,5.42857194 Z" id="Path-Copy"></path>
            </g>
        </g>
    </g>
</svg>