<?xml version="1.0" encoding="UTF-8"?>
<svg width="18px" height="26px" viewBox="0 0 18 26" version="1.1" xmlns="http://www.w3.org/2000/svg" xmlns:xlink="http://www.w3.org/1999/xlink">
    <!-- Generator: Sketch 52.6 (67491) - http://www.bohemiancoding.com/sketch -->
    <title>mi tours@3x</title>
    <desc>Created with Sketch.</desc>
    <g id="Symbols" stroke="none" stroke-width="1" fill="none" fill-rule="evenodd">
        <path d="M13.0000143,9.00000954 C13.0000143,6.79688191 11.2031372,5.00000477 9.00000954,5.00000477 C6.79688191,5.00000477 5.00000477,6.79688191 5.00000477,9.00000954 C5.00000477,11.2031372 6.79688191,13.0000143 9.00000954,13.0000143 C11.2031372,13.0000143 13.0000143,11.2031372 13.0000143,9.00000954 Z M17.0000191,9.00000954 C17.0000191,9.95313567 16.8906439,10.9375118 16.4843935,11.7968879 L10.7968867,23.8906523 C10.4687613,24.5781531 9.75001043,25.0000286 9.00000954,25.0000286 C8.25000864,25.0000286 7.53125779,24.5781531 7.21875741,23.8906523 L1.51562561,11.7968879 C1.10937513,10.9375118 1,9.95313567 1,9.00000954 C1,4.57812927 4.57812927,1 9.00000954,1 C13.4218898,1 17.0000191,4.57812927 17.0000191,9.00000954 Z" id="mi-tours" stroke="#979797" stroke-width="1.5"></path>
    </g>
</svg>