<?xml version="1.0" encoding="UTF-8"?>
<svg width="20px" height="22px" viewBox="0 0 20 22" version="1.1" xmlns="http://www.w3.org/2000/svg" xmlns:xlink="http://www.w3.org/1999/xlink">
    <!-- Generator: Sketch 52.6 (67491) - http://www.bohemiancoding.com/sketch -->
    <title>Payout history@1.5x</title>
    <desc>Created with Sketch.</desc>
    <g id="Symbols" stroke="none" stroke-width="1" fill="none" fill-rule="evenodd">
        <g id="Payout-history" transform="translate(1.000000, 1.000000)">
            <path d="M17.7574647,9.60940953 L14.8237667,9.60940953 L14.8237667,0.390655512 C14.8237667,0.232686694 14.7271686,0.0902256939 14.5790805,0.0297569175 C14.4309131,-0.0307509214 14.2604295,0.00276471825 14.147104,0.114405392 L13.0241951,1.22096837 L11.9013655,0.114444454 C11.7465786,-0.0380946746 11.4955899,-0.0380946746 11.3407633,0.114444454 L10.2178941,1.22100744 L9.09514374,0.114444454 C8.9403568,-0.0380946746 8.68936809,-0.0380946746 8.53454152,0.114444454 L7.41167228,1.22100744 L6.2887634,0.114444454 C6.13397646,-0.0380946746 5.88298775,-0.0380946746 5.72820082,0.114444454 L4.60533157,1.22100744 L3.48254161,0.114444454 C3.32775467,-0.0380946746 3.07676597,-0.0380946746 2.92193939,0.114444454 L1.79907015,1.22100744 L0.676240545,0.114444454 C0.522404922,-0.0371571742 0.273596315,-0.0379384245 0.118412995,0.112296016 C0.0369169785,0.191241363 -0.00260224753,0.296436721 0.000132784162,0.400928954 L0.000132784162,17.9688272 C0.000132784162,19.0888277 0.924732047,20 2.06123681,20 L16.0921872,20 C16.0922665,20 16.0923061,20 16.0923854,20 C16.0925043,20 16.0926232,20 16.0927421,20 C17.2292469,20 18.1538462,19.0888277 18.1538462,17.9688272 L18.1538462,9.99999564 C18.1538462,9.78425336 17.9763862,9.60940953 17.7574647,9.60940953 Z" id="Shape" stroke="#979797" stroke-width="1.5" fill-rule="nonzero"></path>
            <path d="M17,16.9746781 C17,17.5180631 16.5513922,17.9601562 16,17.9601562 C15.4486078,17.9601562 15,17.5180631 15,16.9746781 L15,11 L17,11 L17,16.9746781 Z" id="Path" fill="#8E8E8E" fill-rule="nonzero"></path>
            <path d="M7.16182298,6.22349348 C6.59717409,6.22349348 6.13783151,5.83544015 6.13783151,5.35853978 C6.13783151,4.88158329 6.59723098,4.49352996 7.16182298,4.49352996 C7.72647187,4.49352996 8.18581445,4.88158329 8.18581445,5.35853978 C8.18581445,5.66852222 8.44051803,5.91979713 8.7547302,5.91979713 C9.06894237,5.91979713 9.32364596,5.66852222 9.32364596,5.35853978 C9.32364596,4.44363419 8.64754647,3.67168083 7.73073873,3.44145307 L7.73073873,3.06125735 C7.73073873,2.75127491 7.47603515,2.5 7.16182298,2.5 C6.84761081,2.5 6.59290722,2.75127491 6.59290722,3.06125735 L6.59290722,3.44145307 C5.67604259,3.67168083 5,4.44369031 5,5.35853978 C5,6.45439475 5.96983069,7.34595204 7.16182298,7.34595204 C7.72647187,7.34595204 8.18581445,7.73400537 8.18581445,8.21096186 C8.18581445,8.68791836 7.72647187,9.07591556 7.16182298,9.07591556 C6.59717409,9.07591556 6.13783151,8.68786223 6.13783151,8.21096186 C6.13783151,7.90097943 5.88312793,7.64970452 5.56891576,7.64970452 C5.25470358,7.64970452 5,7.90097943 5,8.21096186 C5,9.12586746 5.67609948,9.89782082 6.59290722,10.1280486 L6.59290722,10.5860346 C6.59290722,10.896017 6.84761081,11.1472919 7.16182298,11.1472919 C7.47603515,11.1472919 7.73073873,10.896017 7.73073873,10.5860346 L7.73073873,10.1280486 C8.64760337,9.89782082 9.32364596,9.12586746 9.32364596,8.21096186 C9.32364596,7.1151069 8.35381527,6.22349348 7.16182298,6.22349348 Z" id="Path" fill="#979797"></path>
            <path d="M12.3389377,12.7884615 L1.8661905,12.7884615 C1.50108579,12.7884615 1.20512821,13.04675 1.20512821,13.3653846 C1.20512821,13.6840192 1.50108579,13.9423077 1.8661905,13.9423077 L12.3389377,13.9423077 C12.7040424,13.9423077 13,13.6840192 13,13.3653846 C12.9999339,13.04675 12.7040424,12.7884615 12.3389377,12.7884615 Z" id="Path" fill="#979797"></path>
            <path d="M12.3389377,15.8653846 L1.8661905,15.8653846 C1.50108579,15.8653846 1.20512821,16.1236731 1.20512821,16.4423077 C1.20512821,16.7609423 1.50108579,17.0192308 1.8661905,17.0192308 L12.3389377,17.0192308 C12.7040424,17.0192308 13,16.7609423 13,16.4423077 C13,16.1236731 12.7040424,15.8653846 12.3389377,15.8653846 Z" id="Path" fill="#979797"></path>
        </g>
    </g>
</svg>