<?xml version="1.0" encoding="UTF-8"?>
<svg width="23px" height="22px" viewBox="0 0 23 22" version="1.1" xmlns="http://www.w3.org/2000/svg" xmlns:xlink="http://www.w3.org/1999/xlink">
    <!-- Generator: Sketch 52.6 (67491) - http://www.bohemiancoding.com/sketch -->
    <title>Favorites tour</title>
    <desc>Created with Sketch.</desc>
    <g id="Symbols" stroke="none" stroke-width="1" fill="none" fill-rule="evenodd" stroke-linecap="round" stroke-linejoin="round">
        <path d="M18.1050206,1.12736132 C17.7340767,1.04598029 17.3504893,1 16.9560938,1 C14.1058008,1 11.7893897,3.23309563 11.6513309,6.04257245 L11.6570409,5.85519262 C11.3499262,3.21498835 9.04921755,1 6.31883388,1 C5.89915134,1 5.49211229,1.05045624 5.10077565,1.14180646 C4.93396306,1.18086935 4.77388006,1.23580155 4.61338922,1.29012339 C3.03091276,1.82520371 1.780634,3.07379225 1.26286239,4.66194318 C1.23492434,4.74759672 1.2122884,4.83528478 1.18883675,4.92236249 C1.17068722,4.98889149 1.15253768,5.05542049 1.1370392,5.12296675 C1.11909359,5.20048218 1.10379904,5.27901488 1.08932019,5.35795449 C1.07280207,5.44849089 1.05913894,5.5398411 1.04731115,5.63200513 C1.03935798,5.69426162 1.03058911,5.75651811 1.02467521,5.81918151 C1.00978851,5.9797056 1,6.14124696 1,6.3054332 C1,7.35992798 1.24002252,8.44331302 1.64787728,9.52120485 C1.82101163,9.97958353 2.0330961,10.4357242 2.2625144,10.8892201 L2.26496153,10.8941029 C2.3116609,10.986267 2.35366994,11.0794482 2.40220465,11.1714088 C2.502333,11.3614335 2.60633596,11.5502375 2.71441747,11.7386346 C2.77987816,11.8525681 2.84309565,11.966705 2.91100346,12.0798246 C3.16285378,12.4985301 3.4326497,12.9117423 3.71488519,13.3174267 C3.85620686,13.520269 4.00058745,13.7210767 4.14761909,13.9200533 C4.44209022,14.3175997 4.74696165,14.7063976 5.05774698,15.084209 C5.26004293,15.3299798 5.46662137,15.5649675 5.67279195,15.8001587 C5.73886442,15.8754362 5.80371333,15.9549861 5.86998972,16.0296532 C8.44192182,18.9223421 11.1451831,20.9733477 11.5336648,20.997762 C11.5361119,20.997762 11.5403944,21 11.5426376,21 C11.5589518,21 11.5852584,20.9873859 11.6052433,20.98291 C11.6372599,20.9755857 11.6656058,20.9727374 11.7053717,20.9554439 C11.7263762,20.946492 11.7528867,20.9300123 11.7759305,20.9184155 C11.8246692,20.8937977 11.8738157,20.8685696 11.9313232,20.832762 C11.9623202,20.8138409 11.9975996,20.7888162 12.0304319,20.7668433 C12.0887551,20.7279839 12.1474862,20.6885141 12.2123351,20.6415165 C12.2494499,20.6142539 12.2894197,20.5835325 12.3285737,20.5540319 C12.3966855,20.502355 12.4656129,20.4496607 12.5390268,20.3912698 C12.5794044,20.3591243 12.6212095,20.3249443 12.6630146,20.2909677 C12.7413227,20.2270836 12.8210583,20.1613684 12.903445,20.0917876 C12.9442305,20.0574041 12.9854238,20.0222069 13.027025,19.9866026 C13.1155295,19.9109183 13.2052575,19.8331994 13.2968209,19.7530391 C13.3349553,19.7192659 13.3732937,19.6856963 13.411836,19.6515162 C13.5123722,19.5622005 13.613928,19.4712572 13.7160956,19.3788898 C13.7456651,19.3522375 13.7750306,19.3255852 13.804804,19.2987294 C13.9220623,19.1921203 14.0395244,19.0842904 14.1563748,18.9760536 C14.1708537,18.9626258 14.1853325,18.9494013 14.1998113,18.93577 C14.5946148,18.5697588 14.9753472,18.2076132 15.3069331,17.8900237 C15.4072654,17.7937906 15.5020916,17.7030508 15.5916157,17.6169903 C15.672167,17.5394749 15.7472123,17.4670458 15.8175672,17.399703 C15.9331941,17.2882109 16.0384206,17.1872985 16.1195837,17.1101899 C16.1717891,17.0607509 16.2160413,17.0192466 16.2513208,16.9866942 C16.3082165,16.9342034 16.3502256,16.8969716 16.3561394,16.8969716 C16.6408221,16.6158001 16.9191829,16.3378839 17.1944849,16.060578 C18.6068859,14.6374271 19.875926,13.2449976 20.7950267,11.6594916 C20.9031082,11.473129 21.0054797,11.2841215 21.1037727,11.0920623 C21.1233498,11.0536098 21.13946,11.0127158 21.1586292,10.9736529 C21.6356153,10.0131532 21.9882058,8.97818988 22.167254,7.81891702 C22.1678658,7.81484797 22.2143612,7.47447179 22.2108945,7.47101309 C22.3269292,6.4818266 22.3167328,5.56588304 22.0035003,4.62755969 C21.4125188,2.85569108 19.9275196,1.52714566 18.1050206,1.12736132 Z" id="Favorites-tour" stroke="#8E8E8E" stroke-width="1.5"></path>
    </g>
</svg>