<?xml version="1.0" encoding="UTF-8"?>
<svg width="21px" height="17px" viewBox="0 0 21 17" version="1.1" xmlns="http://www.w3.org/2000/svg" xmlns:xlink="http://www.w3.org/1999/xlink">
    <!-- Generator: Sketch 52.6 (67491) - http://www.bohemiancoding.com/sketch -->
    <title>Payment methods</title>
    <desc>Created with Sketch.</desc>
    <g id="Symbols" stroke="none" stroke-width="1" fill="none" fill-rule="evenodd">
        <g id="Payment-methods" fill="#8E8E8E">
            <path d="M18.8571689,0 C19.8000274,0 20.571457,0.771429638 20.571457,1.71428808 L20.571457,14.7428775 C20.571457,15.685736 19.8000274,16.4571656 18.8571689,16.4571656 L1.71428808,16.4571656 C0.771429637,16.4571656 0,15.685736 0,14.7428775 L0,1.71428808 C0,0.771429638 0.771429637,0 1.71428808,0 L18.8571689,0 Z M1.71428808,1.37143047 C1.53214497,1.37143047 1.37143047,1.59073872 1.37143047,1.83928808 L1.37143047,5.1142914 L19.2000265,5.1142914 L19.2000265,1.83928808 C19.2000265,1.59073872 19.039312,1.37143047 18.8571689,1.37143047 L1.71428808,1.37143047 Z M18.8571689,15.0857351 C19.039312,15.0857351 19.2000265,14.9015831 19.2000265,14.6928775 L19.2000265,7.2285828 L1.37143047,7.2285828 L1.37143047,14.6928775 C1.37143047,14.9015831 1.53214497,15.0857351 1.71428808,15.0857351 L18.8571689,15.0857351 Z M2.74286093,13.7143047 L2.74286093,12.3428742 L5.48572187,12.3428742 L5.48572187,13.7143047 L2.74286093,13.7143047 Z M6.85715233,13.7143047 L6.85715233,12.3428742 L10.9714437,12.3428742 L10.9714437,13.7143047 L6.85715233,13.7143047 Z" id="credit-card---FontAwesome"></path>
        </g>
    </g>
</svg>