<?xml version="1.0" encoding="UTF-8"?>
<svg width="20px" height="24px" viewBox="0 0 20 24" version="1.1" xmlns="http://www.w3.org/2000/svg" xmlns:xlink="http://www.w3.org/1999/xlink">
    <!-- Generator: Sketch 52.6 (67491) - http://www.bohemiancoding.com/sketch -->
    <title>Purchased tours</title>
    <desc>Created with Sketch.</desc>
    <g id="Symbols" stroke="none" stroke-width="1" fill="none" fill-rule="evenodd" stroke-linecap="round" stroke-linejoin="round">
        <path d="M12.4882569,3.27306622 C12.971414,2.08489821 14.1321663,1.26202461 15.4660069,1.25012769 C17.2579839,1.23433991 18.7300836,2.6775148 18.7498009,4.46950851 C18.769532,6.26276266 17.3274644,7.7338729 15.5342442,7.74986912 C14.8035672,7.75638704 14.106399,7.51870794 13.5389947,7.0873414 L6.88888857,7.15252298 C6.36736735,7.15766274 5.90483175,7.69573192 5.9117123,8.39548218 C5.91870202,9.09501151 6.39209341,9.62396085 6.91394193,9.61881879 L13.0481622,9.55888594 C15.6308861,9.53354821 17.7218154,11.7967615 17.7497215,14.5706231 C17.7774304,17.3440986 15.7318797,19.6479785 13.1490467,19.6733173 L7.09415584,19.7324659 C6.77327148,20.3218874 6.36845905,20.906934 5.93832719,21.4500842 L4.55698003,23.1920604 L3.96683861,22.4776495 L3.1403522,21.477125 C2.04641282,20.1518115 1.26214895,18.8349408 1.25019364,17.6845314 C1.23084918,15.8168131 2.66224448,14.2671928 4.46541529,14.2501405 C5.65182627,14.2389222 6.71641236,14.9007527 7.29515471,15.9215216 L13.1110761,15.849164 C13.6325301,15.8441167 14.095109,15.306128 14.0881204,14.6067102 C14.08113,13.9068945 13.6077425,13.37782 13.0860819,13.3828693 L6.95167111,13.4429711 C4.36914394,13.4683089 2.27818892,11.2051237 2.25028246,8.43162397 C2.22237643,5.65777258 4.26796342,3.35354281 6.85077744,3.32820219 L12.4882569,3.27306622 Z" id="Purchased-tours" stroke="#979797" stroke-width="1.5"></path>
    </g>
</svg>